<svg id="_x31_px" enable-background="new 0 0 24 24" height="512" viewBox="0 0 24 24" width="512" xmlns="http://www.w3.org/2000/svg"><path d="m12 17c-1.103 0-2-.897-2-2s.897-2 2-2 2 .897 2 2-.897 2-2 2zm0-3c-.551 0-1 .449-1 1s.449 1 1 1 1-.449 1-1-.449-1-1-1z"/><path d="m15.5 23c-.276 0-.5-.224-.5-.5v-2c0-.827-.673-1.5-1.5-1.5h-3c-.827 0-1.5.673-1.5 1.5v2c0 .276-.224.5-.5.5s-.5-.224-.5-.5v-2c0-1.378 1.122-2.5 2.5-2.5h3c1.378 0 2.5 1.122 2.5 2.5v2c0 .276-.224.5-.5.5z"/><path d="m7 16c-1.103 0-2-.897-2-2s.897-2 2-2 2 .897 2 2-.897 2-2 2zm0-3c-.551 0-1 .449-1 1s.449 1 1 1 1-.449 1-1-.449-1-1-1z"/><path d="m3.5 21c-.276 0-.5-.224-.5-.5v-1c0-1.378 1.122-2.5 2.5-2.5h2c.276 0 .5.224.5.5s-.224.5-.5.5h-2c-.827 0-1.5.673-1.5 1.5v1c0 .276-.224.5-.5.5z"/><path d="m17 16c-1.103 0-2-.897-2-2s.897-2 2-2 2 .897 2 2-.897 2-2 2zm0-3c-.551 0-1 .449-1 1s.449 1 1 1 1-.449 1-1-.449-1-1-1z"/><path d="m20.5 21c-.276 0-.5-.224-.5-.5v-1c0-.827-.673-1.5-1.5-1.5h-2c-.276 0-.5-.224-.5-.5s.224-.5.5-.5h2c1.378 0 2.5 1.122 2.5 2.5v1c0 .276-.224.5-.5.5z"/><path d="m2.35 16.13c-.102 0-.204-.031-.292-.095-1.289-.931-2.058-2.44-2.058-4.035 0-2.642 2.059-4.811 4.656-4.988.692-3.456 3.777-6.012 7.344-6.012 2.801 0 5.381 1.578 6.653 4.044 3.022.317 5.347 2.878 5.347 5.956 0 1.9-.867 3.643-2.38 4.779-.22.167-.533.123-.7-.099-.166-.221-.122-.534.099-.7 1.259-.946 1.981-2.397 1.981-3.98 0-2.647-2.063-4.835-4.698-4.981-.184-.01-.347-.121-.425-.288-1.057-2.266-3.364-3.731-5.877-3.731-3.214 0-5.977 2.395-6.425 5.57-.034.246-.246.43-.495.43-2.286 0-4.08 1.794-4.08 4 0 1.275.614 2.48 1.643 3.225.224.162.274.475.112.698-.097.135-.25.207-.405.207z"/></svg>