<svg xmlns="http://www.w3.org/2000/svg" width="76.317" height="69.958" viewBox="0 0 76.317 69.958">
  <g id="content_1_" data-name="content (1)" transform="translate(0 -0.5)">
    <path id="Path_36" data-name="Path 36" d="M144,256.5h16.535v2.544H144Zm0,0" transform="translate(-121.105 -215.297)" fill="#0f57ee"/>
    <path id="Path_37" data-name="Path 37" d="M144,216.5h13.992v2.544H144Zm0,0" transform="translate(-121.105 -181.657)" fill="#0f57ee"/>
    <path id="Path_38" data-name="Path 38" d="M72.5,6.86H58.51V1.772A1.272,1.272,0,0,0,57.238.5H19.079a1.272,1.272,0,0,0-1.272,1.272V6.86H3.816A3.816,3.816,0,0,0,0,10.676V48.834A3.816,3.816,0,0,0,3.816,52.65H31.8v7.632H20.351a1.272,1.272,0,0,0-1.272,1.272v6.36H16.535v2.544H59.782V67.914H57.238v-6.36a1.272,1.272,0,0,0-1.272-1.272H44.518V52.65H72.5a3.816,3.816,0,0,0,3.816-3.816V10.676A3.816,3.816,0,0,0,72.5,6.86Zm0,2.544a1.272,1.272,0,0,1,1.272,1.272v31.8H58.51V28.14l6.167-7.348a5.088,5.088,0,0,0-6.167-7.82V9.4ZM48.829,35.719l-3.9-3.27L56.38,18.809l3.9,3.27Zm-4.787-.7,2.405,2.018-2.884.995ZM62.728,19.156l-.818.973-3.9-3.271.818-.974a2.544,2.544,0,1,1,3.9,3.271ZM20.351,3.044H55.966v12.3L42.165,31.79a1.271,1.271,0,0,0-.282.617l-1.165,7.326a1.271,1.271,0,0,0,1.671,1.4L49.4,38.715a1.259,1.259,0,0,0,.56-.381l6.006-7.162V46.29H20.351ZM3.816,9.4H17.807V42.475H2.544v-31.8A1.272,1.272,0,0,1,3.816,9.4Zm50.878,58.51H21.623V62.826H54.694Zm-12.72-7.632H34.343V52.65h7.632ZM72.5,50.106H3.816a1.272,1.272,0,0,1-1.272-1.272V45.019H17.807v2.544a1.272,1.272,0,0,0,1.272,1.272H57.238a1.272,1.272,0,0,0,1.272-1.272V45.019H73.774v3.816A1.272,1.272,0,0,1,72.5,50.106Zm0,0" fill="#0f57ee"/>
    <path id="Path_39" data-name="Path 39" d="M432,288.5h2.544v2.544H432Zm0,0" transform="translate(-363.314 -242.21)" fill="#0f57ee"/>
    <path id="Path_40" data-name="Path 40" d="M144,32.5h5.088v2.544H144Zm0,0" transform="translate(-121.105 -26.912)" fill="#0f57ee"/>
    <path id="Path_41" data-name="Path 41" d="M192,32.5h21.623v2.544H192Zm0,0" transform="translate(-161.473 -26.912)" fill="#0f57ee"/>
    <path id="Path_42" data-name="Path 42" d="M144,72.5h29.255v2.544H144Zm0,0" transform="translate(-121.105 -60.552)" fill="#0f57ee"/>
    <path id="Path_43" data-name="Path 43" d="M144,112.5h2.544v2.544H144Zm0,0" transform="translate(-121.105 -94.193)" fill="#0f57ee"/>
    <path id="Path_44" data-name="Path 44" d="M176,112.5h2.544v2.544H176Zm0,0" transform="translate(-148.017 -94.193)" fill="#0f57ee"/>
    <path id="Path_45" data-name="Path 45" d="M208,112.5h13.992v2.544H208Zm0,0" transform="translate(-174.929 -94.193)" fill="#0f57ee"/>
    <path id="Path_46" data-name="Path 46" d="M144,152.5h7.632v2.544H144Zm0,0" transform="translate(-121.105 -127.833)" fill="#0f57ee"/>
    <path id="Path_47" data-name="Path 47" d="M208,152.5h8.9v2.544H208Zm0,0" transform="translate(-174.929 -127.833)" fill="#0f57ee"/>
  </g>
</svg>
