<svg xmlns="http://www.w3.org/2000/svg" width="67.48" height="69.66" viewBox="0 0 67.48 69.66">
  <g id="keyboard" transform="translate(-1.001)">
    <path id="Path_49" data-name="Path 49" d="M4.266,33.737H7.517s0,.008,0,.011V51.164a9.82,9.82,0,0,0,4.354,8.12v1.669A1.085,1.085,0,0,0,10.8,62.038v2.185a1.087,1.087,0,0,0-1.088,1.088v3.261a1.088,1.088,0,0,0,2.177,0V66.4H22.769v2.173a1.088,1.088,0,0,0,2.177,0V65.311a1.087,1.087,0,0,0-1.088-1.088V62.038a1.087,1.087,0,0,0-1.088-1.088h-.005V59.12a13.165,13.165,0,0,0,3.166-3.311s0,0,0,0l6.95-10.235a0,0,0,0,0,0,0,3.394,3.394,0,0,0-.132-4.457,3.289,3.289,0,0,0-4.591-.025s0,0,0,0l-.005,0-1.043.995V33.737H42.374V42.09L41.331,41.1l-.005,0s0,0,0,0a3.289,3.289,0,0,0-4.591.025A3.394,3.394,0,0,0,36.6,45.57a0,0,0,0,0,0,0l6.95,10.235s0,0,0,0a13.165,13.165,0,0,0,3.166,3.311v1.83h-.007a1.087,1.087,0,0,0-1.088,1.088v2.188a1.086,1.086,0,0,0-1.073,1.085v3.261a1.088,1.088,0,0,0,2.177,0V66.4H57.612v2.173a1.088,1.088,0,0,0,2.177,0V65.311A1.087,1.087,0,0,0,58.7,64.222h-.015V62.038a1.086,1.086,0,0,0-1.073-1.085V59.284a9.82,9.82,0,0,0,4.354-8.12V33.748s0-.008,0-.011h3.251a3.269,3.269,0,0,0,3.265-3.265V3.265A3.269,3.269,0,0,0,65.216,0H4.266A3.269,3.269,0,0,0,1,3.265V30.472a3.269,3.269,0,0,0,3.265,3.265Zm8.706,30.485v-1.1H21.68v1.1Zm18.239-21.57c.58.58-.007,1.515-.13,1.7h0l-6.95,10.235h0a10.779,10.779,0,0,1-3.042,3.063c-.033.022-.051.054-.081.077a1.039,1.039,0,0,0-.161.156,1.294,1.294,0,0,0-.113.168,1.013,1.013,0,0,0-.125.4.929.929,0,0,0-.023.112v2.383H14.047V58.706a1.281,1.281,0,0,0-.026-.132,1.118,1.118,0,0,0-.044-.218,1.075,1.075,0,0,0-.091-.188A1.059,1.059,0,0,0,13.773,58a1.133,1.133,0,0,0-.171-.152.923.923,0,0,0-.1-.086,7.653,7.653,0,0,1-3.811-6.6V33.748a1.088,1.088,0,1,1,2.177,0v7.62a1.088,1.088,0,0,0,2.177,0V30.484a1.088,1.088,0,0,1,2.177,0V41.368a1.088,1.088,0,0,0,2.177,0v-13c0-.024.014-.045.014-.069V27.151a1.082,1.082,0,0,1,2.163.067v14.15a1.088,1.088,0,0,0,2.177,0V30.484a1.088,1.088,0,0,1,2.177,0v14.15a1.1,1.1,0,0,0,.029.149,1.139,1.139,0,0,0,.052.255,1.071,1.071,0,0,0,.139.222,1.01,1.01,0,0,0,.079.125l.011.008a1.085,1.085,0,0,0,.354.245,1.1,1.1,0,0,0,.423.085,1.075,1.075,0,0,0,.41-.083,1.121,1.121,0,0,0,.186-.119.966.966,0,0,0,.156-.1l2.877-2.744a1.121,1.121,0,0,1,1.563-.025ZM16.238,27.081c0,.042-.013.083-.013.125H15.15V26.118h1.088Zm30.476.126H22.768V26.119H46.714ZM27.108,31.56V30.484a3.21,3.21,0,0,0-.2-1.1H42.577a3.236,3.236,0,0,0-.2,1.1V31.56ZM47.8,64.222v-1.1h8.708v1.1Zm8.177-6.458a.933.933,0,0,0-.1.087A1.025,1.025,0,0,0,55.71,58a1.15,1.15,0,0,0-.113.167,1.029,1.029,0,0,0-.091.187,1.118,1.118,0,0,0-.044.218,1.084,1.084,0,0,0-.026.132v2.243H48.9V58.567a1.1,1.1,0,0,0-.023-.113,1.2,1.2,0,0,0-.044-.216,1.118,1.118,0,0,0-.082-.188,1.054,1.054,0,0,0-.113-.168,1.146,1.146,0,0,0-.161-.156c-.029-.023-.048-.057-.081-.077a10.793,10.793,0,0,1-3.042-3.063h0L38.4,44.351h0c-.123-.182-.71-1.116-.13-1.7a1.124,1.124,0,0,1,1.564.024l2.877,2.744a.987.987,0,0,0,.156.1,1.016,1.016,0,0,0,.186.119,1.075,1.075,0,0,0,.41.083,1.1,1.1,0,0,0,.423-.085,1.086,1.086,0,0,0,.354-.245l.011-.008a1,1,0,0,0,.078-.125.989.989,0,0,0,.14-.223,1.1,1.1,0,0,0,.052-.253.991.991,0,0,0,.029-.15V30.483a1.088,1.088,0,1,1,2.177,0V41.367a1.088,1.088,0,0,0,2.177,0V27.218a1.082,1.082,0,0,1,2.163-.067V28.3c0,.024.013.045.014.069v13a1.088,1.088,0,0,0,2.177,0V30.483a1.088,1.088,0,1,1,2.177,0V41.367a1.088,1.088,0,0,0,2.177,0v-7.62a1.088,1.088,0,0,1,2.177,0V51.163a7.657,7.657,0,0,1-3.812,6.6ZM54.333,27.208H53.258c0-.044-.011-.083-.013-.125V26.12h1.088ZM3.178,3.265A1.09,1.09,0,0,1,4.266,2.177h60.95a1.09,1.09,0,0,1,1.088,1.088V30.472a1.09,1.09,0,0,1-1.088,1.088H61.108a3.179,3.179,0,0,0-3.495-.876v-.2a3.241,3.241,0,0,0-1.1-2.427V25.032a1.088,1.088,0,0,0-1.088-1.088H52.157a1.082,1.082,0,0,0-.778.331,3.152,3.152,0,0,0-2.79.011,1.085,1.085,0,0,0-.786-.341H21.679a1.081,1.081,0,0,0-.785.341,3.152,3.152,0,0,0-2.79-.011,1.082,1.082,0,0,0-.778-.331H14.061a1.088,1.088,0,0,0-1.088,1.088v3.025a3.247,3.247,0,0,0-1.1,2.427v.2a3.179,3.179,0,0,0-3.495.876H4.266a1.09,1.09,0,0,1-1.088-1.088Z"/>
    <path id="Path_50" data-name="Path 50" d="M6.088,15.441H9.354a1.088,1.088,0,0,0,1.088-1.088V11.087A1.088,1.088,0,0,0,9.354,10H6.088A1.088,1.088,0,0,0,5,11.087v3.265A1.088,1.088,0,0,0,6.088,15.441Zm1.088-3.265H8.265v1.088H7.177Z" transform="translate(0.354 0.884)"/>
    <path id="Path_51" data-name="Path 51" d="M13.088,15.441h3.265a1.088,1.088,0,0,0,1.088-1.088V11.087A1.088,1.088,0,0,0,16.354,10H13.088A1.088,1.088,0,0,0,12,11.087v3.265A1.088,1.088,0,0,0,13.088,15.441Zm1.088-3.265h1.088v1.088H14.177Z" transform="translate(0.973 0.884)"/>
    <path id="Path_52" data-name="Path 52" d="M20.088,15.441h3.265a1.088,1.088,0,0,0,1.088-1.088V11.087A1.088,1.088,0,0,0,23.354,10H20.088A1.088,1.088,0,0,0,19,11.087v3.265A1.088,1.088,0,0,0,20.088,15.441Zm1.088-3.265h1.088v1.088H21.177Z" transform="translate(1.592 0.884)"/>
    <path id="Path_53" data-name="Path 53" d="M27.088,15.441h3.265a1.088,1.088,0,0,0,1.088-1.088V11.087A1.088,1.088,0,0,0,30.354,10H27.088A1.088,1.088,0,0,0,26,11.087v3.265A1.088,1.088,0,0,0,27.088,15.441Zm1.088-3.265h1.088v1.088H28.177Z" transform="translate(2.211 0.884)"/>
    <path id="Path_54" data-name="Path 54" d="M34.088,15.441h3.265a1.088,1.088,0,0,0,1.088-1.088V11.087A1.088,1.088,0,0,0,37.354,10H34.088A1.088,1.088,0,0,0,33,11.087v3.265A1.088,1.088,0,0,0,34.088,15.441Zm1.088-3.265h1.088v1.088H35.177Z" transform="translate(2.83 0.884)"/>
    <path id="Path_55" data-name="Path 55" d="M41.088,15.441h3.265a1.088,1.088,0,0,0,1.088-1.088V11.087A1.088,1.088,0,0,0,44.354,10H41.088A1.088,1.088,0,0,0,40,11.087v3.265A1.088,1.088,0,0,0,41.088,15.441Zm1.088-3.265h1.088v1.088H42.177Z" transform="translate(3.449 0.884)"/>
    <path id="Path_56" data-name="Path 56" d="M48.088,15.441h3.265a1.088,1.088,0,0,0,1.088-1.088V11.087A1.088,1.088,0,0,0,51.354,10H48.088A1.088,1.088,0,0,0,47,11.087v3.265A1.088,1.088,0,0,0,48.088,15.441Zm1.088-3.265h1.088v1.088H49.177Z" transform="translate(4.068 0.884)"/>
    <path id="Path_57" data-name="Path 57" d="M6.088,21.441H16.973a1.088,1.088,0,0,0,1.088-1.088V17.087A1.088,1.088,0,0,0,16.973,16H6.088A1.088,1.088,0,0,0,5,17.087v3.265A1.088,1.088,0,0,0,6.088,21.441Zm1.088-3.265h8.708v1.088H7.177Z" transform="translate(0.354 1.415)"/>
    <path id="Path_58" data-name="Path 58" d="M20.088,21.441h3.265a1.088,1.088,0,0,0,1.088-1.088V17.087A1.088,1.088,0,0,0,23.354,16H20.088A1.088,1.088,0,0,0,19,17.087v3.265A1.088,1.088,0,0,0,20.088,21.441Zm1.088-3.265h1.088v1.088H21.177Z" transform="translate(1.592 1.415)"/>
    <path id="Path_59" data-name="Path 59" d="M27.088,21.441h3.265a1.088,1.088,0,0,0,1.088-1.088V17.087A1.088,1.088,0,0,0,30.354,16H27.088A1.088,1.088,0,0,0,26,17.087v3.265A1.088,1.088,0,0,0,27.088,21.441Zm1.088-3.265h1.088v1.088H28.177Z" transform="translate(2.211 1.415)"/>
    <path id="Path_60" data-name="Path 60" d="M34.088,21.441h3.265a1.088,1.088,0,0,0,1.088-1.088V17.087A1.088,1.088,0,0,0,37.354,16H34.088A1.088,1.088,0,0,0,33,17.087v3.265A1.088,1.088,0,0,0,34.088,21.441Zm1.088-3.265h1.088v1.088H35.177Z" transform="translate(2.83 1.415)"/>
    <path id="Path_61" data-name="Path 61" d="M41.088,21.441h3.265a1.088,1.088,0,0,0,1.088-1.088V17.087A1.088,1.088,0,0,0,44.354,16H41.088A1.088,1.088,0,0,0,40,17.087v3.265A1.088,1.088,0,0,0,41.088,21.441Zm1.088-3.265h1.088v1.088H42.177Z" transform="translate(3.449 1.415)"/>
    <path id="Path_62" data-name="Path 62" d="M48.088,21.441h3.265a1.088,1.088,0,0,0,1.088-1.088V17.087A1.088,1.088,0,0,0,51.354,16H48.088A1.088,1.088,0,0,0,47,17.087v3.265A1.088,1.088,0,0,0,48.088,21.441Zm1.088-3.265h1.088v1.088H49.177Z" transform="translate(4.068 1.415)"/>
    <path id="Path_63" data-name="Path 63" d="M55.088,21.972h3.265a1.088,1.088,0,0,0,1.088-1.088v-9.8A1.088,1.088,0,0,0,58.354,10H55.088A1.088,1.088,0,0,0,54,11.087v9.8A1.088,1.088,0,0,0,55.088,21.972Zm1.088-9.8h1.088v7.619H56.177Z" transform="translate(4.687 0.884)"/>
    <path id="Path_64" data-name="Path 64" d="M6.088,27.439H9.354a1.088,1.088,0,0,0,1.088-1.088V23.085A1.088,1.088,0,0,0,9.354,22H6.088A1.088,1.088,0,0,0,5,23.085v3.265A1.088,1.088,0,0,0,6.088,27.439Zm1.088-3.265H8.265v1.088H7.177Z" transform="translate(0.354 1.945)"/>
    <path id="Path_65" data-name="Path 65" d="M55.088,27.439h3.265a1.088,1.088,0,0,0,1.088-1.088V23.085A1.088,1.088,0,0,0,58.354,22H55.088A1.088,1.088,0,0,0,54,23.085v3.265A1.088,1.088,0,0,0,55.088,27.439Zm1.088-3.265h1.088v1.088H56.177Z" transform="translate(4.687 1.945)"/>
    <path id="Path_66" data-name="Path 66" d="M7.721,9.442A2.721,2.721,0,1,0,5,6.721,2.724,2.724,0,0,0,7.721,9.442Zm0-3.265a.544.544,0,1,1-.544.544A.545.545,0,0,1,7.721,6.177Z" transform="translate(0.354 0.354)"/>
    <path id="Path_67" data-name="Path 67" d="M14.721,9.442A2.721,2.721,0,1,0,12,6.721,2.724,2.724,0,0,0,14.721,9.442Zm0-3.265a.544.544,0,1,1-.544.544A.545.545,0,0,1,14.721,6.177Z" transform="translate(0.973 0.354)"/>
    <path id="Path_68" data-name="Path 68" d="M21.721,9.442A2.721,2.721,0,1,0,19,6.721,2.724,2.724,0,0,0,21.721,9.442Zm0-3.265a.544.544,0,1,1-.544.544A.545.545,0,0,1,21.721,6.177Z" transform="translate(1.592 0.354)"/>
    <path id="Path_69" data-name="Path 69" d="M28.721,9.442A2.721,2.721,0,1,0,26,6.721,2.724,2.724,0,0,0,28.721,9.442Zm0-3.265a.544.544,0,1,1-.544.544A.545.545,0,0,1,28.721,6.177Z" transform="translate(2.211 0.354)"/>
    <path id="Path_70" data-name="Path 70" d="M35.721,9.442A2.721,2.721,0,1,0,33,6.721,2.724,2.724,0,0,0,35.721,9.442Zm0-3.265a.544.544,0,1,1-.544.544A.545.545,0,0,1,35.721,6.177Z" transform="translate(2.83 0.354)"/>
    <path id="Path_71" data-name="Path 71" d="M42.721,9.442A2.721,2.721,0,1,0,40,6.721,2.724,2.724,0,0,0,42.721,9.442Zm0-3.265a.544.544,0,1,1-.544.544A.545.545,0,0,1,42.721,6.177Z" transform="translate(3.449 0.354)"/>
    <path id="Path_72" data-name="Path 72" d="M49.721,9.442A2.721,2.721,0,1,0,47,6.721,2.724,2.724,0,0,0,49.721,9.442Zm0-3.265a.544.544,0,1,1-.544.544A.545.545,0,0,1,49.721,6.177Z" transform="translate(4.068 0.354)"/>
    <path id="Path_73" data-name="Path 73" d="M56.721,9.442A2.721,2.721,0,1,0,54,6.721,2.724,2.724,0,0,0,56.721,9.442Zm0-3.265a.544.544,0,1,1-.544.544A.545.545,0,0,1,56.721,6.177Z" transform="translate(4.687 0.354)"/>
  </g>
</svg>
