<svg xmlns="http://www.w3.org/2000/svg" width="39.019" height="39.019" viewBox="0 0 39.019 39.019">
  <path id="Icon_material-picture-as-pdf" data-name="Icon material-picture-as-pdf" d="M43.141,3H13.877A4.892,4.892,0,0,0,9,7.877V37.141a4.892,4.892,0,0,0,4.877,4.877H43.141a4.892,4.892,0,0,0,4.877-4.877V7.877A4.892,4.892,0,0,0,43.141,3ZM22.413,21.29a3.653,3.653,0,0,1-3.658,3.658H16.316v4.877H12.658V15.193h6.1a3.653,3.653,0,0,1,3.658,3.658Zm12.193,4.877a3.653,3.653,0,0,1-3.658,3.658h-6.1V15.193h6.1a3.653,3.653,0,0,1,3.658,3.658Zm9.755-7.316H40.7V21.29h3.658v3.658H40.7v4.877H37.045V15.193h7.316ZM16.316,21.29h2.439V18.851H16.316Zm12.193,4.877h2.439V18.851H28.509Z" transform="translate(-9 -3)" fill="#3e77ee"/>
</svg>
