<svg xmlns="http://www.w3.org/2000/svg" width="44.121" height="44.121" viewBox="0 0 44.121 44.121">
  <g id="XMLID_776_" transform="translate(0)">
    <path id="XMLID_854_" d="M11.343,329.021,1.53,337.1a4.124,4.124,0,1,0,5.8,5.8l8.078-9.813A19.8,19.8,0,0,1,11.343,329.021Z" transform="translate(0 -300.309)" fill="#3e77ee"/>
    <circle id="XMLID_909_" cx="1.963" cy="1.963" r="1.963" transform="translate(25.141 15.053)" fill="#3e77ee"/>
    <path id="XMLID_956_" d="M270.64,247.5a3.933,3.933,0,0,0-3.82,3.02,8.5,8.5,0,0,0,7.64,0A3.933,3.933,0,0,0,270.64,247.5Z" transform="translate(-243.535 -225.902)" fill="#3e77ee"/>
    <path id="XMLID_969_" d="M132.611,0a17.017,17.017,0,1,0,17.017,17.017A17.036,17.036,0,0,0,132.611,0Zm0,28.143a11.126,11.126,0,1,1,11.126-11.126A11.139,11.139,0,0,1,132.611,28.143Z" transform="translate(-105.506)" fill="#3e77ee"/>
    <path id="XMLID_970_" d="M221.6,97.5a8.5,8.5,0,0,0-6.039,14.5,6.584,6.584,0,0,1,2.556-3.016,4.581,4.581,0,1,1,6.966,0A6.584,6.584,0,0,1,227.642,112,8.5,8.5,0,0,0,221.6,97.5Z" transform="translate(-194.498 -88.992)" fill="#3e77ee"/>
  </g>
</svg>
