<svg xmlns="http://www.w3.org/2000/svg" width="79.724" height="56.407" viewBox="0 0 79.724 56.407">
  <path id="Icon_awesome-users" data-name="Icon awesome-users" d="M11.659,25.567a7.772,7.772,0,1,0-7.772-7.772A7.78,7.78,0,0,0,11.659,25.567Zm54.407,0a7.772,7.772,0,1,0-7.772-7.772A7.78,7.78,0,0,0,66.065,25.567Zm3.886,3.886H62.179A7.75,7.75,0,0,0,56.7,31.712,17.764,17.764,0,0,1,65.822,45h8.015a3.882,3.882,0,0,0,3.886-3.886V37.226A7.78,7.78,0,0,0,69.951,29.453Zm-31.089,0a13.6,13.6,0,1,0-13.6-13.6A13.595,13.595,0,0,0,38.862,29.453Zm9.327,3.886H47.181a18.779,18.779,0,0,1-16.638,0H29.535a13.994,13.994,0,0,0-13.99,13.99v3.5a5.831,5.831,0,0,0,5.829,5.829H56.35a5.831,5.831,0,0,0,5.829-5.829v-3.5A13.994,13.994,0,0,0,48.189,33.339ZM21.022,31.712a7.75,7.75,0,0,0-5.477-2.259H7.772A7.78,7.78,0,0,0,0,37.226v3.886A3.882,3.882,0,0,0,3.886,45h8A17.809,17.809,0,0,1,21.022,31.712Z" transform="translate(1 -1.25)" fill="none" stroke="#000" stroke-width="2"/>
</svg>
