<svg xmlns="http://www.w3.org/2000/svg" width="28.033" height="21.025" viewBox="0 0 28.033 21.025">
  <g id="envelope" transform="translate(0 -64)">
    <g id="Group_5" data-name="Group 5" transform="translate(0 64)">
      <path id="Path_103" data-name="Path 103" d="M25.7,64H2.336A2.338,2.338,0,0,0,0,66.336V82.689a2.338,2.338,0,0,0,2.336,2.336H25.7a2.338,2.338,0,0,0,2.336-2.336V66.336A2.338,2.338,0,0,0,25.7,64ZM2.336,65.168H25.7a1.112,1.112,0,0,1,.243.049c-2.022,1.851-8.729,7.986-11.076,10.1a1.172,1.172,0,0,1-1.7,0c-2.347-2.114-9.053-8.25-11.075-10.1A1.116,1.116,0,0,1,2.336,65.168ZM1.168,82.689V66.336a1.128,1.128,0,0,1,.065-.323c1.548,1.417,6.227,5.7,9.261,8.457-3.024,2.6-7.7,7.035-9.265,8.523A1.125,1.125,0,0,1,1.168,82.689ZM25.7,83.857H2.336a1.118,1.118,0,0,1-.263-.053c1.612-1.537,6.323-6,9.294-8.542.387.351.741.672,1.02.923a2.333,2.333,0,0,0,3.259,0c.279-.251.633-.572,1.021-.924,2.971,2.541,7.681,7,9.294,8.542A1.117,1.117,0,0,1,25.7,83.857Zm1.168-1.168a1.128,1.128,0,0,1-.062.3c-1.561-1.489-6.241-5.926-9.265-8.523,3.034-2.759,7.713-7.039,9.261-8.457a1.129,1.129,0,0,1,.065.323Z" transform="translate(0 -64)" fill="#43425d"/>
    </g>
  </g>
</svg>
