<svg xmlns="http://www.w3.org/2000/svg" width="28.454" height="28.452" viewBox="0 0 28.454 28.452">
  <g id="globe" transform="translate(0 -0.022)">
    <g id="Group_3" data-name="Group 3" transform="translate(0 0.022)">
      <path id="Path_100" data-name="Path 100" d="M14.21.022A14.248,14.248,0,0,0,12.683.1a13.429,13.429,0,0,0-1.377.22l-.263.058a14.228,14.228,0,0,0-7.018,3.93q-.267.273-.522.563A14.244,14.244,0,0,0,24.4,24.219q.267-.273.522-.563A14.243,14.243,0,0,0,14.21.022Zm-9.552,5c.075-.078.153-.152.229-.228s.176-.174.266-.258.161-.145.242-.217.183-.162.277-.241.168-.137.252-.2.19-.152.288-.225.174-.128.263-.19.2-.142.3-.208.18-.12.272-.178.2-.129.307-.19.186-.11.28-.163.211-.118.317-.175.19-.1.285-.149.217-.107.327-.159.194-.09.292-.133l.338-.142c.1-.04.2-.08.3-.118.115-.044.231-.085.348-.125.1-.035.2-.069.3-.1.118-.038.237-.073.357-.108.1-.029.2-.059.3-.086L10.9,1.4A11.781,11.781,0,0,0,7.869,6.323,15.947,15.947,0,0,1,4.615,5.071C4.631,5.055,4.644,5.038,4.658,5.024Zm-.683.764a16.5,16.5,0,0,0,3.6,1.434,24.637,24.637,0,0,0-.959,6.569H.927A13.265,13.265,0,0,1,3.975,5.788Zm0,16.955a13.267,13.267,0,0,1-3.048-8H6.62a24.635,24.635,0,0,0,.959,6.569A16.507,16.507,0,0,0,3.975,22.743Zm6.809,4.366c-.1-.024-.2-.056-.294-.085-.12-.035-.241-.07-.359-.109-.1-.032-.2-.067-.3-.1-.117-.04-.234-.082-.349-.126-.1-.038-.2-.077-.294-.117l-.339-.142q-.145-.064-.289-.132c-.111-.052-.221-.105-.332-.16-.095-.047-.19-.095-.285-.147s-.214-.116-.32-.177-.185-.107-.277-.162-.207-.127-.31-.193-.18-.116-.269-.176-.2-.14-.3-.211-.174-.124-.259-.19-.195-.151-.291-.227-.168-.133-.25-.2-.187-.161-.279-.243-.162-.142-.241-.216-.179-.172-.267-.259-.154-.15-.229-.227l-.041-.044A15.935,15.935,0,0,1,7.866,22.21,11.784,11.784,0,0,0,10.9,27.137Zm2.951.413c-2.032-.289-3.813-2.409-4.933-5.54a24.128,24.128,0,0,1,4.933-.581v6.121Zm0-7.07a25,25,0,0,0-5.231.624A23.752,23.752,0,0,1,7.57,14.74h6.166v5.711Zm0-6.661H7.57A23.747,23.747,0,0,1,8.5,7.456a25.011,25.011,0,0,0,5.231.624Zm0-6.661A24.1,24.1,0,0,1,8.8,6.549c1.12-3.131,2.9-5.252,4.933-5.54V7.13Zm10.71-1.342a13.267,13.267,0,0,1,3.048,8H21.8a24.635,24.635,0,0,0-.959-6.569A16.513,16.513,0,0,0,24.445,5.788ZM17.632,1.422c.1.025.2.056.3.085.12.035.241.07.359.109.1.032.2.067.3.1.117.04.234.082.349.126.1.038.2.077.294.117l.339.142q.145.064.289.132c.111.052.221.105.332.16.095.047.19.095.285.147s.214.116.32.177.185.107.277.162.207.127.31.193.18.116.269.176.2.139.3.21.174.125.26.19.194.15.29.227.168.133.25.2.187.161.279.243.162.142.241.216.179.172.267.259.154.15.229.227l.041.044A15.935,15.935,0,0,1,20.554,6.32a11.783,11.783,0,0,0-3.038-4.927Zm-2.947-.413c2.032.289,3.813,2.409,4.933,5.54a24.128,24.128,0,0,1-4.933.581V1.009Zm0,7.07a25,25,0,0,0,5.231-.624,23.752,23.752,0,0,1,.935,6.335H14.685Zm0,6.661h6.166a23.747,23.747,0,0,1-.935,6.335h0a25.011,25.011,0,0,0-5.231-.624Zm0,12.782V21.4a24.1,24.1,0,0,1,4.933.581C18.5,25.113,16.717,27.233,14.685,27.522Zm9.077-4.015c-.075.077-.152.152-.229.227s-.177.175-.267.259-.16.142-.241.216-.184.163-.278.242-.168.136-.252.2-.19.152-.288.225-.174.128-.263.19-.2.142-.3.208-.18.12-.272.178-.2.129-.307.19-.186.11-.279.163-.211.118-.317.175-.19.1-.285.149-.217.107-.327.159-.194.09-.292.133l-.338.142c-.1.04-.2.08-.295.117-.116.044-.232.085-.349.126-.1.035-.2.069-.3.1-.119.038-.237.074-.358.108-.1.029-.2.059-.3.086l-.115.028a11.781,11.781,0,0,0,3.034-4.927,15.947,15.947,0,0,1,3.253,1.252C23.79,23.476,23.776,23.493,23.763,23.507Zm.683-.764a16.5,16.5,0,0,0-3.6-1.434A24.637,24.637,0,0,0,21.8,14.74h5.693A13.265,13.265,0,0,1,24.445,22.743Z" transform="translate(0 -0.022)" fill="#43425d"/>
    </g>
  </g>
</svg>
