<svg xmlns="http://www.w3.org/2000/svg" width="36.454" height="23.146" viewBox="0 0 36.454 23.146">
  <g id="group" transform="translate(0 -92.25)">
    <g id="Group_4" data-name="Group 4" transform="translate(0 92.25)">
      <path id="Path_101" data-name="Path 101" d="M31.528,102.435a4.162,4.162,0,1,0-4.775,0,7.211,7.211,0,0,0-2.46,1.443,9.331,9.331,0,0,0-3.376-1.839,5.273,5.273,0,1,0-5.453,0,9.408,9.408,0,0,0-3.34,1.818,7.27,7.27,0,0,0-2.431-1.414,4.162,4.162,0,1,0-4.775,0A7.305,7.305,0,0,0,0,109.345v.476a.031.031,0,0,0,.029.029H8.85a9.7,9.7,0,0,0-.079,1.219v.49a3.836,3.836,0,0,0,3.837,3.837h11.18a3.836,3.836,0,0,0,3.837-3.837v-.49a9.7,9.7,0,0,0-.079-1.219h8.879a.031.031,0,0,0,.029-.029v-.476A7.333,7.333,0,0,0,31.528,102.435Zm-5.4-3.412a3.008,3.008,0,1,1,3.066,3.008h-.115A3,3,0,0,1,26.133,99.023Zm-12.074-1.5a4.119,4.119,0,1,1,4.357,4.111h-.476A4.125,4.125,0,0,1,14.058,97.523Zm-9.781,1.5a3.008,3.008,0,1,1,3.066,3.008H7.227A3.008,3.008,0,0,1,4.277,99.023Zm4.775,9.665H1.168a6.163,6.163,0,0,1,6.073-5.5h.087a6.1,6.1,0,0,1,3.931,1.464A9.471,9.471,0,0,0,9.052,108.688Zm17.4,2.871a2.687,2.687,0,0,1-2.683,2.683H12.594a2.687,2.687,0,0,1-2.683-2.683v-.49a8.286,8.286,0,0,1,8.028-8.273c.079.007.166.007.245.007s.166,0,.245-.007a8.286,8.286,0,0,1,8.028,8.273Zm.858-2.871a9.446,9.446,0,0,0-2.186-4.01,6.128,6.128,0,0,1,3.967-1.493h.087a6.163,6.163,0,0,1,6.073,5.5Z" transform="translate(0 -92.25)" fill="#43425d"/>
    </g>
  </g>
</svg>
