<svg xmlns="http://www.w3.org/2000/svg" width="30.357" height="30.356" viewBox="0 0 30.357 30.356">
  <g id="customer-support" transform="translate(-0.007 0.264)">
    <path id="Path_114" data-name="Path 114" d="M.378,2.81,2.366,6.29a.5.5,0,0,0,.311.236l1.855.464L10.9,13.353l.7-.7L5.136,6.187a.5.5,0,0,0-.231-.131L3.123,5.609,1.429,2.645,2.881,1.193,5.847,2.888l.447,1.783a.5.5,0,0,0,.131.231l6.463,6.463.7-.7L7.227,4.3,6.764,2.444a.5.5,0,0,0-.236-.311L3.048.144a.5.5,0,0,0-.6.08L.463,2.213a.5.5,0,0,0-.085.6Zm0,0" transform="translate(-0.039 -0.075)" fill="#43425d" stroke="#43425d" stroke-width="0.5"/>
    <path id="Path_115" data-name="Path 115" d="M185.621,174.422l-10.937,10.937-.7-.7,10.937-10.937Zm0,0" transform="translate(-164.613 -164.624)" fill="#43425d" stroke="#43425d" stroke-width="0.5"/>
    <path id="Path_116" data-name="Path 116" d="M53.151,399.077a.5.5,0,0,0-.426-.241H49.742a.5.5,0,0,0-.426.241l-1.491,2.486a.5.5,0,0,0,0,.512l1.491,2.486a.5.5,0,0,0,.426.241h2.983a.5.5,0,0,0,.426-.241l1.491-2.486a.5.5,0,0,0,0-.512Zm-.707,4.73h-2.42l-1.193-1.988,1.193-1.989h2.42l1.193,1.989Zm0,0" transform="translate(-44.994 -377.955)" fill="#43425d" stroke="#43425d" stroke-width="0.5"/>
    <path id="Path_117" data-name="Path 117" d="M24.136,11.932a5.945,5.945,0,0,0,5.783-7.407.5.5,0,0,0-.834-.232L25.991,7.386l-2.455-.818-.819-2.455,3.095-3.1a.5.5,0,0,0-.233-.834,5.947,5.947,0,0,0-7.407,5.783,5.835,5.835,0,0,0,.121,1.165L7.4,18.019A5.865,5.865,0,0,0,6.239,17.9,5.966,5.966,0,1,0,12.2,23.863a5.85,5.85,0,0,0-.121-1.165l2.606-2.606,1.14,1.14a.5.5,0,0,0,.7,0l.248-.249a.558.558,0,0,1,.789.788h0l-.248.248a.5.5,0,0,0,0,.7l5.93,5.93a4.012,4.012,0,1,0,5.7-5.649l-.026-.026L23,17.049a.5.5,0,0,0-.7,0l-.248.248a.558.558,0,0,1-.79-.787h0l.249-.249a.5.5,0,0,0,0-.7l-1.14-1.14,2.606-2.606a5.85,5.85,0,0,0,1.165.121Zm1.953,16.9a3.021,3.021,0,0,1-1.057-.193l3.883-3.883a3.015,3.015,0,0,1-2.825,4.076ZM20.457,15.914A1.551,1.551,0,0,0,22.645,18.1l5.579,5.584c.061.061.117.125.172.19l-4.251,4.251c-.065-.055-.129-.111-.19-.172l-5.583-5.584a1.552,1.552,0,0,0-2.187-2.185l-.8-.8,4.273-4.266Zm2.007-5L11.187,22.19a.5.5,0,0,0-.131.472,5,5,0,1,1-3.615-3.615.5.5,0,0,0,.472-.131L19.188,7.64a.5.5,0,0,0,.131-.472A4.947,4.947,0,0,1,24.419,1L21.8,3.627a.5.5,0,0,0-.12.508l.994,2.983a.5.5,0,0,0,.315.314l2.983.994a.5.5,0,0,0,.508-.12L29.1,5.684c.006.095.009.189.009.282a4.946,4.946,0,0,1-6.173,4.817.5.5,0,0,0-.472.131h0Zm0,0" transform="translate(0 0)" fill="#43425d" stroke="#43425d" stroke-width="0.5"/>
    <path id="Path_118" data-name="Path 118" d="M388.565,387.6l-.7.7-4.971-4.971.7-.7Zm0,0" transform="translate(-362.585 -362.593)" fill="#43425d" stroke="#43425d" stroke-width="0.5"/>
  </g>
</svg>
