<svg xmlns="http://www.w3.org/2000/svg" width="27.454" height="27.454" viewBox="0 0 27.454 27.454">
  <g id="open-book" transform="translate(-0.002 0)">
    <g id="Group_2" data-name="Group 2" transform="translate(0.002 0)">
      <g id="Group_1" data-name="Group 1" transform="translate(0 0)">
        <path id="Path_89" data-name="Path 89" d="M290.18,198.762a.458.458,0,0,0,.616.2,39.23,39.23,0,0,1,4.049-1.8.458.458,0,0,0-.276-.873,39.248,39.248,0,0,0-4.188,1.859A.458.458,0,0,0,290.18,198.762Z" transform="translate(-274.573 -185.742)" fill="#43425d"/>
        <path id="Path_90" data-name="Path 90" d="M290.588,96.613a.457.457,0,0,0,.207-.05,39.234,39.234,0,0,1,4.049-1.8.458.458,0,0,0-.276-.873,39.246,39.246,0,0,0-4.188,1.859.457.457,0,0,0,.208.865Z" transform="translate(-274.573 -88.834)" fill="#43425d"/>
        <path id="Path_91" data-name="Path 91" d="M27,6.864a.457.457,0,0,0-.458.458V25.167a1.374,1.374,0,0,1-1.373,1.373H14.187V25.486a13.484,13.484,0,0,1,4.118-.777,23.6,23.6,0,0,1,6.719.892.458.458,0,0,0,.6-.434V5.033a.457.457,0,0,0-.358-.447s-.359-.08-.972-.193a.458.458,0,0,0-.166.9c.234.043.43.081.581.111V24.558a25.841,25.841,0,0,0-6.406-.765,14.375,14.375,0,0,0-4.558.877,10.719,10.719,0,0,0-4.136-.877,30.834,30.834,0,0,0-6.864.784V5.388a30.119,30.119,0,0,1,6.864-.812,9.921,9.921,0,0,1,3.661.754V23.336a.457.457,0,0,0,.693.392,52.386,52.386,0,0,1,8.6-4.076.458.458,0,0,0,.313-.434V.458a.458.458,0,0,0-.619-.429,48.675,48.675,0,0,0-7.4,3.7.458.458,0,1,0,.485.776,48.906,48.906,0,0,1,6.621-3.38V18.891a51.279,51.279,0,0,0-7.779,3.651V5.033a.458.458,0,0,0-.253-.41,10.6,10.6,0,0,0-4.323-.963,29.7,29.7,0,0,0-7.447.933.457.457,0,0,0-.332.44V25.167a.457.457,0,0,0,.458.458.451.451,0,0,0,.125-.018,29.393,29.393,0,0,1,7.2-.9,9.9,9.9,0,0,1,3.661.755v1.076H2.29A1.374,1.374,0,0,1,.917,25.167V7.321a.458.458,0,1,0-.915,0V25.167A2.29,2.29,0,0,0,2.29,27.454H25.168a2.29,2.29,0,0,0,2.288-2.288V7.321A.458.458,0,0,0,27,6.864Z" transform="translate(-0.002 0)" fill="#43425d"/>
        <path id="Path_92" data-name="Path 92" d="M290.18,147.562a.458.458,0,0,0,.616.2,39.237,39.237,0,0,1,4.049-1.8.458.458,0,0,0-.276-.873,39.238,39.238,0,0,0-4.188,1.859A.458.458,0,0,0,290.18,147.562Z" transform="translate(-274.573 -137.288)" fill="#43425d"/>
        <path id="Path_93" data-name="Path 93" d="M290.18,249.962a.458.458,0,0,0,.616.2,39.23,39.23,0,0,1,4.049-1.8.458.458,0,0,0-.276-.873,39.242,39.242,0,0,0-4.188,1.859A.458.458,0,0,0,290.18,249.962Z" transform="translate(-274.573 -234.197)" fill="#43425d"/>
        <path id="Path_94" data-name="Path 94" d="M91.844,153.9a14.522,14.522,0,0,0-6.171.218.458.458,0,0,0,.118.9A.465.465,0,0,0,85.91,155a13.79,13.79,0,0,1,5.726-.211.457.457,0,1,0,.209-.891Z" transform="translate(-80.758 -145.406)" fill="#43425d"/>
        <path id="Path_95" data-name="Path 95" d="M91.844,205.1a14.531,14.531,0,0,0-6.171.218.458.458,0,0,0,.118.9.466.466,0,0,0,.119-.016,13.79,13.79,0,0,1,5.726-.211.457.457,0,1,0,.209-.891Z" transform="translate(-80.758 -193.864)" fill="#43425d"/>
        <path id="Path_96" data-name="Path 96" d="M290.18,301.162a.458.458,0,0,0,.616.2,39.238,39.238,0,0,1,4.049-1.8.458.458,0,0,0-.276-.873,39.244,39.244,0,0,0-4.188,1.859A.458.458,0,0,0,290.18,301.162Z" transform="translate(-274.573 -282.651)" fill="#43425d"/>
        <path id="Path_97" data-name="Path 97" d="M91.844,256.3a14.521,14.521,0,0,0-6.171.218.458.458,0,0,0,.118.9.465.465,0,0,0,.119-.016,13.79,13.79,0,0,1,5.726-.211.457.457,0,1,0,.209-.891Z" transform="translate(-80.758 -242.317)" fill="#43425d"/>
        <path id="Path_98" data-name="Path 98" d="M91.844,358.7a14.521,14.521,0,0,0-6.171.218.458.458,0,0,0,.118.9.462.462,0,0,0,.119-.016,13.79,13.79,0,0,1,5.726-.211.457.457,0,1,0,.209-.891Z" transform="translate(-80.758 -339.224)" fill="#43425d"/>
        <path id="Path_99" data-name="Path 99" d="M91.844,307.5a14.514,14.514,0,0,0-6.171.218.458.458,0,0,0,.118.9.464.464,0,0,0,.119-.016,13.789,13.789,0,0,1,5.726-.211.457.457,0,1,0,.209-.891Z" transform="translate(-80.758 -290.768)" fill="#43425d"/>
      </g>
    </g>
  </g>
</svg>
