<svg xmlns="http://www.w3.org/2000/svg" width="8.002" height="8.301" viewBox="0 0 8.002 8.301">
  <path id="Icon" d="M3.445,3A.453.453,0,0,0,3,3.461a7.7,7.7,0,0,0,7.558,7.84A.453.453,0,0,0,11,10.84V9.226a.453.453,0,0,0-.445-.461A4.9,4.9,0,0,1,8.97,8.5a.435.435,0,0,0-.453.115L7.539,9.632a6.866,6.866,0,0,1-2.93-3.039l.978-1.019A.465.465,0,0,0,5.7,5.108a5.44,5.44,0,0,1-.253-1.646A.453.453,0,0,0,5,3M8.779,3V4.383H7.446v.922H8.779V6.689h.889V5.306H11V4.383H9.668V3" transform="translate(-3 -3)" fill="#fff"/>
</svg>
