<svg id="Icon" xmlns="http://www.w3.org/2000/svg" width="10.669" height="11.068" viewBox="0 0 10.669 11.068">
  <path id="Path_1052" data-name="Path 1052" d="M8.112,7.534A1.354,1.354,0,0,0,9.441,6.15l0-2.767a1.335,1.335,0,1,0-2.667,0V6.15A1.357,1.357,0,0,0,8.112,7.534ZM10.468,6.15a2.356,2.356,0,0,1-4.712,0H5a3.181,3.181,0,0,0,2.667,3.1v1.513h.889V9.249a3.174,3.174,0,0,0,2.667-3.1Z" transform="translate(-2.777 -1.078)" fill="#fff"/>
  <path id="Path_1053" data-name="Path 1053" d="M0,0H10.669V11.068H0Z" fill="none"/>
</svg>
