<svg id="Icon" xmlns="http://www.w3.org/2000/svg" width="10.669" height="11.068" viewBox="0 0 10.669 11.068">
  <path id="Path_1062" data-name="Path 1062" d="M0,0H10.669V11.068H0ZM0,0H10.669V11.068H0Z" fill="none"/>
  <path id="Path_1063" data-name="Path 1063" d="M10.113,6.15H9.357a2.434,2.434,0,0,1-.191.945l.547.567a3.123,3.123,0,0,0,.4-1.513Zm-1.787.078c0-.028.009-.051.009-.078V3.383a1.335,1.335,0,1,0-2.667,0v.083ZM3.565,2.461,3,3.047,5.672,5.818V6.15A1.354,1.354,0,0,0,7,7.534,1.211,1.211,0,0,0,7.29,7.5l.738.766A2.371,2.371,0,0,1,7,8.5,2.347,2.347,0,0,1,4.645,6.15H3.889a3.181,3.181,0,0,0,2.667,3.1v1.513h.889V9.249a3.045,3.045,0,0,0,1.129-.415l1.863,1.928L11,10.176Z" transform="translate(-1.666 -1.078)" fill="#f55"/>
</svg>
