<svg xmlns="http://www.w3.org/2000/svg" xmlns:xlink="http://www.w3.org/1999/xlink" width="5.269" height="7.026" viewBox="0 0 5.269 7.026">
  <defs>
    <clipPath id="clip-path">
      <path id="Path_1310" data-name="Path 1310" d="M517.074-138.886v.472a.439.439,0,0,1-.439.44.439.439,0,0,1-.439-.44v-.472a2.637,2.637,0,0,1-2.2-2.6.439.439,0,0,1,.439-.44.439.439,0,0,1,.439.44,1.757,1.757,0,0,0,1.756,1.758,1.757,1.757,0,0,0,1.756-1.758.439.439,0,0,1,.439-.44.439.439,0,0,1,.439.44,2.637,2.637,0,0,1-2.2,2.6Zm-.439-1.282a1.316,1.316,0,0,1-.932-.387,1.319,1.319,0,0,1-.385-.934v-2.192A1.318,1.318,0,0,1,516.635-145a1.318,1.318,0,0,1,1.317,1.319v2.192a1.321,1.321,0,0,1-1.317,1.321Z" transform="translate(-514 145)" fill="#0755f6" clip-rule="evenodd"/>
    </clipPath>
    <clipPath id="clip-path-2">
      <path id="Path_1309" data-name="Path 1309" d="M-64-556.234H252.152V-1041H-64Z" transform="translate(64 1041)" fill="#0755f6"/>
    </clipPath>
  </defs>
  <g id="Group_2597" data-name="Group 2597" transform="translate(0 0)" clip-path="url(#clip-path)">
    <g id="Group_2596" data-name="Group 2596" transform="translate(-253.799 -393.433)" clip-path="url(#clip-path-2)">
      <path id="Path_1308" data-name="Path 1308" d="M509-150h9.66v11.417H509Z" transform="translate(-257.396 541.238)" fill="#0755f6"/>
    </g>
  </g>
</svg>
