<svg xmlns="http://www.w3.org/2000/svg" xmlns:xlink="http://www.w3.org/1999/xlink" width="6.147" height="7.026" viewBox="0 0 6.147 7.026">
  <defs>
    <clipPath id="clip-path">
      <path id="Path_1313" data-name="Path 1313" d="M70.269-974.8a2.2,2.2,0,0,0-2.2-2.2,2.2,2.2,0,0,0-2.2,2.2,2.191,2.191,0,0,0,.768,1.668A3.073,3.073,0,0,0,65-970.414a.439.439,0,0,0,.439.439.439.439,0,0,0,.439-.439,2.2,2.2,0,0,1,2.2-2.2,2.2,2.2,0,0,1,2.2,2.2.439.439,0,0,0,.439.439.439.439,0,0,0,.439-.439,3.073,3.073,0,0,0-1.646-2.723A2.191,2.191,0,0,0,70.269-974.8Zm-2.2,1.317a1.317,1.317,0,0,1-1.317-1.317,1.317,1.317,0,0,1,1.317-1.317,1.317,1.317,0,0,1,1.317,1.317,1.317,1.317,0,0,1-1.317,1.317Z" transform="translate(-65 977)" fill="#0755f6"/>
    </clipPath>
    <clipPath id="clip-path-2">
      <path id="Path_1312" data-name="Path 1312" d="M-64-556.234H252.152V-1041H-64Z" transform="translate(64 1041)" fill="#0755f6"/>
    </clipPath>
  </defs>
  <g id="Group_2599" data-name="Group 2599" transform="translate(0 0)" clip-path="url(#clip-path)">
    <g id="Group_2598" data-name="Group 2598" transform="translate(-56.644 -28.103)" clip-path="url(#clip-path-2)">
      <path id="Path_1311" data-name="Path 1311" d="M60-982H70.538v11.417H60Z" transform="translate(-5.552 1007.907)" fill="#0755f6"/>
    </g>
  </g>
</svg>
