<svg xmlns="http://www.w3.org/2000/svg" width="10.277" height="9.343" viewBox="0 0 10.277 9.343">
  <path id="Icon" d="M3.27,9.343V8.409H4.2V7.475H.934A.934.934,0,0,1,0,6.54V.934A.931.931,0,0,1,.934,0H9.343a.934.934,0,0,1,.934.934V6.54a.934.934,0,0,1-.934.934H6.073v.934h.935v.934ZM.934,6.54H9.343V.934H.934Zm5.609-.934V4.67H8.409v.936ZM8.409,3.27v0ZM4.2,5.606V4.672H6.073v.934Zm-2.336,0V4.672H3.737v.934ZM6.543,4.2V3.268H8.409V4.2Zm-2.336,0V3.268H6.073V4.2Zm-2.336,0V3.268H3.737V4.2ZM4.207,2.8V1.867H6.073V2.8Zm2.333,0V1.868H8.409V2.8Zm-4.672,0V1.868H3.737V2.8Z" fill="#e8e8e8"/>
</svg>
