<svg xmlns="http://www.w3.org/2000/svg" width="72.678" height="72.555" viewBox="0 0 72.678 72.555">
  <g id="button" transform="translate(0)">
    <path id="Path_1393" data-name="Path 1393" d="M15.8,13.795A40.721,40.721,0,0,1,40.775,5.664,43.357,43.357,0,0,1,55.4,8.158q-.548-.472-1.13-.924A36.453,36.453,0,0,0,31.9,0,36.453,36.453,0,0,0,9.543,7.233C3.389,12.021,0,18.435,0,25.293A21.48,21.48,0,0,0,4.866,38.757a25.043,25.043,0,0,1-.253-3.542c0-8.2,3.973-15.809,11.186-21.421Zm0,0" transform="translate(0)" fill="#4480ff"/>
    <path id="Path_1394" data-name="Path 1394" d="M116.758,77.132A36.45,36.45,0,0,0,94.4,69.9a36.45,36.45,0,0,0-22.362,7.234c-6.153,4.787-9.542,11.2-9.542,18.059s3.389,13.272,9.542,18.06A36.453,36.453,0,0,0,94.4,120.485a40.478,40.478,0,0,0,5.929-.435l11.859,11.859a2.126,2.126,0,0,0,3.629-1.5V113.955c6.681-4.79,10.487-11.572,10.487-18.764,0-6.859-3.388-13.272-9.542-18.059Zm-21.031,29.32a2.122,2.122,0,1,1,.624-1.5A2.137,2.137,0,0,1,95.727,106.452ZM96.35,94.94v1.507a2.126,2.126,0,0,1-4.251,0V93.171a2.126,2.126,0,0,1,2.126-2.126,2.251,2.251,0,1,0-2.075-3.127,2.126,2.126,0,0,1-3.915-1.656A6.5,6.5,0,1,1,96.35,94.94Zm0,0" transform="translate(-53.621 -59.976)" fill="#4480ff"/>
  </g>
</svg>
