<svg xmlns="http://www.w3.org/2000/svg" width="45.686" height="73.098" viewBox="0 0 45.686 73.098">
  <path id="Icon_awesome-mobile-alt" data-name="Icon awesome-mobile-alt" d="M38.833,0H6.853A6.855,6.855,0,0,0,0,6.853V66.245A6.855,6.855,0,0,0,6.853,73.1h31.98a6.855,6.855,0,0,0,6.853-6.853V6.853A6.855,6.855,0,0,0,38.833,0ZM22.843,68.529a4.569,4.569,0,1,1,4.569-4.569A4.564,4.564,0,0,1,22.843,68.529ZM38.833,53.11a1.718,1.718,0,0,1-1.713,1.713H8.566A1.718,1.718,0,0,1,6.853,53.11V8.566A1.718,1.718,0,0,1,8.566,6.853H37.12a1.718,1.718,0,0,1,1.713,1.713Z" fill="#4480ff"/>
</svg>
