<svg xmlns="http://www.w3.org/2000/svg" width="77.412" height="51.608" viewBox="0 0 77.412 51.608">
  <path id="Icon_awesome-folder-open" data-name="Icon awesome-folder-open" d="M76.968,35.155,67.234,51.841a8.6,8.6,0,0,1-7.43,4.267H6.051a3.226,3.226,0,0,1-2.786-4.851L13,34.571a8.6,8.6,0,0,1,7.43-4.267H74.182a3.225,3.225,0,0,1,2.786,4.851ZM20.428,26H64.51V19.552A6.451,6.451,0,0,0,58.059,13.1h-21.5l-8.6-8.6H6.451A6.451,6.451,0,0,0,0,10.951V48.319L9.284,32.4A12.946,12.946,0,0,1,20.428,26Z" transform="translate(0 -4.5)" fill="#4480ff"/>
</svg>
