<svg xmlns="http://www.w3.org/2000/svg" width="85.562" height="85.355" viewBox="0 0 85.562 85.355">
  <g id="group" transform="translate(0 -0.545)">
    <g id="Group_2619" data-name="Group 2619" transform="translate(0 0.545)">
      <g id="Group_2618" data-name="Group 2618" transform="translate(0 0)">
        <circle id="Ellipse_77" data-name="Ellipse 77" cx="7.461" cy="7.461" r="7.461" transform="translate(35.32)" fill="#4480ff"/>
        <path id="Path_1386" data-name="Path 1386" d="M172.563,88.319l-.106,0h-5.571a10.346,10.346,0,0,0-10.15,10.539c0,.035,0,.07,0,.106v1.592c0,.8.3,1.691,1.194,1.691h23.477c.9,0,1.194-.9,1.194-1.691V98.961A10.346,10.346,0,0,0,172.563,88.319Z" transform="translate(-126.891 -71.604)" fill="#4480ff"/>
        <path id="Path_1387" data-name="Path 1387" d="M48.536,140.863a1.492,1.492,0,0,0,1.492-1.492A30.74,30.74,0,0,1,61.568,115.3a1.393,1.393,0,0,0,.2-2.089,1.492,1.492,0,0,0-2.089-.2,33.824,33.824,0,0,0-12.634,26.362A1.492,1.492,0,0,0,48.536,140.863Z" transform="translate(-38.086 -91.321)" fill="#4480ff"/>
        <path id="Path_1388" data-name="Path 1388" d="M184.825,406.178h0a31.436,31.436,0,0,1-19.6,0,1.492,1.492,0,0,0-1.879.96l-.011.035a1.592,1.592,0,0,0,.995,1.89,34.525,34.525,0,0,0,10.644,1.691,33.527,33.527,0,0,0,10.843-1.791,1.492,1.492,0,0,0-.995-2.786Z" transform="translate(-132.195 -328.881)" fill="#4480ff"/>
        <path id="Path_1389" data-name="Path 1389" d="M315.357,109.147l.019.013a30.939,30.939,0,0,1,13.032,25.169,1.492,1.492,0,0,0,2.985,0,34.022,34.022,0,0,0-14.325-27.656,1.592,1.592,0,0,0-2.089.4A1.492,1.492,0,0,0,315.357,109.147Z" transform="translate(-254.788 -86.279)" fill="#4480ff"/>
        <circle id="Ellipse_78" data-name="Ellipse 78" cx="7.461" cy="7.461" r="7.461" transform="translate(5.476 54.714)" fill="#4480ff"/>
        <path id="Path_1390" data-name="Path 1390" d="M15.828,375.667l-.106,0H10.152A10.346,10.346,0,0,0,0,386.2c0,.035,0,.07,0,.106V387.9c0,.8.3,1.691,1.194,1.691H24.676c.9,0,1.194-.9,1.194-1.691v-1.592A10.346,10.346,0,0,0,15.828,375.667Z" transform="translate(0 -304.237)" fill="#4480ff"/>
        <circle id="Ellipse_79" data-name="Ellipse 79" cx="7.461" cy="7.461" r="7.461" transform="translate(65.164 54.714)" fill="#4480ff"/>
        <path id="Path_1391" data-name="Path 1391" d="M329.3,375.667l-.106,0h-5.571a10.346,10.346,0,0,0-10.15,10.539c0,.035,0,.07,0,.106V387.9c0,.8.3,1.691,1.194,1.691h23.478c.9,0,1.194-.9,1.194-1.691v-1.592A10.346,10.346,0,0,0,329.3,375.667Z" transform="translate(-253.781 -304.237)" fill="#4480ff"/>
      </g>
    </g>
  </g>
</svg>
