<svg xmlns="http://www.w3.org/2000/svg" width="66.242" height="66.253" viewBox="0 0 66.242 66.253">
  <path id="Icon_open-browser" data-name="Icon open-browser" d="M2.818.008A4.14,4.14,0,0,0,0,4.147V62.1a4.14,4.14,0,0,0,4.14,4.14H62.1a4.14,4.14,0,0,0,4.14-4.14V4.147A4.14,4.14,0,0,0,62.1.008H4.142a4.14,4.14,0,0,0-.745,0,4.14,4.14,0,0,0-.5,0Zm9.6,8.28a4.14,4.14,0,1,1-4.14,4.14A4.1,4.1,0,0,1,12.422,8.287Zm16.559,0H53.82a4.14,4.14,0,0,1,0,8.28H28.981a4.14,4.14,0,0,1,0-8.28ZM8.282,24.846H57.959V57.965H8.282Z" transform="translate(0.003 0.009)" fill="#4480ff"/>
</svg>
