<svg xmlns="http://www.w3.org/2000/svg" width="88.913" height="62.611" viewBox="0 0 88.913 62.611">
  <path id="Icon_metro-books" data-name="Icon metro-books" d="M20.247,8.571H5.1A2.533,2.533,0,0,0,2.571,11.1V66.649A2.533,2.533,0,0,0,5.1,69.174H20.247a2.533,2.533,0,0,0,2.525-2.525V11.1a2.533,2.533,0,0,0-2.525-2.525ZM17.722,23.722H7.622v-5.05h10.1v5.05ZM45.5,8.571H30.348A2.533,2.533,0,0,0,27.822,11.1V66.649a2.533,2.533,0,0,0,2.525,2.525H45.5a2.533,2.533,0,0,0,2.525-2.525V11.1A2.533,2.533,0,0,0,45.5,8.571ZM42.973,23.722h-10.1v-5.05h10.1ZM62.944,12.476l-13.53,6.817A2.533,2.533,0,0,0,48.3,22.684l22.724,45.1A2.532,2.532,0,0,0,74.411,68.9l13.53-6.817A2.533,2.533,0,0,0,89.06,58.7l-22.724-45.1a2.533,2.533,0,0,0-3.391-1.119ZM75.8,66.649a2.525,2.525,0,1,1-2.525-2.525A2.525,2.525,0,0,1,75.8,66.649Z" transform="translate(-1.571 -7.571)" fill="#4480ff" stroke="#4480ff" stroke-width="2"/>
</svg>
