<svg xmlns="http://www.w3.org/2000/svg" width="54.866" height="62.704" viewBox="0 0 54.866 62.704">
  <path id="Icon_awesome-book" data-name="Icon awesome-book" d="M54.866,44.089V2.939A2.932,2.932,0,0,0,51.927,0H11.757A11.76,11.76,0,0,0,0,11.757v39.19A11.76,11.76,0,0,0,11.757,62.7h40.17a2.932,2.932,0,0,0,2.939-2.939v-1.96a2.962,2.962,0,0,0-1.09-2.29,27.311,27.311,0,0,1,0-9.148A2.919,2.919,0,0,0,54.866,44.089ZM15.676,16.411a.737.737,0,0,1,.735-.735H42.374a.737.737,0,0,1,.735.735V18.86a.737.737,0,0,1-.735.735H16.411a.737.737,0,0,1-.735-.735Zm0,7.838a.737.737,0,0,1,.735-.735H42.374a.737.737,0,0,1,.735.735V26.7a.737.737,0,0,1-.735.735H16.411a.737.737,0,0,1-.735-.735ZM46.71,54.866H11.757a3.919,3.919,0,0,1,0-7.838H46.71A44.09,44.09,0,0,0,46.71,54.866Z" fill="#4480ff"/>
</svg>
