<svg xmlns="http://www.w3.org/2000/svg" width="122.193" height="121.912" viewBox="0 0 122.193 121.912">
  <g id="videoconference" transform="translate(0 -0.588)">
    <path id="Path_1349" data-name="Path 1349" d="M121.92,105.582h-98.8A8.116,8.116,0,0,1,15,97.466V23.7a8.116,8.116,0,0,1,8.116-8.116h98.8a8.116,8.116,0,0,1,8.116,8.116V97.466A8.116,8.116,0,0,1,121.92,105.582Z" transform="translate(-11.422 -11.422)" fill="#cef"/>
    <path id="Path_1350" data-name="Path 1350" d="M305.459,15.588H256.044v89.994h49.415a8.116,8.116,0,0,0,8.116-8.116V23.7a8.116,8.116,0,0,0-8.116-8.116Z" transform="translate(-194.961 -11.422)" fill="#ff405c"/>
    <path id="Path_1351" data-name="Path 1351" d="M15,204.2v36.881a8.116,8.116,0,0,0,8.116,8.116h98.8a8.116,8.116,0,0,0,8.116-8.116V204.2Z" transform="translate(-11.422 -155.039)" fill="#fff"/>
    <path id="Path_1352" data-name="Path 1352" d="M256.044,204.2v45h49.415a8.116,8.116,0,0,0,8.116-8.116V204.2Z" transform="translate(-194.961 -155.039)" fill="#00215a"/>
    <path id="Path_1353" data-name="Path 1353" d="M173.041,417.6l3.891-24.781h31.706L212.13,417.6Z" transform="translate(-131.759 -298.657)" fill="#004db6"/>
    <path id="Path_1354" data-name="Path 1354" d="M256.044,417.6h19.288l-3.492-24.778h-15.8Z" transform="translate(-194.961 -298.662)" fill="#192b80"/>
    <g id="Group_2605" data-name="Group 2605" transform="translate(29.212 115.343)">
      <path id="Path_1355" data-name="Path 1355" d="M182.639,488.765H126.027a3.578,3.578,0,1,1,0-7.157h56.611a3.578,3.578,0,0,1,0,7.157Z" transform="translate(-122.449 -481.608)" fill="#0089ff"/>
    </g>
    <path id="Path_1356" data-name="Path 1356" d="M284.362,481.608H256.044v7.157h28.318a3.578,3.578,0,0,0,0-7.157Z" transform="translate(-194.961 -366.265)" fill="#295fcc"/>
    <circle id="Ellipse_61" data-name="Ellipse 61" cx="8.262" cy="8.262" r="8.262" transform="translate(80.752 60.571)" fill="#ffa64d"/>
    <path id="Path_1357" data-name="Path 1357" d="M373.119,252.019v16.524a8.262,8.262,0,1,0,0-16.524Z" transform="translate(-284.105 -191.448)" fill="#f93"/>
    <path id="Path_1358" data-name="Path 1358" d="M334.587,326.637h-10.84v0a8.341,8.341,0,0,0-8.275,8.34v1.873a2.184,2.184,0,0,0,2.184,2.184h23.089a2.184,2.184,0,0,0,2.184-2.184v-1.873A8.342,8.342,0,0,0,334.587,326.637Z" transform="translate(-240.21 -248.265)" fill="#7affe4"/>
    <path id="Path_1359" data-name="Path 1359" d="M378.481,326.637h-5.363v12.4h11.52a2.184,2.184,0,0,0,2.184-2.184v-1.873A8.342,8.342,0,0,0,378.481,326.637Z" transform="translate(-284.105 -248.265)" fill="#00ecce"/>
    <circle id="Ellipse_62" data-name="Ellipse 62" cx="8.262" cy="8.262" r="8.262" transform="translate(25.065 60.571)" fill="#fc9"/>
    <path id="Path_1360" data-name="Path 1360" d="M139.7,252.019v16.524a8.262,8.262,0,0,0,0-16.524Z" transform="translate(-106.369 -191.448)" fill="#ffb366"/>
    <path id="Path_1361" data-name="Path 1361" d="M101.163,326.637H90.322v0a8.341,8.341,0,0,0-8.275,8.34v1.873a2.184,2.184,0,0,0,2.184,2.184H107.32a2.184,2.184,0,0,0,2.184-2.184v-1.873A8.342,8.342,0,0,0,101.163,326.637Z" transform="translate(-62.473 -248.265)" fill="#ff9100"/>
    <path id="Path_1362" data-name="Path 1362" d="M145.057,326.637h-5.363v12.4h11.52a2.184,2.184,0,0,0,2.184-2.184v-1.873A8.342,8.342,0,0,0,145.057,326.637Z" transform="translate(-106.368 -248.265)" fill="#ff641a"/>
    <circle id="Ellipse_63" data-name="Ellipse 63" cx="8.262" cy="8.262" r="8.262" transform="translate(80.752 18.96)" fill="#ffa64d"/>
    <path id="Path_1363" data-name="Path 1363" d="M373.119,77.6V94.123a8.262,8.262,0,1,0,0-16.524Z" transform="translate(-284.105 -58.639)" fill="#f93"/>
    <path id="Path_1364" data-name="Path 1364" d="M334.587,152.217h-10.84v0a8.341,8.341,0,0,0-8.275,8.34v1.873a2.184,2.184,0,0,0,2.184,2.184h23.089a2.184,2.184,0,0,0,2.184-2.184v-1.873A8.342,8.342,0,0,0,334.587,152.217Z" transform="translate(-240.21 -115.455)" fill="#ffda2d"/>
    <path id="Path_1365" data-name="Path 1365" d="M378.481,152.217h-5.363v12.4h11.52a2.184,2.184,0,0,0,2.184-2.184v-1.873A8.342,8.342,0,0,0,378.481,152.217Z" transform="translate(-284.105 -115.455)" fill="#fdbf00"/>
    <circle id="Ellipse_64" data-name="Ellipse 64" cx="8.262" cy="8.262" r="8.262" transform="translate(25.065 18.96)" fill="#fc9"/>
    <path id="Path_1366" data-name="Path 1366" d="M139.7,77.6V94.123a8.262,8.262,0,1,0,0-16.524Z" transform="translate(-106.369 -58.639)" fill="#ffb366"/>
    <path id="Path_1367" data-name="Path 1367" d="M101.163,152.217H90.322v0a8.341,8.341,0,0,0-8.275,8.34v1.873a2.184,2.184,0,0,0,2.184,2.184H107.32a2.184,2.184,0,0,0,2.184-2.184v-1.873A8.342,8.342,0,0,0,101.163,152.217Z" transform="translate(-62.473 -115.455)" fill="#ff405c"/>
    <path id="Path_1368" data-name="Path 1368" d="M145.057,152.217h-5.363v12.4h11.52a2.184,2.184,0,0,0,2.184-2.184v-1.873A8.342,8.342,0,0,0,145.057,152.217Z" transform="translate(-106.368 -115.455)" fill="#c1126b"/>
    <path id="Path_1369" data-name="Path 1369" d="M111.444,97.739H10.749A10.749,10.749,0,0,1,0,86.99V11.337A10.749,10.749,0,0,1,10.749.588h100.7a10.749,10.749,0,0,1,10.749,10.749V86.991a10.749,10.749,0,0,1-10.749,10.749ZM10.749,7.745a3.592,3.592,0,0,0-3.592,3.592V86.99a3.592,3.592,0,0,0,3.592,3.592h100.7a3.592,3.592,0,0,0,3.592-3.592V11.337a3.592,3.592,0,0,0-3.592-3.592H10.749Z" transform="translate(0 0)" fill="#0089ff"/>
    <path id="Path_1370" data-name="Path 1370" d="M307.306.588H256.044V7.745h51.262a2.69,2.69,0,0,1,2.69,2.69v76.33a3.817,3.817,0,0,1-3.817,3.817H256.044v7.157h51.262a9.847,9.847,0,0,0,9.847-9.847V10.435A9.847,9.847,0,0,0,307.306.588Z" transform="translate(-194.961)" fill="#295fcc"/>
  </g>
</svg>
