<svg xmlns="http://www.w3.org/2000/svg" width="116.252" height="119.33" viewBox="0 0 116.252 119.33">
  <g id="video-tutorials" transform="translate(-6.603)">
    <path id="Path_1329" data-name="Path 1329" d="M321.079,254.722H289.5a6.947,6.947,0,0,0-6.947,6.947v53.015H322V290.616h5.01a7.477,7.477,0,0,0,7.477-7.477V268.133A13.411,13.411,0,0,0,321.079,254.722Z" transform="translate(-211.635 -195.355)" fill="#4980ac"/>
    <path id="Path_1330" data-name="Path 1330" d="M333.008,408.728H360.7v6.842H333.008Z" transform="translate(-250.331 -313.467)" fill="#407194"/>
    <path id="Path_1331" data-name="Path 1331" d="M397.264,254.873v26h-16.58v9.86h21.59a7.472,7.472,0,0,0,7.477-7.477V268.249A13.409,13.409,0,0,0,397.264,254.873Z" transform="translate(-286.895 -195.471)" fill="#5d91b9"/>
    <path id="Path_1332" data-name="Path 1332" d="M279.34,5.569V30.143h43.393V18.949a16.3,16.3,0,0,0-16.3-16.3H292.794a7.244,7.244,0,0,1-3.861-1.115L287.864.865a5.56,5.56,0,0,0-8.524,4.7Z" transform="translate(-209.171 0)" fill="#be694e"/>
    <path id="Path_1333" data-name="Path 1333" d="M344.181,172.706v20.287a5.675,5.675,0,0,0,5.675,5.675h1.82a5.675,5.675,0,0,0,5.675-5.675V172.706Z" transform="translate(-258.9 -132.454)" fill="#ebae9d"/>
    <path id="Path_1334" data-name="Path 1334" d="M270.973,111.12a5.534,5.534,0,0,0,5.534,5.534h36.226a5.534,5.534,0,1,0,0-11.068H276.507A5.534,5.534,0,0,0,270.973,111.12Z" transform="translate(-202.754 -80.977)" fill="#ffcdbe"/>
    <path id="Path_1335" data-name="Path 1335" d="M314.787,64.707V87.96a12.7,12.7,0,0,0,12.7,12.7h1.477a12.7,12.7,0,0,0,12.7-12.7V72.881a8.893,8.893,0,0,0-8.894-8.894H315.507A.72.72,0,0,0,314.787,64.707Z" transform="translate(-236.357 -49.074)" fill="#ffcdbe"/>
    <path id="Path_1336" data-name="Path 1336" d="M356.478,177.352h-.525a6,6,0,0,1-4.191-1.706,1.561,1.561,0,0,1,2.171-2.243,2.9,2.9,0,0,0,2.02.827h.525a2.9,2.9,0,0,0,2.02-.827,1.561,1.561,0,1,1,2.171,2.243A6,6,0,0,1,356.478,177.352Z" transform="translate(-264.35 -132.652)" fill="#e09380"/>
    <path id="Path_1337" data-name="Path 1337" d="M182.466,253.857H132.928a2.791,2.791,0,0,1-2.791-2.791V240.949a2.791,2.791,0,0,1,2.791-2.79h49.539a2.79,2.79,0,0,1,2.79,2.79v10.117A2.791,2.791,0,0,1,182.466,253.857Z" transform="translate(-94.742 -182.652)" fill="#80b6fc"/>
    <path id="Path_1338" data-name="Path 1338" d="M332.367,238.158h-6.776a2.791,2.791,0,0,1,2.79,2.79V281.83a2.79,2.79,0,0,1-2.79,2.79h6.776a2.79,2.79,0,0,0,2.79-2.79V240.949A2.79,2.79,0,0,0,332.367,238.158Z" transform="translate(-244.643 -182.651)" fill="#62a4fb"/>
    <path id="Path_1339" data-name="Path 1339" d="M182.466,319.585H132.928a2.79,2.79,0,0,1-2.791-2.79V275.914a2.791,2.791,0,0,1,2.791-2.79h49.539a2.791,2.791,0,0,1,2.791,2.79V316.8A2.791,2.791,0,0,1,182.466,319.585Z" transform="translate(-94.742 -209.467)" fill="#ddebfd"/>
    <path id="Path_1340" data-name="Path 1340" d="M335.155,275.913v40.882a2.791,2.791,0,0,1-2.791,2.79h-6.776a2.79,2.79,0,0,0,2.79-2.791V273.123h3.986A2.791,2.791,0,0,1,335.155,275.913Z" transform="translate(-244.64 -209.467)" fill="#bed9fd"/>
    <path id="Path_1341" data-name="Path 1341" d="M219.43,307.417V321.2a1.157,1.157,0,0,0,1.764.985l11.184-6.891a1.157,1.157,0,0,0,0-1.97l-11.184-6.891A1.157,1.157,0,0,0,219.43,307.417Z" transform="translate(-163.224 -234.88)" fill="#df646e"/>
    <path id="Path_1342" data-name="Path 1342" d="M208.772,423.34h-30.1a1.561,1.561,0,0,1,0-3.121h30.1a1.561,1.561,0,1,1,0,3.121Z" transform="translate(-130.764 -322.28)" fill="#5d91b9"/>
    <circle id="Ellipse_59" data-name="Ellipse 59" cx="3.752" cy="3.752" r="3.752" transform="translate(50.584 97.466) rotate(-22.514)" fill="#df646e"/>
    <g id="Group_2604" data-name="Group 2604" transform="translate(53.698 85.401)">
      <path id="Path_1343" data-name="Path 1343" d="M348.237,376.282h-5.409a4.451,4.451,0,0,1-4.451-4.451v-5.409h9.86Z" transform="translate(-308.147 -366.422)" fill="#ffcdbe"/>
      <path id="Path_1344" data-name="Path 1344" d="M319.421,369.543H312.09a1.561,1.561,0,1,1,0-3.121h7.331a1.561,1.561,0,0,1,0,3.121Z" transform="translate(-286.789 -366.422)" fill="#ffcdbe"/>
      <path id="Path_1345" data-name="Path 1345" d="M217.018,479.427h-5.734a2.614,2.614,0,0,1-2.614-2.614v-4.337h10.961v4.337A2.614,2.614,0,0,1,217.018,479.427Z" transform="translate(-208.67 -447.758)" fill="#ffcdbe"/>
    </g>
    <ellipse id="Ellipse_60" data-name="Ellipse 60" cx="25.028" cy="25.37" rx="25.028" ry="25.37" transform="translate(6.603 20.496)" fill="#f5de46"/>
    <path id="Path_1346" data-name="Path 1346" d="M58.55,126.261a25.558,25.558,0,0,1,2.388,10.825,25.2,25.2,0,0,1-25.028,25.37,24.837,24.837,0,0,1-19.062-8.931A24.977,24.977,0,0,0,64.516,142.7,25.47,25.47,0,0,0,58.55,126.261Z" transform="translate(-7.857 -96.834)" fill="#ecc52e"/>
    <path id="Path_1347" data-name="Path 1347" d="M64.17,187.971v12.112a1.291,1.291,0,0,0,.96,1.254l10.017,2.6a2.521,2.521,0,0,0,1.267,0l10.017-2.6a1.291,1.291,0,0,0,.96-1.254V187.971Z" transform="translate(-44.15 -144.161)" fill="#407194"/>
    <path id="Path_1348" data-name="Path 1348" d="M71.5,167.9l-17.578-5.309a1.262,1.262,0,0,0-.729,0L35.611,167.9a.568.568,0,0,0-.351.291l-.011.022a.716.716,0,0,0-.062.332v6.737a1.561,1.561,0,0,0,3.121,0v-5.435l14.88,4.494a1.262,1.262,0,0,0,.729,0L71.5,169.03A.593.593,0,0,0,71.5,167.9Z" transform="translate(-21.922 -124.653)" fill="#5d91b9"/>
  </g>
</svg>
