<svg id="video" xmlns="http://www.w3.org/2000/svg" width="110.326" height="110.325" viewBox="0 0 110.326 110.325">
  <path id="Path_1319" data-name="Path 1319" d="M73.506,8H16.045A8.083,8.083,0,0,0,8,16.045V73.506a8.083,8.083,0,0,0,8.045,8.045H73.506a8.083,8.083,0,0,0,8.045-8.045V16.045A8.083,8.083,0,0,0,73.506,8Z" transform="translate(28.775 28.775)" fill="#eceff1"/>
  <path id="Path_1320" data-name="Path 1320" d="M39.7,16.825A11.43,11.43,0,1,0,34.825,21.7L39.7,26.57a3.447,3.447,0,1,0,4.873-4.877ZM24.9,11.492a4.6,4.6,0,1,1,4.6,4.6A4.61,4.61,0,0,1,24.9,11.492Z" transform="translate(64.744)" fill="#03a9f4"/>
  <path id="Path_1321" data-name="Path 1321" d="M21.37.733A11.508,11.508,0,0,0,34.825,19.061L39.7,23.934a3.44,3.44,0,0,0,4.873,0L32.738,12.1A4.59,4.59,0,1,1,26.247,5.61Z" transform="translate(64.744 2.637)" fill="#0393d4"/>
  <path id="Path_1322" data-name="Path 1322" d="M8.045,27.581H65.506a8.053,8.053,0,0,0,8.045-8.045V8.045A8.053,8.053,0,0,0,65.506,0H8.045A8.053,8.053,0,0,0,0,8.045V19.537A8.053,8.053,0,0,0,8.045,27.581Z" fill="#03a9f4"/>
  <g id="Group_2603" data-name="Group 2603">
    <path id="Path_1323" data-name="Path 1323" d="M36.775,0H8.045A8.053,8.053,0,0,0,0,8.045V19.537a8.053,8.053,0,0,0,8.045,8.045H36.775Z" fill="#0393d4"/>
  </g>
  <path id="Path_1324" data-name="Path 1324" d="M44.775,8H16.045A8.083,8.083,0,0,0,8,16.045V73.506a8.083,8.083,0,0,0,8.045,8.045H44.775Z" transform="translate(28.775 28.775)" fill="#cdd0d2"/>
  <path id="Path_1325" data-name="Path 1325" d="M8.045,81.55H19.537a8.053,8.053,0,0,0,8.045-8.045V16.045A8.053,8.053,0,0,0,19.537,8H8.045A8.053,8.053,0,0,0,0,16.045V73.506A8.053,8.053,0,0,0,8.045,81.55Z" transform="translate(0 28.775)" fill="#90a4ae"/>
  <path id="Path_1326" data-name="Path 1326" d="M13.791,8H8.045A8.053,8.053,0,0,0,0,16.045V73.506A8.053,8.053,0,0,0,8.045,81.55h5.746Z" transform="translate(0 28.775)" fill="#7d8f97"/>
  <path id="Path_1327" data-name="Path 1327" d="M45.178,28.1a3.452,3.452,0,0,1-1.931,3.08L17.965,43.822a3.376,3.376,0,0,1-3.31-.138A3.41,3.41,0,0,1,13,40.742V15.459a3.41,3.41,0,0,1,1.655-2.942,3.282,3.282,0,0,1,3.31-.138L43.248,25.02A3.452,3.452,0,0,1,45.178,28.1Z" transform="translate(46.76 43.152)" fill="#f44336"/>
  <path id="Path_1328" data-name="Path 1328" d="M45.178,15.5H13V28.149a3.41,3.41,0,0,0,1.655,2.942,3.376,3.376,0,0,0,3.31.138L43.248,18.587a3.452,3.452,0,0,0,1.931-3.08Z" transform="translate(46.76 55.745)" fill="#d43a2f"/>
</svg>
