<svg xmlns="http://www.w3.org/2000/svg" width="29.813" height="37.316" viewBox="0 0 29.813 37.316">
  <g id="Icon_ionic-ios-notifications-outline" data-name="Icon ionic-ios-notifications-outline" transform="translate(-6.775 -3.93)">
    <path id="Path_614" data-name="Path 614" d="M22.22,28.336a1.208,1.208,0,0,0-1.184.951,2.337,2.337,0,0,1-.466,1.017,1.763,1.763,0,0,1-1.5.55,1.792,1.792,0,0,1-1.5-.55,2.337,2.337,0,0,1-.466-1.017,1.208,1.208,0,0,0-1.184-.951h0a1.216,1.216,0,0,0-1.184,1.483,4.167,4.167,0,0,0,4.337,3.46,4.159,4.159,0,0,0,4.337-3.46,1.221,1.221,0,0,0-1.184-1.483Z" transform="translate(2.588 7.967)" fill="#fff"/>
    <path id="Path_615" data-name="Path 615" d="M36.214,31.565c-1.436-1.893-4.262-3-4.262-11.481,0-8.7-3.843-12.2-7.424-13.039-.336-.084-.578-.2-.578-.55v-.27A2.287,2.287,0,0,0,21.711,3.93h-.056a2.287,2.287,0,0,0-2.238,2.294V6.5c0,.345-.242.466-.578.55-3.591.849-7.424,4.337-7.424,13.039,0,8.478-2.826,9.578-4.262,11.481a1.851,1.851,0,0,0,1.483,2.966H34.759A1.853,1.853,0,0,0,36.214,31.565Zm-3.637.541H10.827a.409.409,0,0,1-.308-.681,11.3,11.3,0,0,0,1.959-3.115,21.136,21.136,0,0,0,1.334-8.226c0-3.479.653-6.2,1.949-8.1A5.984,5.984,0,0,1,19.37,9.414,3.268,3.268,0,0,0,21.1,8.435a.738.738,0,0,1,1.11-.019,3.379,3.379,0,0,0,1.753,1,5.984,5.984,0,0,1,3.609,2.574c1.3,1.893,1.949,4.617,1.949,8.1A21.136,21.136,0,0,0,30.86,28.31a11.428,11.428,0,0,0,2.005,3.162A.386.386,0,0,1,32.577,32.106Z" transform="translate(0 0)" fill="#fff"/>
  </g>
</svg>
