<svg xmlns="http://www.w3.org/2000/svg" width="40.5" height="31.5" viewBox="0 0 40.5 31.5">
  <path id="Icon_awesome-comments" data-name="Icon awesome-comments" d="M29.25,13.5c0-6.216-6.546-11.25-14.625-11.25S0,7.284,0,13.5a9.539,9.539,0,0,0,2.672,6.469A15.826,15.826,0,0,1,.155,23.8a.559.559,0,0,0-.105.612.551.551,0,0,0,.513.337A12.38,12.38,0,0,0,6.8,22.992a17.891,17.891,0,0,0,7.826,1.758C22.7,24.75,29.25,19.716,29.25,13.5Zm8.578,15.469A9.526,9.526,0,0,0,40.5,22.5c0-4.7-3.762-8.733-9.091-10.413A10.449,10.449,0,0,1,31.5,13.5c0,7.446-7.573,13.5-16.875,13.5a21.081,21.081,0,0,1-2.229-.134c2.215,4.043,7.418,6.884,13.479,6.884A17.793,17.793,0,0,0,33.7,31.992a12.38,12.38,0,0,0,6.237,1.758.554.554,0,0,0,.513-.338.563.563,0,0,0-.105-.612A15.658,15.658,0,0,1,37.828,28.969Z" transform="translate(0 -2.25)" opacity="0.4"/>
</svg>
