<svg xmlns="http://www.w3.org/2000/svg" width="47.593" height="52.881" viewBox="0 0 47.593 52.881">
  <path id="Path_257" data-name="Path 257" d="M45.3,6.288H34.252a7.9,7.9,0,0,0-14.912,0H8.288A5.3,5.3,0,0,0,3,11.576V48.593a5.3,5.3,0,0,0,5.288,5.288H45.3a5.3,5.3,0,0,0,5.288-5.288V11.576A5.3,5.3,0,0,0,45.3,6.288Zm-18.508,0a2.644,2.644,0,1,1-2.644,2.644A2.652,2.652,0,0,1,26.8,6.288ZM21.508,43.3,10.932,32.728,14.66,29l6.848,6.822L38.932,18.4l3.728,3.755Z" transform="translate(-3 -1)" fill="#1453ff"/>
</svg>
