<svg xmlns="http://www.w3.org/2000/svg" width="28.425" height="19.627" viewBox="0 0 28.425 19.627">
  <g id="top-grades" transform="translate(0 -3.864)" opacity="0.4">
    <path id="Path_620" data-name="Path 620" d="M28.424,13.658v1.094a1.093,1.093,0,0,1-1.094,1.094H25.141v2.189a1.093,1.093,0,0,1-1.094,1.094H22.953a1.093,1.093,0,0,1-1.094-1.094V15.846H19.669a1.093,1.093,0,0,1-1.094-1.094V13.658a1.093,1.093,0,0,1,1.094-1.094h2.189V10.374A1.093,1.093,0,0,1,22.953,9.28h1.094a1.093,1.093,0,0,1,1.094,1.094v2.189H27.33A1.092,1.092,0,0,1,28.424,13.658ZM17.388,22.784a1.04,1.04,0,0,1,.03.529c-.041.116-.165.178-.377.178h-3.59a.822.822,0,0,1-.667-.221,2.222,2.222,0,0,1-.318-.692l-.929-3.447H5.68l-.968,3.534a1.266,1.266,0,0,1-.377.649,1.04,1.04,0,0,1-.638.178H.486a.553.553,0,0,1-.434-.133c-.079-.088-.069-.3.028-.634l5.587-18a1.866,1.866,0,0,1,.347-.636A1.055,1.055,0,0,1,6.8,3.864h3.647a1,1,0,0,1,.8.238,2.236,2.236,0,0,1,.332.648Zm-6.734-6.937L8.7,8.617H8.561L6.58,15.847Z" transform="translate(0 0)" fill="#030104"/>
  </g>
</svg>
