<svg xmlns="http://www.w3.org/2000/svg" width="53.952" height="54" viewBox="0 0 53.952 54">
  <g id="tips" transform="translate(-0.226 0)">
    <path id="Path_1399" data-name="Path 1399" d="M102.718,5.848A19.718,19.718,0,0,0,78.744,2.7a.791.791,0,0,0,.8,1.365,18.1,18.1,0,0,1,20.485,29.746.791.791,0,0,0-.3.618v2.619A3.98,3.98,0,0,1,96.1,41H89.4V20.519h7.318a.791.791,0,0,0,0-1.582H80.657a.791.791,0,0,0,0,1.582h7.158V41H81.27a3.98,3.98,0,0,1-3.628-3.954V34.429a.791.791,0,0,0-.3-.618A18.039,18.039,0,0,1,76.334,6.454.791.791,0,1,0,75.257,5.3a19.62,19.62,0,0,0,.8,29.51v2.243a5.563,5.563,0,0,0,4.027,5.336v1.975a.794.794,0,1,0,0,1.582A3.493,3.493,0,0,0,82.7,49.648,4.089,4.089,0,0,0,86.7,54h3.97a4.091,4.091,0,0,0,4.007-4.352,3.5,3.5,0,0,0,2.608-3.708c1.341,0,1.367-1.582,0-1.582V42.384a5.563,5.563,0,0,0,4.027-5.336V34.8a19.652,19.652,0,0,0,1.4-28.957ZM95.7,46.379a1.774,1.774,0,0,1-1.772,1.772H92.58a.791.791,0,0,0,0,1.582H93.1a2.478,2.478,0,0,1-2.425,2.685H86.7a2.478,2.478,0,0,1-2.425-2.685h4.092a.791.791,0,0,0,0-1.582H83.442a1.88,1.88,0,0,1-1.772-2.211H95.7Zm-14.035-2.02V42.6H95.7v1.757Z" transform="translate(-61.485 0)"/>
    <path id="Path_1400" data-name="Path 1400" d="M5.581,181.337a.791.791,0,0,0-.791-.791H.993a.791.791,0,0,0,0,1.582h3.8A.791.791,0,0,0,5.581,181.337Z" transform="translate(0 -161.504)"/>
    <path id="Path_1401" data-name="Path 1401" d="M13.214,236.032a.791.791,0,0,0-.969-.559l-3.667.983a.792.792,0,0,0,.41,1.528L12.654,237A.791.791,0,0,0,13.214,236.032Z" transform="translate(-6.979 -210.613)"/>
    <path id="Path_1402" data-name="Path 1402" d="M35.568,286.863l-3.288,1.9a.792.792,0,0,0,.791,1.37l3.288-1.9A.791.791,0,0,0,35.568,286.863Z" transform="translate(-28.338 -256.507)"/>
    <path id="Path_1403" data-name="Path 1403" d="M8.425,117.567l3.667.983a.792.792,0,0,0,.41-1.528l-3.667-.983A.791.791,0,0,0,8.425,117.567Z" transform="translate(-6.827 -103.772)"/>
    <path id="Path_1404" data-name="Path 1404" d="M32.177,57.421l3.288,1.9a.792.792,0,0,0,.791-1.37l-3.288-1.9A.791.791,0,0,0,32.177,57.421Z" transform="translate(-28.234 -50.039)"/>
    <path id="Path_1405" data-name="Path 1405" d="M465.79,180.546h-3.8a.791.791,0,0,0,0,1.582h3.8A.791.791,0,0,0,465.79,180.546Z" transform="translate(-412.379 -161.504)"/>
    <path id="Path_1406" data-name="Path 1406" d="M459.375,236.425l-3.667-.983a.791.791,0,0,0-.41,1.528l3.667.983A.792.792,0,0,0,459.375,236.425Z" transform="translate(-406.569 -210.583)"/>
    <path id="Path_1407" data-name="Path 1407" d="M438.651,288.761l-3.288-1.9a.791.791,0,0,0-.791,1.37l3.288,1.9A.792.792,0,0,0,438.651,288.761Z" transform="translate(-388.19 -256.507)"/>
    <path id="Path_1408" data-name="Path 1408" d="M454.575,117.991a.839.839,0,0,0,.969.559l3.667-.983a.791.791,0,0,0-.41-1.528l-3.667.983A.791.791,0,0,0,454.575,117.991Z" transform="translate(-406.405 -103.773)"/>
    <path id="Path_1409" data-name="Path 1409" d="M434.973,59.426a.787.787,0,0,0,.395-.106l3.288-1.9a.791.791,0,0,0-.791-1.37l-3.288,1.9a.8.8,0,0,0,.4,1.476Z" transform="translate(-388.194 -50.039)"/>
  </g>
</svg>
