<svg xmlns="http://www.w3.org/2000/svg" width="53" height="52.95" viewBox="0 0 53 52.95">
  <g id="chat-group" transform="translate(0 -0.24)">
    <path id="Path_1417" data-name="Path 1417" d="M134.075,130.724l-7.174-5.573v-2.334a8.815,8.815,0,0,0,4.285-7.557v-7.082A5.889,5.889,0,0,0,125.3,102.3H118.72l-.453-.867a1.291,1.291,0,0,0-1.864-.474,6.407,6.407,0,0,0-2.841,5.328v8.977a8.814,8.814,0,0,0,.393,2.61.776.776,0,0,0,1.483-.459,7.262,7.262,0,0,1-.324-2.151V110.7a43.224,43.224,0,0,1,14.519,0v4.559a7.258,7.258,0,0,1-12.738,4.76.776.776,0,0,0-1.172,1.019,8.834,8.834,0,0,0,1.884,1.63v2.481l-7.174,5.573a9.163,9.163,0,0,0-3.565,7.283v4.5a.776.776,0,0,0,1.553,0v-4.5a7.62,7.62,0,0,1,2.965-6.057l6.442-5a4.646,4.646,0,0,0,8.851,0l6.442,5a7.62,7.62,0,0,1,2.965,6.057v4.5a.776.776,0,0,0,1.553,0v-4.5a9.163,9.163,0,0,0-3.565-7.283Zm-18.961-21.6v-2.841a4.855,4.855,0,0,1,1.915-3.868l.532,1.017a.776.776,0,0,0,.688.417H125.3a4.334,4.334,0,0,1,4.329,4.329v.95A44.763,44.763,0,0,0,115.115,109.124Zm7.14,19.5a3.1,3.1,0,0,1-3.094-3.094v-2.066a8.8,8.8,0,0,0,6.188.09v1.976A3.1,3.1,0,0,1,122.255,128.625Z" transform="translate(-95.807 -90.093)"/>
    <path id="Path_1418" data-name="Path 1418" d="M164.133,458.054a.776.776,0,0,0-.776.776v4a.776.776,0,1,0,1.553,0v-4A.776.776,0,0,0,164.133,458.054Z" transform="translate(-146.446 -410.421)"/>
    <path id="Path_1419" data-name="Path 1419" d="M333.394,458.054a.776.776,0,0,0-.776.776v4a.776.776,0,1,0,1.553,0v-4A.776.776,0,0,0,333.394,458.054Z" transform="translate(-298.185 -410.421)"/>
    <path id="Path_1420" data-name="Path 1420" d="M2.873,244.347l5.846-5.035a.776.776,0,0,0,.27-.588v-1.916a4.912,4.912,0,0,0,3.634,0v1.916a.776.776,0,0,0,.27.588l1.51,1.3a.776.776,0,1,0,1.013-1.177l-1.24-1.068V235.82a4.916,4.916,0,0,0,1.561-3.594v-2.118a4.93,4.93,0,0,0-9.861,0v2.118a4.917,4.917,0,0,0,1.561,3.595v2.547l-5.576,4.8a1.594,1.594,0,0,0-.554,1.208v2.7a1.509,1.509,0,0,0,1.243,1.487,46.76,46.76,0,0,0,7.389.727h.015a.776.776,0,0,0,.014-1.553,45.227,45.227,0,0,1-7.108-.7v-2.663a.042.042,0,0,1,.014-.032Zm4.555-14.239a3.378,3.378,0,0,1,6.755,0v2.118a3.378,3.378,0,1,1-6.755,0Z" transform="translate(-1.171 -201.652)"/>
    <path id="Path_1421" data-name="Path 1421" d="M379.326,238.724a.777.777,0,0,0,.27.588l1.285,1.107a.776.776,0,1,0,1.013-1.177l-1.015-.874V235.82a4.916,4.916,0,0,0,1.561-3.594v-2.118a4.93,4.93,0,0,0-9.861,0v2.118a4.917,4.917,0,0,0,1.561,3.594v2.547l-1.24,1.068a.776.776,0,0,0,1.013,1.177l1.51-1.3a.776.776,0,0,0,.27-.588v-1.916a4.912,4.912,0,0,0,3.634,0v1.916Zm-1.817-3.12a3.381,3.381,0,0,1-3.378-3.378v-2.118a3.378,3.378,0,0,1,6.755,0v2.118A3.382,3.382,0,0,1,377.51,235.6Z" transform="translate(-334.01 -201.652)"/>
    <path id="Path_1422" data-name="Path 1422" d="M429.825,382.387l-2.007-1.729a.776.776,0,0,0-1.013,1.177l2.008,1.729a.042.042,0,0,1,.015.032v2.663a45.221,45.221,0,0,1-7.108.7.776.776,0,0,0,.014,1.553h.015a46.777,46.777,0,0,0,7.388-.727,1.509,1.509,0,0,0,1.243-1.487v-2.7A1.594,1.594,0,0,0,429.825,382.387Z" transform="translate(-377.379 -340.868)"/>
    <path id="Path_1423" data-name="Path 1423" d="M356.774,40.293h-.407a.776.776,0,0,0-.686.412l-1.2,2.254-1.159-2.245a.776.776,0,0,0-.69-.42h-4.814a.776.776,0,0,0,0,1.553h4.341l1.038,2.011a1.439,1.439,0,0,0,1.273.781h.009a1.439,1.439,0,0,0,1.274-.766l1.078-2.027a7.343,7.343,0,0,0,6.182-11.21.776.776,0,0,0-1.319.819,5.79,5.79,0,0,1-4.922,8.839Z" transform="translate(-311.117 -26.92)"/>
    <path id="Path_1424" data-name="Path 1424" d="M7.284,14.926l1.078,2.027a1.439,1.439,0,0,0,1.274.766h.009a1.439,1.439,0,0,0,1.274-.781l1.038-2.011h3.711a.776.776,0,1,0,0-1.553H11.483a.776.776,0,0,0-.69.42L9.634,16.039l-1.2-2.254a.776.776,0,0,0-.686-.412H7.343a5.79,5.79,0,1,1,0-11.58H45.657A5.8,5.8,0,0,1,48.44,2.5a.776.776,0,1,0,.748-1.361,7.353,7.353,0,0,0-3.531-.9H7.343a7.343,7.343,0,0,0-.059,14.686Z"/>
    <path id="Path_1425" data-name="Path 1425" d="M116.768,57.937a1.036,1.036,0,1,0,.845-.845A1.037,1.037,0,0,0,116.768,57.937Z" transform="translate(-104.667 -50.954)"/>
    <path id="Path_1426" data-name="Path 1426" d="M202.694,58.112a1.035,1.035,0,1,0,1.035-1.035A1.036,1.036,0,0,0,202.694,58.112Z" transform="translate(-181.711 -50.953)"/>
    <path id="Path_1427" data-name="Path 1427" d="M377.292,58.112a1.035,1.035,0,1,0-1.035,1.035A1.036,1.036,0,0,0,377.292,58.112Z" transform="translate(-336.379 -50.953)"/>
    <path id="Path_1428" data-name="Path 1428" d="M289.282,58.112a1.035,1.035,0,1,0,1.035-1.035A1.036,1.036,0,0,0,289.282,58.112Z" transform="translate(-259.336 -50.953)"/>
  </g>
</svg>
