<svg xmlns="http://www.w3.org/2000/svg" width="68.23" height="47.835" viewBox="0 0 68.23 47.835">
  <g id="mortarboard" transform="translate(0 -76.517)">
    <path id="Path_1429" data-name="Path 1429" d="M66.914,87.257l-14.4-4.868a1,1,0,1,0-.64,1.894L66.136,89.1l-6.715,3.274a3.034,3.034,0,0,0-.931-.421L38.348,86.693a4.31,4.31,0,0,0-8.543.807v.022a2.562,2.562,0,0,0,2.571,2.527h3.478A2.546,2.546,0,0,0,38.116,88.7L56.9,93.608,35.943,103.825a4.149,4.149,0,0,1-3.655,0L2.094,89.1,32.78,78.734a4.192,4.192,0,0,1,2.67,0l11.981,4.049a1,1,0,0,0,.64-1.894L36.09,76.84a6.205,6.205,0,0,0-3.95,0L1.317,87.257a1.941,1.941,0,0,0-.229,3.581L16.907,98.55A94.552,94.552,0,0,1,13.263,111.1a3.952,3.952,0,0,0,1.267,4.476,50.235,50.235,0,0,0,15.488,8.141,13.433,13.433,0,0,0,8.194,0A50.245,50.245,0,0,0,53.7,115.571a3.951,3.951,0,0,0,1.267-4.476,94.6,94.6,0,0,1-3.643-12.545l7.441-3.628v15.044a2.469,2.469,0,0,0-2.277,2.457v2.913a1.474,1.474,0,0,0,.485,1.092l-.371,5.614a1.9,1.9,0,0,0,1.9,2.029h2.529a1.9,1.9,0,0,0,1.9-2.029l-.371-5.614a1.474,1.474,0,0,0,.485-1.092v-2.913a2.469,2.469,0,0,0-2.278-2.457V94.9a3.031,3.031,0,0,0-.135-.887l6.514-3.176a1.941,1.941,0,0,0-.229-3.581Zm-31.06.793H32.377a.565.565,0,0,1-.572-.533V87.5a2.29,2.29,0,0,1,.728-1.683,2.314,2.314,0,0,1,3.892,1.569A.568.568,0,0,1,35.854,88.051Zm16.109,20.475c-5.4,4.227-13.064,7.25-15.7,7.753a1,1,0,1,0,.374,1.964c2.761-.527,10.327-3.467,16.006-7.717.14.4.3.852.449,1.256A1.958,1.958,0,0,1,52.464,114,48.4,48.4,0,0,1,37.6,121.81a11.437,11.437,0,0,1-6.967,0A48.4,48.4,0,0,1,15.766,114a1.957,1.957,0,0,1-.625-2.218l.017-.048c.145-.4.306-.85.431-1.207,5.545,4.148,13.09,7.161,16,7.717a1,1,0,0,0,.375-1.964,47.239,47.239,0,0,1-15.7-7.754,93.933,93.933,0,0,0,2.492-9.073l12.654,6.169a6.131,6.131,0,0,0,5.407,0l12.653-6.169a93.9,93.9,0,0,0,2.492,9.073ZM58.6,122.072l.348-5.256h1.628l.348,5.256Zm2.44-9.648v2.393H58.486v-2.393a.474.474,0,0,1,.468-.468h1.62A.474.474,0,0,1,61.042,112.424Z" transform="translate(0 0)"/>
  </g>
</svg>
