<svg xmlns="http://www.w3.org/2000/svg" width="26.777" height="24.718" viewBox="0 0 26.777 24.718">
  <g id="Icon_ionic-ios-briefcase" data-name="Icon ionic-ios-briefcase" transform="translate(-3.375 -4.5)">
    <path id="Path_1378" data-name="Path 1378" d="M5.435,30.169H28.093a2.058,2.058,0,0,0,2.06-2.06V15.75H3.375V28.109A2.058,2.058,0,0,0,5.435,30.169Z" transform="translate(0 -0.951)" fill="#4480ff"/>
    <path id="Path_1379" data-name="Path 1379" d="M28.093,8.62h-.515V8.1a.516.516,0,0,0-.515-.515H25a.516.516,0,0,0-.515.515V8.62h-1.8V6.56a2.066,2.066,0,0,0-2.06-2.06H12.9a2.066,2.066,0,0,0-2.06,2.06V8.62h-1.8V8.1a.516.516,0,0,0-.515-.515H6.465A.516.516,0,0,0,5.95,8.1V8.62H5.435a2.058,2.058,0,0,0-2.06,2.06v2.575H30.152V10.679A2.058,2.058,0,0,0,28.093,8.62Zm-7.209,0H12.644v-1.8a.516.516,0,0,1,.515-.515h7.209a.516.516,0,0,1,.515.515Z" fill="#4480ff"/>
  </g>
</svg>
