<svg xmlns="http://www.w3.org/2000/svg" width="23.004" height="30.672" viewBox="0 0 23.004 30.672">
  <g id="Group_2616" data-name="Group 2616" transform="translate(-133.518 -2134.734)">
    <path id="Icon_awesome-file" data-name="Icon awesome-file" d="M13.419,8.147V0H1.438A1.434,1.434,0,0,0,0,1.438v27.8a1.434,1.434,0,0,0,1.438,1.438H21.566A1.434,1.434,0,0,0,23,29.234V9.585H14.857A1.442,1.442,0,0,1,13.419,8.147ZM23,7.3v.365H15.336V0H15.7A1.437,1.437,0,0,1,16.72.419L22.585,6.29A1.433,1.433,0,0,1,23,7.3Z" transform="translate(133.518 2134.734)" fill="#4480ff"/>
    <path id="Icon_material-done" data-name="Icon material-done" d="M10.012,17.7,6.328,14.014,5.1,15.242l4.912,4.912L20.538,9.628,19.31,8.4Z" transform="translate(132.93 2138.897)" fill="#fff"/>
  </g>
</svg>
