<svg xmlns="http://www.w3.org/2000/svg" width="28.334" height="19.564" viewBox="0 0 28.334 19.564">
  <g id="top-grades" transform="translate(0 -3.864)">
    <path id="Path_620" data-name="Path 620" d="M28.334,13.626v1.091a1.09,1.09,0,0,1-1.091,1.091H25.061V17.99a1.09,1.09,0,0,1-1.091,1.091H22.88a1.09,1.09,0,0,1-1.091-1.091V15.808H19.607a1.09,1.09,0,0,1-1.091-1.091V13.626a1.09,1.09,0,0,1,1.091-1.091h2.182V10.353A1.09,1.09,0,0,1,22.88,9.263H23.97a1.09,1.09,0,0,1,1.091,1.091v2.182h2.182A1.089,1.089,0,0,1,28.334,13.626Zm-11,9.1a1.037,1.037,0,0,1,.03.528c-.041.116-.165.177-.376.177H13.408a.819.819,0,0,1-.665-.22,2.215,2.215,0,0,1-.317-.69L11.5,19.082H5.662L4.7,22.6a1.262,1.262,0,0,1-.376.647,1.036,1.036,0,0,1-.636.177H.485A.551.551,0,0,1,.052,23.3c-.078-.087-.069-.3.028-.632L5.65,4.719A1.86,1.86,0,0,1,6,4.084a1.052,1.052,0,0,1,.78-.22H10.41A1,1,0,0,1,11.2,4.1a2.229,2.229,0,0,1,.331.646Zm-6.713-6.915L8.676,8.6H8.533L6.559,15.809Z" transform="translate(0 0)" fill="#4480ff"/>
  </g>
</svg>
