<svg xmlns="http://www.w3.org/2000/svg" xmlns:xlink="http://www.w3.org/1999/xlink" width="50.787" height="44.638" viewBox="0 0 50.787 44.638">
  <defs>
    <linearGradient id="linear-gradient" x1="0.5" y1="1" x2="0.5" gradientUnits="objectBoundingBox">
      <stop offset="0" stop-color="#5558ff"/>
      <stop offset="1" stop-color="#00c0ff"/>
    </linearGradient>
    <linearGradient id="linear-gradient-2" x1="0.5" y1="1" x2="0.5" gradientUnits="objectBoundingBox">
      <stop offset="0" stop-color="#addcff"/>
      <stop offset="0.503" stop-color="#eaf6ff"/>
      <stop offset="1" stop-color="#eaf6ff"/>
    </linearGradient>
  </defs>
  <g id="megaphone" transform="translate(0 -30.997)">
    <g id="Group_2663" data-name="Group 2663" transform="translate(5.952 41.849)">
      <g id="Group_2662" data-name="Group 2662">
        <path id="Path_1820" data-name="Path 1820" d="M60,172.7a1.487,1.487,0,0,0,1.488,1.488h6.051a1.487,1.487,0,0,0,1.488-1.488v-5.952a7.486,7.486,0,0,1,5.311-7.132L60,157.817Zm43.348-22.319h-2.976a1.488,1.488,0,1,0,0,2.976h2.976a1.488,1.488,0,1,0,0-2.976Zm-4.464-5.336,2.1-2.1a1.488,1.488,0,0,0-2.1-2.1l-2.1,2.1a1.488,1.488,0,1,0,2.1,2.1Zm0,13.647a1.488,1.488,0,0,0-2.1,2.1l2.1,2.1a1.488,1.488,0,0,0,2.1-2.1Zm-3.8-11.13-5.952-2.976v14.565l5.952-2.976a1.488,1.488,0,0,0,.822-1.331v-5.952A1.488,1.488,0,0,0,95.086,147.558Z" transform="translate(-60 -140.398)" fill="url(#linear-gradient)"/>
      </g>
    </g>
    <g id="Group_2665" data-name="Group 2665" transform="translate(0 30.997)">
      <g id="Group_2664" data-name="Group 2664">
        <path id="Path_1821" data-name="Path 1821" d="M34.567,31a1.485,1.485,0,0,0-1.606,1.189,17.176,17.176,0,0,1-16.79,13.683H4.464A4.469,4.469,0,0,0,0,50.34v5.952a4.469,4.469,0,0,0,4.464,4.464H16.171a17.176,17.176,0,0,1,16.79,13.683,1.488,1.488,0,0,0,2.947-.292V32.485A1.488,1.488,0,0,0,34.567,31Z" transform="translate(0 -30.997)" fill="url(#linear-gradient-2)"/>
      </g>
    </g>
  </g>
</svg>
