<svg xmlns="http://www.w3.org/2000/svg" width="55.368" height="66.448" viewBox="0 0 55.368 66.448">
  <g id="uniform" transform="translate(-2 0.002)">
    <path id="Path_1822" data-name="Path 1822" d="M57.368,11.549V25.861L29.684,15.618,2,25.861V11.549A2.1,2.1,0,0,1,3.357,9.611L28.964.143a1.855,1.855,0,0,1,1.44,0L56.011,9.611A2.1,2.1,0,0,1,57.368,11.549Z" transform="translate(0 0)" fill="#1976d2"/>
    <path id="Path_1823" data-name="Path 1823" d="M57.368,15.883v7.835c0,25.22-26.881,32.612-27.158,32.695l-.526.055-.526-.055C28.881,56.329,2,48.938,2,23.718V15.883L29.684,5.64Z" transform="translate(0 9.978)" fill="#2196f3"/>
    <path id="Path_1824" data-name="Path 1824" d="M36.846,19.9a2.066,2.066,0,0,0-1.655-1.393L27.2,17.284,23.605,9.63a2.161,2.161,0,0,0-3.757,0l-3.593,7.655L8.263,18.505a2.076,2.076,0,0,0-1.174,3.5L12.933,28l-1.384,8.48a2.078,2.078,0,0,0,3.056,2.151l7.123-3.937,7.12,3.937a2.073,2.073,0,0,0,2.2-.119,2.086,2.086,0,0,0,.855-2.032L30.521,28l5.844-5.988A2.074,2.074,0,0,0,36.846,19.9Z" transform="translate(7.956 15.102)" fill="#fafafa"/>
    <path id="Path_1825" data-name="Path 1825" d="M29.684,0h-.161a1.926,1.926,0,0,0-.559.138L3.357,9.606A2.1,2.1,0,0,0,2,11.544V25.857L29.684,15.614Z" transform="translate(0 0.004)" fill="#1667b7"/>
    <path id="Path_1826" data-name="Path 1826" d="M29.684,5.64,2,15.883v7.835c0,25.22,26.881,32.612,27.158,32.695l.526.055V39.813l-7.12,3.937A2.077,2.077,0,0,1,19.5,41.6l1.384-8.48-5.844-5.988a2.076,2.076,0,0,1,1.174-3.5l7.992-1.221L27.8,14.756a2.019,2.019,0,0,1,1.88-1.1Z" transform="translate(0 9.978)" fill="#1d83d4"/>
    <path id="Path_1827" data-name="Path 1827" d="M21.728,8.536a2.024,2.024,0,0,0-1.88,1.094l-3.593,7.655L8.263,18.5a2.076,2.076,0,0,0-1.174,3.5L12.933,28l-1.384,8.48a2.08,2.08,0,0,0,3.056,2.151l7.123-3.934Z" transform="translate(7.956 15.099)" fill="#dadada"/>
  </g>
</svg>
