<svg xmlns="http://www.w3.org/2000/svg" width="70.639" height="104.839" viewBox="0 0 70.639 104.839">
  <g id="guarantee" transform="translate(-83.509)">
    <g id="Group_2670" data-name="Group 2670" transform="translate(95.795 10.238)">
      <g id="Group_2669" data-name="Group 2669" transform="translate(0)">
        <path id="Path_1857" data-name="Path 1857" d="M161.1,69.723,160.09,57.551a1.536,1.536,0,0,0-1.53-1.408h-1.536V54.607a4.607,4.607,0,0,0-9.214,0v1.536h-1.536a1.536,1.536,0,0,0-1.528,1.383l-1.229,12.286a1.536,1.536,0,0,0,1.528,1.688h14.542a1.536,1.536,0,0,0,1.536-1.536A1.566,1.566,0,0,0,161.1,69.723ZM150.881,54.607a1.536,1.536,0,1,1,3.071,0v1.536h-3.071Zm-4.139,13.822.922-9.214h9.483l.768,9.214Z" transform="translate(-143.51 -50)" fill="#0755f6"/>
      </g>
    </g>
    <g id="Group_2672" data-name="Group 2672" transform="translate(83.509)">
      <g id="Group_2671" data-name="Group 2671" transform="translate(0)">
        <path id="Path_1858" data-name="Path 1858" d="M154.141,13.668c0-.037-.01-.074-.017-.11,0-.013,0-.026-.006-.039-.009-.043-.02-.086-.032-.128l0-.017c-.013-.043-.029-.085-.045-.126l-.005-.015c-.016-.04-.035-.078-.055-.116l-.01-.02c-.019-.035-.04-.069-.061-.1l-.016-.027c-.022-.032-.045-.062-.069-.093l-.021-.028c-.032-.039-.066-.076-.1-.112L141.414.45q-.053-.053-.112-.1l-.031-.023c-.029-.023-.059-.046-.09-.066l-.03-.018c-.033-.021-.065-.041-.1-.059L141.03.171c-.037-.019-.075-.037-.113-.053L140.9.112c-.041-.016-.082-.032-.124-.045l-.019,0c-.042-.012-.084-.023-.127-.032l-.039-.006c-.036-.006-.073-.013-.11-.016A1.471,1.471,0,0,0,140.328,0H85.045a1.536,1.536,0,0,0-1.536,1.536V94.39a1.536,1.536,0,0,0,1.536,1.536h34.809a1.536,1.536,0,0,0,0-3.071H86.58V3.071h52.212v10.75a1.536,1.536,0,0,0,1.536,1.536h10.749v77.5h-8.7a1.536,1.536,0,0,0,0,3.071h10.235a1.536,1.536,0,0,0,1.536-1.536V13.821A1.524,1.524,0,0,0,154.141,13.668Zm-12.277-1.383V5.243l7.042,7.042Z" transform="translate(-83.509)" fill="#0755f6"/>
      </g>
    </g>
    <g id="Group_2674" data-name="Group 2674" transform="translate(95.794 43.715)">
      <g id="Group_2673" data-name="Group 2673" transform="translate(0)">
        <path id="Path_1859" data-name="Path 1859" d="M188.04,213.493h-43a1.536,1.536,0,0,0,0,3.071h43a1.536,1.536,0,1,0,0-3.071Z" transform="translate(-143.507 -213.493)" fill="#0755f6"/>
      </g>
    </g>
    <g id="Group_2676" data-name="Group 2676" transform="translate(95.794 51.908)">
      <g id="Group_2675" data-name="Group 2675" transform="translate(0)">
        <path id="Path_1860" data-name="Path 1860" d="M188.04,253.5h-43a1.536,1.536,0,1,0,0,3.071h43a1.536,1.536,0,1,0,0-3.071Z" transform="translate(-143.507 -253.502)" fill="#0755f6"/>
      </g>
    </g>
    <g id="Group_2678" data-name="Group 2678" transform="translate(95.794 60.098)">
      <g id="Group_2677" data-name="Group 2677" transform="translate(0)">
        <path id="Path_1861" data-name="Path 1861" d="M188.04,293.5h-43a1.536,1.536,0,1,0,0,3.071h43a1.536,1.536,0,1,0,0-3.071Z" transform="translate(-143.507 -293.501)" fill="#0755f6"/>
      </g>
    </g>
    <g id="Group_2680" data-name="Group 2680" transform="translate(95.794 68.289)">
      <g id="Group_2679" data-name="Group 2679" transform="translate(0)">
        <path id="Path_1862" data-name="Path 1862" d="M163.47,333.5H145.043a1.536,1.536,0,1,0,0,3.071H163.47a1.536,1.536,0,1,0,0-3.071Z" transform="translate(-143.507 -333.501)" fill="#0755f6"/>
      </g>
    </g>
    <g id="Group_2682" data-name="Group 2682" transform="translate(120.366 72.384)">
      <g id="Group_2681" data-name="Group 2681">
        <path id="Path_1863" data-name="Path 1863" d="M285.007,364.252a10.75,10.75,0,1,0-17.4,8.433v11.735c0,.016,0,.032,0,.049s0,.062,0,.094.006.043.008.065.008.056.013.084.01.046.016.069.012.051.02.076.016.048.024.071.016.047.026.07.021.048.033.072.02.043.031.064.028.049.042.073.022.038.034.056.036.05.054.075.019.027.029.04l.007.007a1.51,1.51,0,0,0,.11.122c.011.011.023.02.034.031.028.026.057.052.087.077s.037.028.055.041.05.036.076.053l.06.036c.027.016.055.031.083.045l.058.028c.031.014.063.027.1.039l.053.019c.036.012.074.022.111.031l.045.011c.041.009.084.015.126.021l.035.005c.05.005.1.008.153.008h.016a1.557,1.557,0,0,0,.22-.018l.046-.007a1.506,1.506,0,0,0,.213-.054l.037-.014a1.54,1.54,0,0,0,.213-.094l.007,0a1.51,1.51,0,0,0,.2-.136l.014-.009,4.16-3.328,4.159,3.328.013.009a1.548,1.548,0,0,0,.2.136l.007,0a1.508,1.508,0,0,0,.214.095l.037.014a1.535,1.535,0,0,0,.213.054l.046.007a1.531,1.531,0,0,0,.22.018h.016c.052,0,.1,0,.153-.008l.035-.005c.043-.006.085-.012.127-.021l.044-.011c.038-.009.075-.019.112-.031l.052-.019c.033-.012.065-.025.1-.039l.058-.028c.028-.014.057-.029.084-.045l.06-.036c.026-.017.051-.035.076-.053l.055-.041c.03-.024.059-.05.087-.076l.034-.031a1.52,1.52,0,0,0,.11-.122l.007-.007c.01-.013.019-.027.029-.04s.037-.05.054-.076.023-.037.034-.056.029-.049.043-.074.021-.042.031-.063.023-.048.033-.072.017-.047.026-.07.017-.047.024-.071.013-.051.02-.077.011-.046.016-.069.009-.056.013-.084.006-.043.008-.065,0-.063,0-.094c0-.016,0-.032,0-.048V372.685A10.736,10.736,0,0,0,285.007,364.252Zm-9.768,14.892h0l-.022-.017-.034-.025c-.027-.021-.054-.041-.083-.06l-.051-.031c-.026-.016-.052-.031-.079-.045l-.064-.031c-.023-.011-.046-.022-.07-.031s-.05-.019-.076-.028l-.063-.021-.081-.021-.063-.015-.08-.013-.068-.009-.074,0-.077,0-.065,0c-.028,0-.057,0-.085.005l-.057.007-.09.014-.053.012c-.03.007-.06.014-.09.023l-.056.019c-.028.009-.055.019-.083.03s-.043.019-.065.029l-.069.033c-.026.014-.051.029-.076.044l-.052.032c-.028.019-.055.039-.083.06l-.034.025-.021.017h0l-2.6,2.081v-6.839a10.723,10.723,0,0,0,7.166,0v6.839Zm-.982-7.214a7.679,7.679,0,1,1,7.679-7.679A7.687,7.687,0,0,1,274.257,371.931Z" transform="translate(-263.507 -353.502)" fill="#0755f6"/>
      </g>
    </g>
    <g id="Group_2684" data-name="Group 2684" transform="translate(126.509 78.527)">
      <g id="Group_2683" data-name="Group 2683">
        <path id="Path_1864" data-name="Path 1864" d="M298.115,383.5a4.607,4.607,0,1,0,4.607,4.607A4.612,4.612,0,0,0,298.115,383.5Zm0,6.143a1.536,1.536,0,1,1,1.536-1.536A1.537,1.537,0,0,1,298.115,389.644Z" transform="translate(-293.508 -383.501)" fill="#0755f6"/>
      </g>
    </g>
  </g>
</svg>
