<svg xmlns="http://www.w3.org/2000/svg" width="95.324" height="84.841" viewBox="0 0 95.324 84.841">
  <g id="loud-speaker" transform="translate(0 -22.415)">
    <path id="Path_1866" data-name="Path 1866" d="M95.324,53.015a15.624,15.624,0,0,0-7.461-13.35v-10.7a6.425,6.425,0,0,0-6.586-6.553,7.727,7.727,0,0,0-2.315.362L42.7,34.3H20.068a14.446,14.446,0,0,0-11.973,6.37H7.145A7.153,7.153,0,0,0,0,47.811v10.33a7.153,7.153,0,0,0,7.145,7.145h.92a14.447,14.447,0,0,0,12,6.413h6.04v28.844a6.722,6.722,0,0,0,6.716,6.713H38.1a6.722,6.722,0,0,0,6.716-6.713V72.368L78.967,83.19a7.7,7.7,0,0,0,2.312.362h0A6.638,6.638,0,0,0,85.9,81.758,6.49,6.49,0,0,0,87.863,77V66.358A15.632,15.632,0,0,0,95.324,53.015ZM3.742,58.141V47.811a3.407,3.407,0,0,1,2.505-3.279,14.405,14.405,0,0,0-.629,4.218v8.5a14.4,14.4,0,0,0,.615,4.168A3.407,3.407,0,0,1,3.742,58.141Zm5.617-.892v-8.5A10.722,10.722,0,0,1,20.068,38.038H41.124v29.92H20.068A10.72,10.72,0,0,1,9.359,57.249ZM38.1,103.514H32.824a2.976,2.976,0,0,1-2.974-2.971V71.7H41.076v28.844A2.976,2.976,0,0,1,38.1,103.514ZM84.122,77a2.751,2.751,0,0,1-.808,2.053,2.917,2.917,0,0,1-2.035.76h0a3.959,3.959,0,0,1-1.185-.188L44.866,68.458v-23.4l25.043-7.951a1.871,1.871,0,0,0-1.132-3.566L44.866,41.133v-3.6l35.221-11.19a3.978,3.978,0,0,1,1.189-.189,2.682,2.682,0,0,1,2.845,2.811V77Zm3.742-15.329V44.356a11.934,11.934,0,0,1,0,17.313Z" fill="#0755f6"/>
    <path id="Path_1867" data-name="Path 1867" d="M82.607,145.3h-16.8a1.871,1.871,0,1,0,0,3.742h16.8a1.871,1.871,0,1,0,0-3.742Z" transform="translate(-48.986 -94.146)" fill="#0755f6"/>
    <path id="Path_1868" data-name="Path 1868" d="M65.809,117.075h16.8a1.871,1.871,0,0,0,0-3.742h-16.8a1.871,1.871,0,1,0,0,3.742Z" transform="translate(-48.986 -69.656)" fill="#0755f6"/>
    <path id="Path_1869" data-name="Path 1869" d="M82.607,177.25h-16.8a1.871,1.871,0,1,0,0,3.742h16.8a1.871,1.871,0,1,0,0-3.742Z" transform="translate(-48.986 -118.626)" fill="#0755f6"/>
    <path id="Path_1870" data-name="Path 1870" d="M317.482,56.843l-3.611,1.175a1.871,1.871,0,1,0,1.158,3.558L318.64,60.4a1.871,1.871,0,1,0-1.158-3.558Z" transform="translate(-239.481 -26.306)" fill="#0755f6"/>
  </g>
</svg>
