<svg xmlns="http://www.w3.org/2000/svg" width="17.461" height="37.169" viewBox="0 0 17.461 37.169">
  <g id="pin" transform="translate(-195.391)">
    <path id="Path_1841" data-name="Path 1841" d="M338.394,338.691V356.5l1.518,2.277V338.691Z" transform="translate(-135.791 -321.61)" fill="#e1e6e9"/>
    <path id="Path_1842" data-name="Path 1842" d="M368.5,338.691v20.088l1.518-2.277v-17.81Z" transform="translate(-164.378 -321.61)" fill="#d5d6db"/>
    <path id="Path_1843" data-name="Path 1843" d="M212.853,8.73A8.731,8.731,0,0,1,195.692,11a8.627,8.627,0,0,1-.3-2.274,8.73,8.73,0,0,1,17.461,0Z" transform="translate(-0.001)" fill="#d15241"/>
    <path id="Path_1844" data-name="Path 1844" d="M211.136,5.424A8.731,8.731,0,0,1,195.69,11a8.624,8.624,0,0,1-.3-2.274,8.728,8.728,0,0,1,15.445-5.576A8.618,8.618,0,0,1,211.136,5.424Z" transform="translate(0)" fill="#e56353"/>
    <path id="Path_1845" data-name="Path 1845" d="M262.761,52.884a1.268,1.268,0,0,0-1.046-1.338c-1.534-.3-5.275-.573-6.921,3.481,0,0-.4,1.043.752.913a2.123,2.123,0,0,0,1.4-.8,4.171,4.171,0,0,1,4.423-1.318,1.137,1.137,0,0,0,1.362-.781A1.18,1.18,0,0,0,262.761,52.884Z" transform="translate(-56.344 -48.8)" fill="#e1e6e9"/>
  </g>
</svg>
