<svg xmlns="http://www.w3.org/2000/svg" width="29.218" height="29.697" viewBox="0 0 29.218 29.697">
  <g id="Layer_14" data-name="Layer 14" transform="translate(-1 -1)">
    <path id="Path_157" data-name="Path 157" d="M21.84,40.269V36.437a1.437,1.437,0,0,0-2.874,0v3.832a2.395,2.395,0,0,0,.867,4.234,2.572,2.572,0,0,0,.57.077,2.395,2.395,0,0,0,1.437-4.311ZM21.294,43.3a1.437,1.437,0,1,1-1.609-2.361.479.479,0,0,0,.239-.417V36.437a.479.479,0,0,1,.958,0v4.1a.479.479,0,0,0,.239.417,1.437,1.437,0,0,1,.172,2.361Z" transform="translate(-8.866 -17.714)"/>
    <path id="Path_158" data-name="Path 158" d="M29.845,18.723l-1.585-.35a6.05,6.05,0,0,1-3.832-2.778.479.479,0,0,0-.824,0,6.011,6.011,0,0,1-2.486,2.28V15.849a2.4,2.4,0,0,0-1.437-2.194V9.143a8.143,8.143,0,0,0-16.286,0v4.512a2.4,2.4,0,0,0-1.437,2.194v1.437H1.479A.479.479,0,0,0,1,17.765v8.622a.479.479,0,0,0,.479.479h.479V28.3A2.4,2.4,0,0,0,4.353,30.7h14.37A2.4,2.4,0,0,0,21.118,28.3V28.24a13.929,13.929,0,0,0,2.2,2.074l.383.287a.479.479,0,0,0,.575,0l.383-.287A13.962,13.962,0,0,0,30.218,19.2a.479.479,0,0,0-.374-.479ZM4.353,9.143a7.185,7.185,0,0,1,14.37,0v4.311H16.807V9.143a5.269,5.269,0,0,0-10.538,0v4.311H4.353Zm11.5,4.311H7.227V9.143a4.311,4.311,0,0,1,8.622,0Zm-9.1,4.79V20.16H1.958V18.244Zm-4.79,7.664V23.991h4.79v1.916Zm4.79-2.874H1.958V21.118h4.79ZM20.16,28.3a1.437,1.437,0,0,1-1.437,1.437H4.353A1.437,1.437,0,0,1,2.916,28.3V26.865H7.227a.479.479,0,0,0,.479-.479V17.765a.479.479,0,0,0-.479-.479H2.916V15.849a1.437,1.437,0,0,1,1.437-1.437h14.37a1.437,1.437,0,0,1,1.437,1.437v2.395c-.144.043-.287.086-.436.12l-1.585.359a.479.479,0,0,0-.374.479A13.958,13.958,0,0,0,20.16,26.98Zm3.928,1.245-.1.072-.1-.072a13,13,0,0,1-5.173-9.963l1.2-.268a7.008,7.008,0,0,0,4.067-2.61,7.008,7.008,0,0,0,4.062,2.61l1.207.268a13,13,0,0,1-5.173,9.963Z"/>
    <path id="Path_159" data-name="Path 159" d="M48.034,39.981l-.853-.431-.326.647a3.4,3.4,0,1,0,.752.6Zm-.426,3.137a2.419,2.419,0,1,1-1.183-2.055L45.132,43.65l-.958-1.3-.766.575,1.437,1.916a.479.479,0,0,0,.383.192h.043a.479.479,0,0,0,.383-.263l1.518-3.037A2.357,2.357,0,0,1,47.608,43.118Z" transform="translate(-21.222 -20.085)"/>
  </g>
</svg>
