<svg id="exam" xmlns="http://www.w3.org/2000/svg" width="33.256" height="33.256" viewBox="0 0 33.256 33.256">
  <path id="Path_116" data-name="Path 116" d="M32.712,34.3H12.078A2.078,2.078,0,0,1,10,32.219V12.078A2.078,2.078,0,0,1,12.078,10h27.8a2.078,2.078,0,0,1,2.078,2.078V32.219A2.078,2.078,0,0,1,39.878,34.3H37.583" transform="translate(-9.35 -9.35)" fill="#fff"/>
  <rect id="Rectangle_192" data-name="Rectangle 192" width="8" height="12" transform="translate(21 3)" fill="#72d8ff"/>
  <path id="Path_117" data-name="Path 117" d="M39.878,314.807h-27.8A2.078,2.078,0,0,1,10,312.728V310H41.957v2.728A2.078,2.078,0,0,1,39.878,314.807Z" transform="translate(-9.35 -289.865)" fill="#ade5ff"/>
  <rect id="Rectangle_193" data-name="Rectangle 193" width="6.235" height="4.346" transform="translate(13.445 25.012)" fill="#edf2fa"/>
  <path id="Path_118" data-name="Path 118" d="M164.583,452h-6.668a3.248,3.248,0,0,0-3.248,3.248h13.164A3.248,3.248,0,0,0,164.583,452Z" transform="translate(-144.621 -422.641)" fill="#7d9bff"/>
  <rect id="Rectangle_194" data-name="Rectangle 194" width="9" height="12" transform="translate(6 3)" fill="#72d8ff"/>
  <path id="Path_119" data-name="Path 119" d="M64,88V98.912h8.509V91.091L69.434,88Z" transform="translate(-59.843 -82.284)" fill="#edf2fa"/>
  <path id="Path_120" data-name="Path 120" d="M147.668,89.84v2.971h2.955Z" transform="translate(-138.077 -84.005)" fill="#ffc66c"/>
  <path id="Path_121" data-name="Path 121" d="M281,88V98.912h8.509V91.091L286.434,88Z" transform="translate(-262.748 -82.284)" fill="#edf2fa"/>
  <path id="Path_122" data-name="Path 122" d="M364.668,89.84v2.971h2.955Z" transform="translate(-340.982 -84.005)" fill="#ffc66c"/>
  <path id="Path_123" data-name="Path 123" d="M390.65,374.08a.65.65,0,1,0,.459.19A.654.654,0,0,0,390.65,374.08Z" transform="translate(-364.668 -349.782)"/>
  <path id="Path_124" data-name="Path 124" d="M30.528,0H8.769a.65.65,0,1,0,0,1.3H30.528a1.431,1.431,0,0,1,1.429,1.429V19.486H1.3V2.728A1.431,1.431,0,0,1,2.728,1.3h.714a.65.65,0,1,0,0-1.3H2.728A2.731,2.731,0,0,0,0,2.728V22.869A2.731,2.731,0,0,0,2.728,25.6H12.8v3.145a3.9,3.9,0,0,0-3.4,3.864.65.65,0,0,0,.65.65H23.21a.65.65,0,0,0,.65-.65,3.9,3.9,0,0,0-3.529-3.879V25.6h3.031a.65.65,0,1,0,0-1.3H2.728A1.431,1.431,0,0,1,1.3,22.869V20.785H31.957v2.084A1.431,1.431,0,0,1,30.528,24.3H28.233a.65.65,0,0,0,0,1.3h2.295a2.731,2.731,0,0,0,2.728-2.728V2.728A2.731,2.731,0,0,0,30.528,0Zm-8.05,31.957h-11.7a2.6,2.6,0,0,1,2.516-1.949h6.669A2.6,2.6,0,0,1,22.478,31.957Zm-3.447-3.248H14.095V25.6h4.936Z"/>
  <path id="Path_125" data-name="Path 125" d="M82.65,1.3A.65.65,0,0,0,83.3.65a.65.65,0,1,0-1.109.459A.654.654,0,0,0,82.65,1.3Z" transform="translate(-76.674)"/>
  <path id="Path_126" data-name="Path 126" d="M245.19,342.27a.649.649,0,1,0,.459-.19A.654.654,0,0,0,245.19,342.27Z" transform="translate(-229.087 -319.861)"/>
  <path id="Path_127" data-name="Path 127" d="M54,41.248V52.16a.65.65,0,0,0,.65.65h8.509a.65.65,0,0,0,.65-.65V50.211H65.5a.65.65,0,0,0,.65-.65V38.65A.65.65,0,0,0,65.5,38H56.988a.65.65,0,0,0-.65.65V40.6H54.65A.65.65,0,0,0,54,41.248Zm6.734,1.574.863.867h-.863Zm-3.1-3.523h7.21v9.613H63.808V44.338a.649.649,0,0,0-.189-.458L60.545,40.79a.65.65,0,0,0-.461-.191H57.637ZM55.3,41.9h4.135v2.441a.65.65,0,0,0,.65.65h2.425V51.51H55.3Z" transform="translate(-50.493 -35.532)"/>
  <path id="Path_128" data-name="Path 128" d="M280.158,52.809a.65.65,0,0,0,.65-.65V50.211H282.5a.65.65,0,0,0,.65-.65V38.65a.65.65,0,0,0-.65-.65h-8.509a.649.649,0,0,0-.65.65V40.6H271.65a.65.65,0,0,0-.65.65V52.16a.65.65,0,0,0,.65.65Zm-2.425-9.988.862.867h-.862Zm-3.1-3.523h7.21v9.613h-1.039V44.338a.649.649,0,0,0-.189-.458l-3.074-3.091a.65.65,0,0,0-.461-.191h-2.447ZM272.3,41.9h4.135v2.441a.65.65,0,0,0,.65.65h2.425V51.51H272.3Z" transform="translate(-253.398 -35.532)"/>
</svg>
