<svg xmlns="http://www.w3.org/2000/svg" width="29.362" height="29.076" viewBox="0 0 29.362 29.076">
  <g id="paper" transform="translate(0 -2.493)">
    <path id="Path_218" data-name="Path 218" d="M29.12,6.056,25.653,2.75a.7.7,0,0,0-.523-.257H11.246a.736.736,0,0,0-.736.735V5.487l-4.894.839a.725.725,0,0,0-.588.836L5.277,8.61C3.686,9.145,2.053,9.7.477,10.263a.728.728,0,0,0-.435.925l3.136,8.718a.43.43,0,0,0,.809-.291L.9,11.026c1.485-.532,3.023-1.052,4.527-1.558L6.9,18.084l1.7,9.923a.728.728,0,0,0,.836.59l4.606-.79,3.6-.617-5.413,1.946L7.962,30.67,4.647,21.449a.43.43,0,1,0-.809.291L7.2,31.092a.726.726,0,0,0,.681.477.711.711,0,0,0,.245-.043l4.4-1.581,9.984-3.588,1.907-.327h4.213a.737.737,0,0,0,.736-.737V6.54a.619.619,0,0,0-.242-.485Zm-1.14.1H25.775c-.1,0-.344,0-.406-.058a.242.242,0,0,1-.031-.148l0-2.318ZM28.5,25.169H11.37V16.787a.43.43,0,1,0-.86,0v8.505a.737.737,0,0,0,.736.737h8.075l-5.422.929-4.472.767L7.75,17.939,5.9,7.15l4.611-.79v8.431a.43.43,0,1,0,.86,0V3.353h13.1l.006,2.6a1.024,1.024,0,0,0,.285.758,1.315,1.315,0,0,0,.956.308H28.5Z" transform="translate(0)"/>
    <path id="Path_219" data-name="Path 219" d="M234.43,111.879a.43.43,0,0,0,.43.43h12.3a.43.43,0,0,0,0-.86h-12.3A.43.43,0,0,0,234.43,111.879Z" transform="translate(-220.986 -102.708)"/>
    <path id="Path_220" data-name="Path 220" d="M247.157,164.731h-12.3a.43.43,0,1,0,0,.86h12.3a.43.43,0,0,0,0-.86Z" transform="translate(-220.986 -152.934)"/>
    <path id="Path_221" data-name="Path 221" d="M247.157,218.013h-12.3a.43.43,0,1,0,0,.86h12.3a.43.43,0,0,0,0-.86Z" transform="translate(-220.986 -203.161)"/>
    <path id="Path_222" data-name="Path 222" d="M247.157,271.3h-12.3a.43.43,0,1,0,0,.86h12.3a.43.43,0,0,0,0-.86Z" transform="translate(-220.986 -253.387)"/>
    <path id="Path_223" data-name="Path 223" d="M247.157,324.578h-12.3a.43.43,0,1,0,0,.86h12.3a.43.43,0,0,0,0-.86Z" transform="translate(-220.986 -303.614)"/>
  </g>
</svg>
