<svg xmlns="http://www.w3.org/2000/svg" width="27.637" height="27.637" viewBox="0 0 27.637 27.637">
  <g id="viral-marketing" transform="translate(-16 -16)">
    <path id="Path_230" data-name="Path 230" d="M216.237,117.469a.461.461,0,0,0,.467-.012l3.685-2.3a.461.461,0,0,0,0-.781l-3.685-2.3a.461.461,0,0,0-.7.391v4.606a.461.461,0,0,0,.237.4Zm.684-4.178,2.355,1.472-2.355,1.472Z" transform="translate(-188.485 -90.473)"/>
    <path id="Path_231" data-name="Path 231" d="M42.255,16H17.382A1.383,1.383,0,0,0,16,17.382V37.649a1.383,1.383,0,0,0,1.382,1.382H26.9l-1.105,3.685h-1.5v.921H35.346v-.921h-1.5l-1.105-3.685h9.514a1.383,1.383,0,0,0,1.382-1.382V17.382A1.383,1.383,0,0,0,42.255,16ZM16.921,17.382a.461.461,0,0,1,.461-.461H42.255a.461.461,0,0,1,.461.461V33.964H16.921ZM32.884,42.715H26.753l1.106-3.685h1.5v1.842a.461.461,0,1,0,.921,0V39.031h1.5Zm9.831-5.067a.461.461,0,0,1-.461.461H17.382a.461.461,0,0,1-.461-.461V34.885H42.715Z"/>
    <path id="Path_232" data-name="Path 232" d="M56,248h9.212v.921H56Z" transform="translate(-37.697 -218.642)"/>
    <path id="Path_233" data-name="Path 233" d="M240,248h7.83v.921H240Z" transform="translate(-211.103 -218.642)"/>
    <path id="Path_234" data-name="Path 234" d="M56,280h.921v1.842H56Z" transform="translate(-37.697 -248.8)"/>
    <path id="Path_235" data-name="Path 235" d="M88,280h.921v1.842H88Z" transform="translate(-67.854 -248.8)"/>
    <path id="Path_236" data-name="Path 236" d="M144,288h1.382v.921H144Z" transform="translate(-120.63 -256.339)"/>
    <path id="Path_237" data-name="Path 237" d="M184,288h2.764v.921H184Z" transform="translate(-158.327 -256.339)"/>
    <path id="Path_238" data-name="Path 238" d="M400,248.461v.921h.921v-.461h.461V248h-.921a.461.461,0,0,0-.461.461Z" transform="translate(-361.891 -218.642)"/>
    <path id="Path_239" data-name="Path 239" d="M440.921,248H440v.921h.461v.461h.921v-.921A.461.461,0,0,0,440.921,248Z" transform="translate(-399.588 -218.642)"/>
    <path id="Path_240" data-name="Path 240" d="M440.461,288.461H440v.921h.921a.461.461,0,0,0,.461-.461V288h-.921Z" transform="translate(-399.588 -256.339)"/>
    <path id="Path_241" data-name="Path 241" d="M400.921,288H400v.921a.461.461,0,0,0,.461.461h.921v-.921h-.461Z" transform="translate(-361.891 -256.339)"/>
    <path id="Path_242" data-name="Path 242" d="M56,56h1.382v.921H56Z" transform="translate(-37.697 -37.697)"/>
    <path id="Path_243" data-name="Path 243" d="M96,56h5.067v.921H96Z" transform="translate(-75.394 -37.697)"/>
  </g>
</svg>
