<svg id="line-chart" xmlns="http://www.w3.org/2000/svg" width="28.066" height="28.066" viewBox="0 0 28.066 28.066">
  <path id="Path_129" data-name="Path 129" d="M84.056,13.046a2.054,2.054,0,0,0,1.836-2.978L88.923,7.68a2.05,2.05,0,0,0,2.647.006l2.987,2.374a2.056,2.056,0,1,0,3.311-.5l3.859-5.617a2.064,2.064,0,1,0-.677-.467L97.191,9.1a2.052,2.052,0,0,0-2.122.319L92.082,7.043a2.056,2.056,0,1,0-3.668-.008L85.382,9.422a2.055,2.055,0,1,0-1.327,3.624ZM102.529.822A1.233,1.233,0,1,1,101.3,2.056,1.235,1.235,0,0,1,102.529.822ZM96.39,9.757a1.233,1.233,0,1,1-1.233,1.233A1.235,1.235,0,0,1,96.39,9.757ZM90.25,4.879a1.233,1.233,0,1,1-1.233,1.233A1.235,1.235,0,0,1,90.25,4.879ZM84.056,9.757a1.233,1.233,0,1,1-1.233,1.233A1.235,1.235,0,0,1,84.056,9.757Z" transform="translate(-77.505 0)"/>
  <path id="Path_130" data-name="Path 130" d="M27.655,391.584H14.472a.411.411,0,0,0,0,.822H27.244v1.1H1.233a.412.412,0,0,1-.411-.411v-5.18a.411.411,0,1,0-.822,0v5.18a1.235,1.235,0,0,0,1.233,1.233H27.655a.411.411,0,0,0,.411-.411v-1.919A.411.411,0,0,0,27.655,391.584Z" transform="translate(0 -366.258)"/>
  <path id="Path_131" data-name="Path 131" d="M.411,20.2a.411.411,0,0,0,.411-.411V.822h1.1V25.737a.411.411,0,0,0,.411.411H12.608a.411.411,0,1,0,0-.822H2.741V.411A.411.411,0,0,0,2.33,0H.411A.411.411,0,0,0,0,.411V19.789A.411.411,0,0,0,.411,20.2Z"/>
  <path id="Path_132" data-name="Path 132" d="M89.411,284a.411.411,0,0,0-.411.411v7.674a.411.411,0,0,0,.411.411h2.741a.411.411,0,0,0,.411-.411v-7.674a.411.411,0,0,0-.411-.411Zm2.33,7.674H89.822v-6.852h1.919Z" transform="translate(-84.121 -268.432)"/>
  <path id="Path_133" data-name="Path 133" d="M200.411,195a.411.411,0,0,0-.411.411v12.553a.411.411,0,0,0,.411.411h2.741a.411.411,0,0,0,.411-.411V195.411a.411.411,0,0,0-.411-.411Zm2.33,12.553h-1.919V195.822h1.919Z" transform="translate(-189.037 -184.311)"/>
  <path id="Path_134" data-name="Path 134" d="M312.411,284a.411.411,0,0,0-.411.411v7.674a.411.411,0,0,0,.411.411h2.741a.411.411,0,0,0,.411-.411v-7.674a.411.411,0,0,0-.411-.411Zm2.33,7.674h-1.919v-6.852h1.919Z" transform="translate(-294.897 -268.432)"/>
  <path id="Path_135" data-name="Path 135" d="M424.411,121a.411.411,0,0,0-.411.411v16.61a.411.411,0,0,0,.411.411h2.741a.411.411,0,0,0,.411-.411v-16.61a.411.411,0,0,0-.411-.411Zm2.33,16.61h-1.919V121.822h1.919Z" transform="translate(-400.758 -114.367)"/>
</svg>
