<svg xmlns="http://www.w3.org/2000/svg" width="33.666" height="28.972" viewBox="0 0 33.666 28.972">
  <g id="device_1_" data-name="device (1)" transform="translate(-5 -40)">
    <path id="Path_151" data-name="Path 151" d="M36.66,280.323a.4.4,0,1,0,0,.8h.006a.4.4,0,0,0,.4-.4A.405.405,0,0,0,36.66,280.323Z" transform="translate(-29.162 -224.206)"/>
    <circle id="Ellipse_30" data-name="Ellipse 30" cx="0.595" cy="0.595" r="0.595" transform="translate(8.658 66.513)"/>
    <path id="Path_152" data-name="Path 152" d="M407.76,440.347h-.975a.4.4,0,1,0,0,.8h.975a.4.4,0,1,0,0-.8Z" transform="translate(-374.464 -373.498)"/>
    <path id="Path_153" data-name="Path 153" d="M361.228,274.989h-8.183a.4.4,0,0,0-.4.4v2.386a.4.4,0,1,0,.8,0v-1.984h7.378v9.194h-7.378V280.46a.4.4,0,1,0-.8,0v4.93a.4.4,0,0,0,.4.4h8.183a.4.4,0,0,0,.4-.4v-10A.4.4,0,0,0,361.228,274.989Z" transform="translate(-324.328 -219.23)"/>
    <path id="Path_154" data-name="Path 154" d="M223.925,289.317a.954.954,0,1,0-.954-.954A.954.954,0,0,0,223.925,289.317Zm0-1.1a.149.149,0,1,1-.149.149A.149.149,0,0,1,223.925,288.215Z" transform="translate(-203.353 -230.818)"/>
    <path id="Path_155" data-name="Path 155" d="M224.923,365.559H224.9a.4.4,0,1,0,0,.8h.026a.4.4,0,1,0,0-.8Z" transform="translate(-204.774 -303.726)"/>
    <path id="Path_156" data-name="Path 156" d="M37.354,54.259H33.626V41.5A1.507,1.507,0,0,0,32.121,40H9.351a1.507,1.507,0,0,0-1.505,1.5v12.67H6.429A1.431,1.431,0,0,0,5,55.6V67.543a1.431,1.431,0,0,0,1.429,1.429h5.648a1.431,1.431,0,0,0,1.429-1.429V59.878h3.63v1.255a.7.7,0,0,1-.7.7,2.059,2.059,0,0,0-2.057,2.056.4.4,0,0,0,.4.4H26.361a.4.4,0,0,0,.4-.4,2.059,2.059,0,0,0-1.957-2.053l-.044,0h-.055a.7.7,0,0,1-.7-.7V59.878H26.95V67.66a1.313,1.313,0,0,0,1.312,1.311h9.092a1.313,1.313,0,0,0,1.312-1.311V55.571A1.313,1.313,0,0,0,37.354,54.259ZM12.7,67.543a.625.625,0,0,1-.624.624H6.429a.625.625,0,0,1-.624-.624V66.18h6.9Zm0-11.426H8.68a.4.4,0,1,0,0,.8H12.7v8.454H5.8V56.922h.538a.4.4,0,1,0,0-.8H5.8V55.6a.625.625,0,0,1,.624-.624h5.648a.625.625,0,0,1,.625.624Zm12.005,6.521a1.254,1.254,0,0,1,1.185.849H15.251a1.254,1.254,0,0,1,1.185-.849,1.507,1.507,0,0,0,1.505-1.5V59.878H23.2v1.255a1.5,1.5,0,0,0,.173.7h-1.85a.4.4,0,0,0,0,.8ZM27,55.214H17.617a.4.4,0,1,0,0,.8H26.95v3.054H13.507V56.019h1.428a.4.4,0,0,0,0-.8H13.451a1.431,1.431,0,0,0-1.374-1.039H8.65V41.5a.7.7,0,0,1,.7-.7h22.77a.7.7,0,0,1,.7.7V54.259H28.262A1.313,1.313,0,0,0,27,55.214ZM37.861,67.66a.507.507,0,0,1-.507.507H28.262a.507.507,0,0,1-.507-.507V55.571a.507.507,0,0,1,.507-.507h9.092a.507.507,0,0,1,.507.507Z"/>
  </g>
</svg>
