<svg xmlns="http://www.w3.org/2000/svg" width="36.559" height="35.69" viewBox="0 0 36.559 35.69">
  <g id="idea" transform="translate(0 -6.083)">
    <path id="Path_136" data-name="Path 136" d="M5.095,19.549c.188-.435.4-.856.621-1.261a14.286,14.286,0,0,1,.937-1.478.535.535,0,0,1,.866.627,13.333,13.333,0,0,0-.87,1.368c-.136.243-.263.492-.383.743H8.218a.534.534,0,0,1,.536.534v4.688a3.387,3.387,0,0,1-.3,1.395,4.66,4.66,0,0,1,1.409.88,2.373,2.373,0,0,1,.828,1.731V31.39a.537.537,0,0,1-.536.536H6.829c.176.3.364.6.563.882A13,13,0,0,0,8.6,34.3a.535.535,0,0,1-.779.733A14.541,14.541,0,0,1,6.514,33.42,14.343,14.343,0,0,1,5.6,31.926H.536A.537.537,0,0,1,0,31.39V28.777a2.374,2.374,0,0,1,.816-1.72,4.682,4.682,0,0,1,1.421-.891,3.387,3.387,0,0,1-.3-1.395V21.693a2.146,2.146,0,0,1,2.144-2.144H5.095Zm28.457,4.415-2.826-.957-1.848.907v.858a2.337,2.337,0,0,0,4.674,0Zm-4.674-1.239,1.546-.757a.529.529,0,0,1,.437-.045l2.69.911V21.693a1.078,1.078,0,0,0-1.073-1.073h-2.53a1.075,1.075,0,0,0-1.071,1.073v1.032Zm-25.87-.642H7.683V20.62h-3.6a1.078,1.078,0,0,0-1.073,1.073v.391Zm4.676,1.071H3.008v1.617a2.338,2.338,0,0,0,4.676,0V23.154ZM20.617,33.746a3.724,3.724,0,0,1-3.046-.814,2.8,2.8,0,0,1-1.629.389v1.3a2.338,2.338,0,0,0,4.676,0Zm-4.676-1.5a1.725,1.725,0,0,0,1.328-.4l0,0,.012-.012a.535.535,0,0,1,.753.055,2.659,2.659,0,0,0,2.581.779V31.54a1.078,1.078,0,0,0-1.073-1.073h-2.53a1.078,1.078,0,0,0-1.073,1.073v.708Zm-8.09-5.173a3.4,3.4,0,0,1-5.012,0,3.8,3.8,0,0,0-1.287.753,1.343,1.343,0,0,0-.482.947v2.079h8.55V28.777a1.344,1.344,0,0,0-.49-.953,3.829,3.829,0,0,0-1.279-.749Zm26.771-2.3a3.387,3.387,0,0,1-.3,1.395,4.7,4.7,0,0,1,1.419.889,2.37,2.37,0,0,1,.818,1.722V31.39a.536.536,0,0,1-.534.536H30.936a15.159,15.159,0,0,1-.923,1.465A15.443,15.443,0,0,1,28.694,35a.535.535,0,0,1-.779-.733,14.144,14.144,0,0,0,1.229-1.5q.294-.413.559-.846H26.4a.537.537,0,0,1-.536-.536V28.777a2.377,2.377,0,0,1,.826-1.728,4.662,4.662,0,0,1,1.413-.882,3.356,3.356,0,0,1-.3-1.395V21.693a2.146,2.146,0,0,1,2.143-2.143h.35c-.115-.247-.241-.49-.374-.729a13.218,13.218,0,0,0-.889-1.389A.534.534,0,0,1,29.9,16.8a14.435,14.435,0,0,1,.959,1.5,13.708,13.708,0,0,1,.613,1.247h1.008a2.142,2.142,0,0,1,2.144,2.144v3.079Zm-.9,2.305a3.4,3.4,0,0,1-5.012,0,3.806,3.806,0,0,0-1.281.749,1.345,1.345,0,0,0-.486.951v2.079h8.548V28.777A1.338,1.338,0,0,0,35,27.83,3.77,3.77,0,0,0,33.719,27.077ZM21.688,34.618a3.38,3.38,0,0,1-.3,1.395,4.71,4.71,0,0,1,1.419.891,2.912,2.912,0,0,1,.5.611,13.03,13.03,0,0,0,1.253-.613,13.661,13.661,0,0,0,1.623-1.067.534.534,0,1,1,.648.848,14.687,14.687,0,0,1-1.753,1.152,13.715,13.715,0,0,1-1.453.7c0,.028,0,.059,0,.087v2.613a.534.534,0,0,1-.534.534H13.47a.536.536,0,0,1-.536-.534V38.626c0-.028,0-.057,0-.085a14.886,14.886,0,0,1-1.486-.7A14.355,14.355,0,0,1,9.7,36.713a.533.533,0,1,1,.64-.852A13.6,13.6,0,0,0,11.96,36.9a13.278,13.278,0,0,0,1.291.617,2.987,2.987,0,0,1,.494-.607,4.648,4.648,0,0,1,1.427-.895,3.357,3.357,0,0,1-.3-1.4V31.54A2.149,2.149,0,0,1,17.014,29.4h2.53a2.149,2.149,0,0,1,2.144,2.143v3.079Zm-.9,2.305a3.4,3.4,0,0,1-5.012,0,3.8,3.8,0,0,0-1.291.759,1.337,1.337,0,0,0-.478.943V40.7h8.55V38.626a1.339,1.339,0,0,0-.482-.947,3.8,3.8,0,0,0-1.287-.755ZM9.046,15.679A.534.534,0,0,1,8.3,14.91a13.93,13.93,0,0,1,2.561-1.957,7.436,7.436,0,0,1,14.826-.036c.419.257.824.536,1.212.832a14.508,14.508,0,0,1,1.342,1.158.533.533,0,1,1-.743.765A13.934,13.934,0,0,0,26.257,14.6c-.186-.144-.376-.279-.567-.411a9.624,9.624,0,0,1-1.947,4.74,7.063,7.063,0,0,0-1.558,3.894l0,2.475A2.595,2.595,0,0,1,19.6,27.884H16.962A2.591,2.591,0,0,1,14.375,25.3l0-2.475a7.078,7.078,0,0,0-1.558-3.894,9.621,9.621,0,0,1-1.945-4.716c-.2.134-.4.273-.589.417a12.772,12.772,0,0,0-1.239,1.051Zm6.4,8.807h5.667V23.4H15.446Zm5.645,1.071H15.468a1.522,1.522,0,0,0,1.494,1.257H19.6a1.522,1.522,0,0,0,1.492-1.257ZM17.763,17.6c-.087-.32-.239-.757-.411-1.257a16.362,16.362,0,0,1-1.127-4.668c0-1.35.516-2.314,2.054-2.314s2.056.963,2.056,2.314a16.362,16.362,0,0,1-1.127,4.668c-.174.5-.326.943-.415,1.263a.533.533,0,0,1-1.03-.006ZM17.3,11.68a14.679,14.679,0,0,0,.984,4.089,14.617,14.617,0,0,0,.986-4.089c0-.725-.249-1.243-.986-1.243S17.3,10.955,17.3,11.68Zm.449,7.815a.535.535,0,0,1,1.071,0v.557a.535.535,0,0,1-1.071,0ZM15.42,22.33h5.72a8.422,8.422,0,0,1,1.712-3.987,8.289,8.289,0,0,0,1.793-4.823,6.365,6.365,0,1,0-12.729,0,8.288,8.288,0,0,0,1.793,4.823,8.419,8.419,0,0,1,1.71,3.987Z"/>
  </g>
</svg>
