<svg xmlns="http://www.w3.org/2000/svg" width="25.327" height="32" viewBox="0 0 25.327 32">
  <g id="graduated" transform="translate(-53.387 0)">
    <g id="Group_1856" data-name="Group 1856" transform="translate(53.856 0.469)">
      <g id="Group_1846" data-name="Group 1846" transform="translate(0 14.758)">
        <path id="Path_160" data-name="Path 160" d="M172.181,251.43l-3.218-3.518v-4.279h-5.612v4.28l-3.183,3.516Z" transform="translate(-153.963 -243.633)" fill="#ffddce"/>
        <path id="Path_161" data-name="Path 161" d="M82.187,321.036,77.5,319.659l-4.414,5.062-4.414-5.061-4.692,1.377a4.3,4.3,0,0,0-3.089,4.126v4.527a1.522,1.522,0,0,0,1.522,1.522H83.754a1.522,1.522,0,0,0,1.522-1.522v-4.527A4.3,4.3,0,0,0,82.187,321.036Z" transform="translate(-60.887 -314.907)" fill="#407093"/>
        <g id="Group_1845" data-name="Group 1845" transform="translate(14.428 4.752)">
          <path id="Path_162" data-name="Path 162" d="M298.609,321.036l-4.691-1.377-2.181,2.5,2.914.856a4.3,4.3,0,0,1,3.089,4.126v4.07h2.436a1.522,1.522,0,0,0,1.522-1.522v-4.527A4.3,4.3,0,0,0,298.609,321.036Z" transform="translate(-291.737 -319.659)" fill="#365e7d"/>
        </g>
      </g>
      <g id="Group_1853" data-name="Group 1853" transform="translate(0.906)">
        <g id="Group_1852" data-name="Group 1852">
          <path id="Path_163" data-name="Path 163" d="M78.013,146.309l-.48-.53H76.505l-.481.53-.633,3.717a.575.575,0,0,0,.566.671H78.08a.575.575,0,0,0,.566-.671Z" transform="translate(-75.383 -137.137)" fill="#e4f6ff"/>
          <g id="Group_1850" data-name="Group 1850" transform="translate(5.289 3.192)">
            <g id="Group_1849" data-name="Group 1849">
              <g id="Group_1848" data-name="Group 1848">
                <g id="Group_1847" data-name="Group 1847">
                  <path id="Path_164" data-name="Path 164" d="M168.6,58.569h-5.2a3.4,3.4,0,0,0-3.4,3.4v3.776h12V61.97A3.4,3.4,0,0,0,168.6,58.569Z" transform="translate(-159.999 -58.569)" fill="#efc984"/>
                </g>
              </g>
            </g>
          </g>
          <path id="Path_165" data-name="Path 165" d="M289.4,58.569h-.544v7.177H292.8V61.97A3.4,3.4,0,0,0,289.4,58.569Z" transform="translate(-275.511 -55.377)" fill="#eabc6b"/>
          <path id="Path_166" data-name="Path 166" d="M170.992,126.6a1.028,1.028,0,0,1-1.028-1.028v-1.563h-7.9v1.563a1.028,1.028,0,0,1-1.028,1.028h-1.021v1.682a.778.778,0,0,0,.778.778.256.256,0,0,1,.254.242,4.977,4.977,0,0,0,9.933,0,.256.256,0,0,1,.254-.242.778.778,0,0,0,.778-.778V126.6Z" transform="translate(-154.725 -116.729)" fill="#ffddce"/>
          <path id="Path_167" data-name="Path 167" d="M252.775,126.6a1.028,1.028,0,0,1-1.028-1.028v-1.563h-1.9V129.8a4.977,4.977,0,0,1-2.6,4.134,5.031,5.031,0,0,0,.547.031,4.977,4.977,0,0,0,4.967-4.66.256.256,0,0,1,.254-.242.778.778,0,0,0,.778-.778V126.6h-1.021Z" transform="translate(-236.508 -116.729)" fill="#ffcbbe"/>
          <path id="Path_168" data-name="Path 168" d="M105.265,7.528l-9.506,3.024a.531.531,0,0,0,.072,1.029l9.6,1.634,9.6-1.634a.531.531,0,0,0,.072-1.029l-9.506-3.024a.531.531,0,0,0-.322,0Z" transform="translate(-94.139 -7.503)" fill="#407093"/>
          <path id="Path_169" data-name="Path 169" d="M166.156,73.5H154.307a.46.46,0,0,1-.46-.46V70.7l5.262-.651a9.141,9.141,0,0,1,2.244,0l5.264.651v2.345a.46.46,0,0,1-.46.46Z" transform="translate(-148.943 -66.074)" fill="#4a80aa"/>
          <g id="Group_1851" data-name="Group 1851" transform="translate(12.322 0.303)">
            <path id="Path_170" data-name="Path 170" d="M281.163,15.092l-8.633-2.746V15.1a1.028,1.028,0,0,0,1.02,1.028v1.281l7.541-1.284A.531.531,0,0,0,281.163,15.092Z" transform="translate(-272.53 -12.346)" fill="#365e7d"/>
          </g>
          <path id="Path_171" data-name="Path 171" d="M288.853,72.93v3.341h3.871a.46.46,0,0,0,.46-.46V73.466Z" transform="translate(-275.511 -68.841)" fill="#407093"/>
          <path id="Path_172" data-name="Path 172" d="M87.637,127.15H85.649v-1.305a.5.5,0,0,1,.5-.5h.984a.5.5,0,0,1,.5.5v1.305Z" transform="translate(-85.007 -117.978)" fill="#ffe07d"/>
        </g>
      </g>
      <g id="Group_1854" data-name="Group 1854" transform="translate(5.033 17.471)">
        <path id="Path_173" data-name="Path 173" d="M258.8,287.034a9.4,9.4,0,0,1-1.521,5.128L256,294.135l7.161-4.255Z" transform="translate(-248.839 -287.034)" fill="#4a80aa"/>
        <path id="Path_174" data-name="Path 174" d="M145.775,287.034a9.4,9.4,0,0,0,1.521,5.128l1.284,1.973-7.161-4.255Z" transform="translate(-141.419 -287.034)" fill="#4a80aa"/>
      </g>
      <g id="Group_1855" data-name="Group 1855" transform="translate(9.804 20.228)">
        <path id="Path_175" data-name="Path 175" d="M222.534,331.144a11.462,11.462,0,0,1-4.781,0,9.4,9.4,0,0,0,1.107,2.371l1.284,1.973,1.284-1.973A9.4,9.4,0,0,0,222.534,331.144Z" transform="translate(-217.753 -331.144)" fill="#f4fbff"/>
      </g>
    </g>
    <path id="Path_176" data-name="Path 176" d="M75.288,20.906l-1.878-.551-4.086-2.669v-.612a5.438,5.438,0,0,0,2.146-3.82,1.249,1.249,0,0,0,1.048-1.231V10.342c0-.006,0-.013,0-.019V8.193a.924.924,0,0,0,.386-.754V5.489l2.82-.48a1,1,0,0,0,.135-1.938L66.353.047a1,1,0,0,0-.606,0L56.24,3.071a1,1,0,0,0-.311,1.745V7.365h-.023a.972.972,0,0,0-.971.971V9.6l-.627,3.678A1.043,1.043,0,0,0,55.337,14.5h2.122a1.044,1.044,0,0,0,1.029-1.219L57.86,9.6V8.336a.972.972,0,0,0-.971-.971h-.023V5.092l2.331.4V7.439a.925.925,0,0,0,.385.753v3.833a1.249,1.249,0,0,0,1.048,1.231,5.439,5.439,0,0,0,2.144,3.818v.614L58.69,20.356l-1.877.551a4.767,4.767,0,0,0-3.426,4.576v1.4a.469.469,0,1,0,.938,0v-1.4a3.852,3.852,0,0,1,2.753-3.676l1.749-.513,6.985,4.151a.474.474,0,0,0,.479,0l6.986-4.151,1.748.513a3.853,3.853,0,0,1,2.752,3.676v4.527a1.054,1.054,0,0,1-1.053,1.053H74.657V29.042a.469.469,0,1,0-.938,0v2.021H58.379V29.042a.469.469,0,1,0-.938,0v2.021H55.378a1.054,1.054,0,0,1-1.053-1.053v-.939a.469.469,0,1,0-.938,0v.939A1.993,1.993,0,0,0,55.378,32H76.723a1.993,1.993,0,0,0,1.991-1.991V25.482a4.767,4.767,0,0,0-3.426-4.576Zm-17.83-7.346H55.337a.106.106,0,0,1-.1-.124L55.8,10.11H57l.567,3.327A.106.106,0,0,1,57.458,13.561Zm-.536-5.225v.836H55.872V8.336a.033.033,0,0,1,.033-.033h.984A.033.033,0,0,1,56.923,8.336Zm7.451,14.987.187.287-4.786-2.844,3.038-1.984A9.846,9.846,0,0,0,64.374,23.323Zm0-2.023a12.053,12.053,0,0,0,3.359,0,8.954,8.954,0,0,1-.789,1.512l-.891,1.369-.891-1.369a8.954,8.954,0,0,1-.789-1.512Zm3.356,2.023a9.845,9.845,0,0,0,1.561-4.541l3.038,1.984L67.54,23.61ZM70.469,8.367H71.58V9.873h-.551a.56.56,0,0,1-.56-.56V8.367Zm-13.945-4.4L66.031.94a.062.062,0,0,1,.038,0l9.506,3.024a.052.052,0,0,1,.043.064c0,.049-.031.053-.052.057l-3.143.535-1.18-.146a.469.469,0,0,0-.115.93l.838.1V7.43H60.135V5.508l4.85-.6a8.683,8.683,0,0,1,2.129,0l1.836.227a.469.469,0,0,0,.115-.93l-1.836-.227a9.616,9.616,0,0,0-2.359,0l-5.193.643-3.144-.535c-.02,0-.048-.008-.052-.057A.052.052,0,0,1,56.524,3.964Zm4,5.909V8.367h1.113v.947a.56.56,0,0,1-.56.56H60.52Zm1.032,3.14a.726.726,0,0,0-.722-.681.31.31,0,0,1-.309-.309V10.811h.552a1.5,1.5,0,0,0,1.5-1.5V8.367h6.962v.947a1.5,1.5,0,0,0,1.5,1.5h.552v1.213a.31.31,0,0,1-.309.309.726.726,0,0,0-.722.681,4.508,4.508,0,0,1-9,0Zm4.5,5.158a5.41,5.41,0,0,0,2.336-.53v.3a8.934,8.934,0,0,1-.316,2.355,11.069,11.069,0,0,1-4.04,0,8.933,8.933,0,0,1-.316-2.355c0-.01,0-.02,0-.029s0,0,0-.006v-.263A5.411,5.411,0,0,0,66.05,18.172Z"/>
  </g>
</svg>
