<svg xmlns="http://www.w3.org/2000/svg" width="30.439" height="30.321" viewBox="0 0 30.439 30.321">
  <g id="video-chat" transform="translate(0 -1)">
    <path id="Path_147" data-name="Path 147" d="M30.4,28.915l-2.212-5.161a2.226,2.226,0,0,0-1.07-1.124,2.222,2.222,0,0,0,.643-1.565V6.8a2.232,2.232,0,0,0-2.229-2.229H21.482V1.446A.446.446,0,0,0,21.036,1H9.4a.446.446,0,0,0-.446.446V4.567H4.9A2.232,2.232,0,0,0,2.675,6.8V21.065a2.222,2.222,0,0,0,.643,1.565,2.226,2.226,0,0,0-1.07,1.124L.036,28.915A.447.447,0,0,0,0,29.091a2.232,2.232,0,0,0,2.229,2.229H28.21a2.232,2.232,0,0,0,2.229-2.229A.447.447,0,0,0,30.4,28.915ZM17,1.892H20.59V4.567H17a2.225,2.225,0,0,0,0-2.675ZM18.73,5.459a1.34,1.34,0,0,1-1.261.892h-4.5a1.34,1.34,0,0,1-1.261-.892ZM15.22,1.892a1.338,1.338,0,1,1-1.338,1.338A1.339,1.339,0,0,1,15.22,1.892Zm-5.37,0h3.588a2.225,2.225,0,0,0,0,2.675H9.849ZM3.567,6.8A1.339,1.339,0,0,1,4.9,5.459h5.881a2.22,2.22,0,0,0,.4.892H4.9a.446.446,0,0,0-.446.446v6.242a.446.446,0,1,0,.892,0v-5.8H25.089V20.619H5.351v-5.8a.446.446,0,1,0-.892,0v6.242a.446.446,0,0,0,.446.446h20.63a.446.446,0,0,0,.446-.446V6.8a.446.446,0,0,0-.446-.446H19.251a2.221,2.221,0,0,0,.4-.892h5.881A1.339,1.339,0,0,1,26.872,6.8V21.065A1.339,1.339,0,0,1,25.535,22.4H4.9a1.339,1.339,0,0,1-1.338-1.338Zm-.5,17.309a1.336,1.336,0,0,1,1.23-.811H26.142a1.336,1.336,0,0,1,1.23.811l1.946,4.54H1.122ZM28.21,30.429H2.229a1.339,1.339,0,0,1-1.261-.892h28.5A1.34,1.34,0,0,1,28.21,30.429Z"/>
    <circle id="Ellipse_29" data-name="Ellipse 29" cx="0.446" cy="0.446" r="0.446" transform="translate(14.774 2.784)"/>
    <path id="Path_148" data-name="Path 148" d="M75.389,391.27a.446.446,0,0,0-.41-.27H53.134a.446.446,0,0,0-.41.27l-.764,1.783a.446.446,0,0,0,.41.622H75.743a.446.446,0,0,0,.41-.622Zm-22.343,1.513.382-.892H74.685l.382.892Z" transform="translate(-48.837 -366.814)"/>
    <path id="Path_149" data-name="Path 149" d="M166.113,245.459h9.849a.446.446,0,0,0,.446-.446v-1.784A2.232,2.232,0,0,0,174.179,241H167.9a2.232,2.232,0,0,0-2.229,2.229v1.784A.446.446,0,0,0,166.113,245.459Zm.446-2.229a1.339,1.339,0,0,1,1.338-1.338h6.282a1.339,1.339,0,0,1,1.338,1.338v1.338h-.892v-1.338a.446.446,0,0,0-.892,0v1.338h-5.39v-1.338a.446.446,0,0,0-.892,0v1.338h-.892Z" transform="translate(-155.818 -225.732)"/>
    <path id="Path_150" data-name="Path 150" d="M206.292,127.242a3.121,3.121,0,1,0-3.121-3.121A3.125,3.125,0,0,0,206.292,127.242Zm0-5.351a2.229,2.229,0,1,1-2.229,2.229A2.232,2.232,0,0,1,206.292,121.892Z" transform="translate(-191.092 -112.866)"/>
  </g>
</svg>
