<svg xmlns="http://www.w3.org/2000/svg" width="28.663" height="26.738" viewBox="0 0 28.663 26.738">
  <g id="chat" transform="translate(0 -17.192)">
    <g id="Group_1857" data-name="Group 1857" transform="translate(0 17.192)">
      <path id="Path_244" data-name="Path 244" d="M28.243,21.672a.42.42,0,0,0,.42-.42v-.775a3.289,3.289,0,0,0-3.285-3.285H3.285A3.289,3.289,0,0,0,0,20.477V34.222a3.289,3.289,0,0,0,3.285,3.285H9.531a.623.623,0,0,1,.537.31l3.179,5.489a1.252,1.252,0,0,0,2.168,0l3.179-5.489a.623.623,0,0,1,.537-.31h6.246a3.289,3.289,0,0,0,3.285-3.285V23.288a.42.42,0,1,0-.84,0V34.221a2.448,2.448,0,0,1-2.445,2.445H19.132a1.465,1.465,0,0,0-1.264.729l-3.179,5.489a.413.413,0,0,1-.714,0L10.8,37.4a1.465,1.465,0,0,0-1.264-.729H3.285A2.448,2.448,0,0,1,.84,34.221V20.477a2.448,2.448,0,0,1,2.445-2.446H25.378a2.448,2.448,0,0,1,2.445,2.446v.775a.42.42,0,0,0,.42.42Z" transform="translate(0 -17.192)"/>
      <path id="Path_245" data-name="Path 245" d="M91.538,110.009H83.75a.42.42,0,1,0,0,.84h7.788a2.18,2.18,0,0,0,2.177-2.177v-.647H95.05l1.789,1.674a1.291,1.291,0,0,0,2.173-.943v-6.881a1.291,1.291,0,0,0-2.173-.943l-1.789,1.674H93.716v-.647a2.18,2.18,0,0,0-2.177-2.177H81.4a2.18,2.18,0,0,0-2.177,2.177v6.712a2.18,2.18,0,0,0,2.177,2.177h.388a.42.42,0,0,0,0-.84H81.4a1.339,1.339,0,0,1-1.338-1.338v-6.712a1.339,1.339,0,0,1,1.338-1.338H91.538a1.339,1.339,0,0,1,1.338,1.338v6.712A1.339,1.339,0,0,1,91.538,110.009Zm4.1-6.8,1.777-1.663a.451.451,0,0,1,.759.329v6.881a.451.451,0,0,1-.759.329l-1.777-1.663Zm-1.92.238H94.8v3.739h-1.08Z" transform="translate(-74.783 -95.157)"/>
    </g>
  </g>
</svg>
