<svg xmlns="http://www.w3.org/2000/svg" width="30.074" height="27.02" viewBox="0 0 30.074 27.02">
  <g id="speech-bubble" transform="translate(0 0)">
    <path id="Path_224" data-name="Path 224" d="M246.587,100a.587.587,0,1,0,.587.587A.588.588,0,0,0,246.587,100Zm0,0" transform="translate(-231.55 -94.127)"/>
    <path id="Path_225" data-name="Path 225" d="M80.587,261.175a.587.587,0,1,0-.587-.587A.588.588,0,0,0,80.587,261.175Zm0,0" transform="translate(-75.301 -244.728)"/>
    <path id="Path_226" data-name="Path 226" d="M19.736,0c-5.288,0-9.628,3.646-9.964,8.238C4.736,8.491,0,12.122,0,17.034a8.208,8.208,0,0,0,2.291,5.617,3.572,3.572,0,0,1-.944,3.366.587.587,0,0,0,.415,1A6.479,6.479,0,0,0,6.251,25.2a13.385,13.385,0,0,0,4.087.64c5.287,0,9.627-3.645,9.964-8.237a13.208,13.208,0,0,0,3.521-.627A6.479,6.479,0,0,0,28.312,18.8a.587.587,0,0,0,.415-1,3.572,3.572,0,0,1-.944-3.366A8.208,8.208,0,0,0,30.074,8.81c0-5.1-5.1-8.811-10.338-8.811Zm-9.4,24.67a11.874,11.874,0,0,1-4.024-.693.587.587,0,0,0-.651.149A5.3,5.3,0,0,1,3.027,25.69a4.75,4.75,0,0,0,.358-3.5.586.586,0,0,0-.144-.248,7.059,7.059,0,0,1-2.067-4.912c0-4.139,4.2-7.636,9.163-7.636,4.69,0,8.811,3.262,8.811,7.636,0,4.211-3.952,7.636-8.811,7.636ZM26.833,13.722a.589.589,0,0,0-.144.248,4.75,4.75,0,0,0,.358,3.5A5.3,5.3,0,0,1,24.411,15.9a.588.588,0,0,0-.651-.149,11.571,11.571,0,0,1-3.461.678,8.408,8.408,0,0,0-3.174-5.859h7.662a.587.587,0,1,0,0-1.175H15.321A10.955,10.955,0,0,0,10.95,8.24C11.287,4.3,15.1,1.174,19.736,1.174c4.967,0,9.163,3.5,9.163,7.636a7.059,7.059,0,0,1-2.067,4.912Zm0,0"/>
    <path id="Path_227" data-name="Path 227" d="M127.988,260h-7.4a.587.587,0,1,0,0,1.175h7.4a.587.587,0,1,0,0-1.175Zm0,0" transform="translate(-112.951 -244.728)"/>
    <path id="Path_228" data-name="Path 228" d="M90.338,320H80.587a.587.587,0,1,0,0,1.175h9.751a.587.587,0,0,0,0-1.175Zm0,0" transform="translate(-75.301 -301.204)"/>
    <path id="Path_229" data-name="Path 229" d="M293.988,100h-7.4a.587.587,0,0,0,0,1.175h7.4a.587.587,0,0,0,0-1.175Zm0,0" transform="translate(-269.201 -94.127)"/>
  </g>
</svg>
