<svg xmlns="http://www.w3.org/2000/svg" width="27.209" height="25.93" viewBox="0 0 27.209 25.93">
  <g id="blog" transform="translate(0 -0.031)">
    <path id="Path_177" data-name="Path 177" d="M112.486,140.294a.425.425,0,0,1-.34-.68l2.551-3.4a.425.425,0,0,1,.68.51l-2.551,3.4A.423.423,0,0,1,112.486,140.294Zm0,0" transform="translate(-106.106 -128.785)"/>
    <path id="Path_178" data-name="Path 178" d="M163.036,140.285a.424.424,0,0,1-.34-.17l-2.551-3.4a.425.425,0,0,1,.68-.51l2.551,3.4a.425.425,0,0,1-.339.68Zm0,0" transform="translate(-151.555 -128.776)"/>
    <path id="Path_179" data-name="Path 179" d="M64.487,163.006a.425.425,0,0,1-.331-.691l1.7-2.125a.425.425,0,0,1,.664.531l-1.7,2.125A.426.426,0,0,1,64.487,163.006Zm0,0" transform="translate(-60.659 -151.497)"/>
    <path id="Path_180" data-name="Path 180" d="M97.752,162.46a.426.426,0,0,1-.333-.159l-1.261-1.577a.425.425,0,0,1,.664-.531l1.261,1.577a.425.425,0,0,1-.331.691Zm0,0" transform="translate(-90.961 -151.5)"/>
    <path id="Path_181" data-name="Path 181" d="M80.693,112.881a.425.425,0,0,1,0-.85h0a.425.425,0,0,1,0,.85Zm0,0" transform="translate(-76.001 -106.048)"/>
    <path id="Path_182" data-name="Path 182" d="M24.626,16.881a.425.425,0,0,1,0-.85h0a.425.425,0,1,1,0,.85Zm0,0" transform="translate(-22.913 -15.15)"/>
    <path id="Path_183" data-name="Path 183" d="M48.626,16.881a.425.425,0,0,1,0-.85h0a.425.425,0,0,1,0,.85Zm0,0" transform="translate(-45.638 -15.15)"/>
    <path id="Path_184" data-name="Path 184" d="M72.626,16.881a.425.425,0,0,1,0-.85h0a.425.425,0,1,1,0,.85Zm0,0" transform="translate(-68.363 -15.15)"/>
    <path id="Path_185" data-name="Path 185" d="M26.921,56.261H.57a.425.425,0,0,1-.425-.425V32.456a.425.425,0,0,1,.425-.425H26.921a.425.425,0,0,1,.425.425v23.38A.425.425,0,0,1,26.921,56.261ZM1,55.411H26.5V32.881H1Zm0,0" transform="translate(-0.137 -30.299)"/>
    <path id="Path_186" data-name="Path 186" d="M.425,1.732A.425.425,0,0,1,0,1.307,1.277,1.277,0,0,1,1.275.031a.425.425,0,0,1,0,.85.425.425,0,0,0-.425.425A.425.425,0,0,1,.425,1.732Zm0,0"/>
    <path id="Path_187" data-name="Path 187" d="M.425,17.732A.425.425,0,0,1,0,17.307v-.85a.425.425,0,1,1,.85,0v.85A.425.425,0,0,1,.425,17.732Zm0,0" transform="translate(0 -15.15)"/>
    <path id="Path_188" data-name="Path 188" d="M481.2,1.732a.425.425,0,0,1-.425-.425.425.425,0,0,0-.425-.425.425.425,0,0,1,0-.85,1.277,1.277,0,0,1,1.275,1.275A.425.425,0,0,1,481.2,1.732Zm0,0" transform="translate(-454.421)"/>
    <path id="Path_189" data-name="Path 189" d="M496.347,17.732a.425.425,0,0,1-.425-.425v-.85a.425.425,0,1,1,.85,0v.85A.425.425,0,0,1,496.347,17.732Zm0,0" transform="translate(-469.571 -15.15)"/>
    <path id="Path_190" data-name="Path 190" d="M41.076.881H16.425a.425.425,0,0,1,0-.85H41.076a.425.425,0,0,1,0,.85Zm0,0" transform="translate(-15.15)"/>
    <path id="Path_191" data-name="Path 191" d="M50.265,79.683H40.488a.425.425,0,0,1-.425-.425v-6.8a.425.425,0,0,1,.425-.425h9.777a.425.425,0,0,1,.425.425v6.8A.425.425,0,0,1,50.265,79.683Zm-9.352-.85H49.84V72.881H40.913Zm0,0" transform="translate(-37.934 -68.174)"/>
    <path id="Path_192" data-name="Path 192" d="M50.265,232.881H40.488a.425.425,0,1,1,0-.85h9.777a.425.425,0,1,1,0,.85Zm0,0" transform="translate(-37.934 -219.672)"/>
    <path id="Path_193" data-name="Path 193" d="M50.265,264.881H40.488a.425.425,0,1,1,0-.85h9.777a.425.425,0,1,1,0,.85Zm0,0" transform="translate(-37.934 -249.972)"/>
    <path id="Path_194" data-name="Path 194" d="M45.164,296.881H40.488a.425.425,0,1,1,0-.85h4.676a.425.425,0,1,1,0,.85Zm0,0" transform="translate(-37.934 -280.271)"/>
    <path id="Path_195" data-name="Path 195" d="M282.265,79.683h-9.777a.425.425,0,0,1-.425-.425v-6.8a.425.425,0,0,1,.425-.425h9.777a.425.425,0,0,1,.425.425v6.8A.425.425,0,0,1,282.265,79.683Zm-9.352-.85h8.927V72.881h-8.927Zm0,0" transform="translate(-257.607 -68.174)"/>
    <path id="Path_196" data-name="Path 196" d="M282.265,232.881h-9.777a.425.425,0,0,1,0-.85h9.777a.425.425,0,1,1,0,.85Zm0,0" transform="translate(-257.607 -219.672)"/>
    <path id="Path_197" data-name="Path 197" d="M282.265,264.881h-9.777a.425.425,0,1,1,0-.85h9.777a.425.425,0,1,1,0,.85Zm0,0" transform="translate(-257.607 -249.972)"/>
    <path id="Path_198" data-name="Path 198" d="M276.739,296.881h-4.251a.425.425,0,1,1,0-.85h4.251a.425.425,0,1,1,0,.85Zm0,0" transform="translate(-257.607 -280.271)"/>
    <path id="Path_199" data-name="Path 199" d="M62.593,341.982h-22.1a.425.425,0,0,1-.425-.425v-5.1a.425.425,0,0,1,.425-.425h22.1a.425.425,0,0,1,.425.425v5.1A.425.425,0,0,1,62.593,341.982Zm-21.679-.85H62.168v-4.251H40.913Zm0,0" transform="translate(-37.934 -318.146)"/>
    <path id="Path_200" data-name="Path 200" d="M225.778,363.429a.424.424,0,0,1-.3-.125l-.3-.3h-.249a.425.425,0,0,1-.425-.425v-.249l-.3-.3a.425.425,0,0,1,0-.6l.3-.3v-.25a.425.425,0,0,1,.425-.425h.249l.3-.3a.425.425,0,0,1,.6,0l.3.3h.249a.425.425,0,0,1,.425.425v.249l.3.3a.425.425,0,0,1,0,.6l-.3.3v.249a.425.425,0,0,1-.425.424h-.249l-.3.3A.424.424,0,0,1,225.778,363.429Zm-.425-1.275a.423.423,0,0,1,.3.125l.125.125.125-.125a.425.425,0,0,0,.425-.424l.125-.125-.124-.124a.427.427,0,0,1-.125-.3v0a.423.423,0,0,1-.3-.125l-.125-.125-.125.125a.424.424,0,0,1-.3.125h0a.424.424,0,0,1-.124.3l-.125.125.124.124A.425.425,0,0,1,225.353,362.154Zm0,0" transform="translate(-212.172 -340.868)"/>
    <path id="Path_201" data-name="Path 201" d="M78.439,368.881H72.488a.425.425,0,1,1,0-.85h5.951a.425.425,0,1,1,0,.85Zm0,0" transform="translate(-68.234 -348.446)"/>
    <path id="Path_202" data-name="Path 202" d="M107.039,400.881h-2.551a.425.425,0,0,1,0-.85h2.551a.425.425,0,1,1,0,.85Zm0,0" transform="translate(-98.534 -378.745)"/>
    <path id="Path_203" data-name="Path 203" d="M318.439,368.881h-5.951a.425.425,0,1,1,0-.85h5.951a.425.425,0,1,1,0,.85Zm0,0" transform="translate(-295.481 -348.446)"/>
    <path id="Path_204" data-name="Path 204" d="M347.039,400.881h-2.551a.425.425,0,1,1,0-.85h2.551a.425.425,0,1,1,0,.85Zm0,0" transform="translate(-325.781 -378.745)"/>
    <path id="Path_205" data-name="Path 205" d="M344.488,108.282a.425.425,0,0,1-.425-.425v-3.4a.425.425,0,1,1,.85,0v3.4A.425.425,0,0,1,344.488,108.282Zm0,0" transform="translate(-325.781 -98.474)"/>
    <path id="Path_206" data-name="Path 206" d="M344.485,138.578a.425.425,0,0,1-.236-.779l2.551-1.7a.425.425,0,0,1,.472.707l-2.551,1.7A.425.425,0,0,1,344.485,138.578Zm0,0" transform="translate(-325.778 -128.77)"/>
    <path id="Path_207" data-name="Path 207" d="M347.036,106.578a.425.425,0,0,1-.235-.071l-2.551-1.7a.425.425,0,1,1,.472-.707l2.551,1.7a.425.425,0,0,1-.236.779Zm0,0" transform="translate(-325.778 -98.47)"/>
  </g>
</svg>
