<svg xmlns="http://www.w3.org/2000/svg" width="49.806" height="46.32" viewBox="0 0 49.806 46.32">
  <g id="Icon_ionic-md-analytics" data-name="Icon ionic-md-analytics" transform="translate(-1.75 -2.875)">
    <path id="Path_589" data-name="Path 589" d="M40.088,12.861l-9.5,14.53a5.174,5.174,0,0,1,1.176,3.3,5.228,5.228,0,0,1-10.456,0,5.729,5.729,0,0,1,.087-.969l-6.274-3.649A5.2,5.2,0,0,1,11.5,27.532a5.257,5.257,0,0,1-2.57-.675L2.25,33.109v6.23A4.662,4.662,0,0,0,6.9,43.989H46.4a4.662,4.662,0,0,0,4.651-4.651V16.183l-6.383-4.237a5.224,5.224,0,0,1-4.585.915Z" transform="translate(0 4.706)" fill="none" stroke="#0755f6" stroke-width="1"/>
    <path id="Path_590" data-name="Path 590" d="M11.508,21.782a5.229,5.229,0,0,1,5.228,5.228c0,.229-.022.457-.044.675l6.546,3.66a5.182,5.182,0,0,1,3.311-1.176,5.471,5.471,0,0,1,1.133.12L37.2,15.541a5.173,5.173,0,0,1-.969-3.028,5.228,5.228,0,0,1,10.456,0,5.682,5.682,0,0,1-.142,1.231l4.5,3.006V8.026a4.662,4.662,0,0,0-4.651-4.651H6.9A4.662,4.662,0,0,0,2.25,8.026V33l4.357-4.172a5.228,5.228,0,0,1,4.9-7.047Z" fill="none" stroke="#0755f6" stroke-width="1"/>
  </g>
</svg>
