<svg xmlns="http://www.w3.org/2000/svg" width="52.881" height="52.881" viewBox="0 0 52.881 52.881">
  <path id="Path_254" data-name="Path 254" d="M28.43,2a26.44,26.44,0,1,0,26.44,26.44A26.45,26.45,0,0,0,28.43,2Zm9.545,16.763a5.1,5.1,0,1,1-5.1,5.1A5.089,5.089,0,0,1,37.975,18.763ZM22.111,14.586a6.24,6.24,0,1,1-6.24,6.24A6.251,6.251,0,0,1,22.111,14.586Zm0,24.14v9.915A21.17,21.17,0,0,1,8.521,35.526c2.776-2.961,9.7-4.468,13.59-4.468a26.9,26.9,0,0,1,5.024.582C22.8,33.94,22.111,36.981,22.111,38.726ZM28.43,49.593a18.115,18.115,0,0,1-2.089-.106V38.726c0-3.755,7.773-5.632,11.634-5.632,2.829,0,7.721,1.031,10.153,3.041a21.2,21.2,0,0,1-19.7,13.458Z" transform="translate(-1.99 -2)" fill="#4480ff"/>
</svg>
