<svg xmlns="http://www.w3.org/2000/svg" width="44.895" height="51.308" viewBox="0 0 44.895 51.308">
  <path id="Icon_metro-files-empty" data-name="Icon metro-files-empty" d="M47.279,19.82a45.424,45.424,0,0,0-4.368-5,45.445,45.445,0,0,0-5-4.368c-2.584-1.895-3.838-2.114-4.556-2.114H14.921a4.013,4.013,0,0,0-4.008,4.008V49.228a4.013,4.013,0,0,0,4.008,4.008H45.385a4.013,4.013,0,0,0,4.008-4.008V24.375c0-.718-.219-1.972-2.114-4.556Zm-6.636-2.728a43.735,43.735,0,0,1,3.637,4.077H36.566V13.455A43.7,43.7,0,0,1,40.644,17.091Zm5.543,32.137a.812.812,0,0,1-.8.8H14.921a.812.812,0,0,1-.8-.8V12.35a.812.812,0,0,1,.8-.8H33.36V22.772a1.6,1.6,0,0,0,1.6,1.6H46.187ZM31.5,4.042c-2.584-1.9-3.838-2.114-4.556-2.114H8.507A4.013,4.013,0,0,0,4.5,5.936V42.814a4.015,4.015,0,0,0,3.207,3.928V5.936a.812.812,0,0,1,.8-.8H32.9c-.483-.4-.953-.765-1.4-1.093Z" transform="translate(-4.499 -1.928)"/>
</svg>
