<svg xmlns="http://www.w3.org/2000/svg" width="59.267" height="50.787" viewBox="0 0 59.267 50.787">
  <g id="Icon_ionic-ios-desktop" data-name="Icon ionic-ios-desktop" transform="translate(-2.25 -4.5)">
    <path id="Path_568" data-name="Path 568" d="M36.653,33.708a.674.674,0,0,0-.556-.569l-2.95-.251a4.6,4.6,0,0,1-2.95-3.744l-.159-1.019H17.867l-.159,1.005a4.619,4.619,0,0,1-2.95,3.744l-2.95.251a.722.722,0,0,0-.556.569.679.679,0,0,0,.675.767h24.05A.668.668,0,0,0,36.653,33.708Z" transform="translate(7.931 20.825)" fill="#0755f6"/>
    <path id="Path_569" data-name="Path 569" d="M60.577,5.426A3.2,3.2,0,0,0,58.328,4.5H5.451A3.173,3.173,0,0,0,3.2,5.426,3.222,3.222,0,0,0,2.25,7.675V43.658A3.2,3.2,0,0,0,3.2,45.907a3.134,3.134,0,0,0,2.222.926H58.341a3.111,3.111,0,0,0,2.222-.926,3.222,3.222,0,0,0,.952-2.249V7.675A3.153,3.153,0,0,0,60.577,5.426ZM31.883,43.658A1.058,1.058,0,1,1,32.941,42.6,1.061,1.061,0,0,1,31.883,43.658Zm26.974-5.292H4.922a.531.531,0,0,1-.529-.529V8.2A1.592,1.592,0,0,1,5.981,6.617H57.8A1.592,1.592,0,0,1,59.386,8.2V37.837A.531.531,0,0,1,58.857,38.366Z" fill="#0755f6"/>
  </g>
</svg>
