<svg xmlns="http://www.w3.org/2000/svg" width="51.865" height="51.865" viewBox="0 0 51.865 51.865">
  <g id="Icon_feather-image" data-name="Icon feather-image" transform="translate(-3 -3)">
    <path id="Path_581" data-name="Path 581" d="M9.86,4.5H47.383a5.36,5.36,0,0,1,5.36,5.36V47.383a5.36,5.36,0,0,1-5.36,5.36H9.86a5.36,5.36,0,0,1-5.36-5.36V9.86A5.36,5.36,0,0,1,9.86,4.5Z" transform="translate(0 0)" fill="none" stroke="#000" stroke-linecap="round" stroke-linejoin="round" stroke-width="3"/>
    <path id="Path_582" data-name="Path 582" d="M18.541,14.52a4.02,4.02,0,1,1-4.02-4.02A4.02,4.02,0,0,1,18.541,14.52Z" transform="translate(4.721 4.721)" fill="none" stroke="#000" stroke-linecap="round" stroke-linejoin="round" stroke-width="3"/>
    <path id="Path_583" data-name="Path 583" d="M50.383,28.4,36.982,15,7.5,44.482" transform="translate(2.36 8.261)" fill="none" stroke="#000" stroke-linecap="round" stroke-linejoin="round" stroke-width="3"/>
  </g>
</svg>
