<svg xmlns="http://www.w3.org/2000/svg" width="48.015" height="42.363" viewBox="0 0 48.015 42.363">
  <path id="Icon_awesome-comment" data-name="Icon awesome-comment" d="M22.493,2.25C10.069,2.25,0,10.43,0,20.526A16.221,16.221,0,0,0,5.008,32.01C3.91,36.438.237,40.383.193,40.427a.7.7,0,0,0-.132.764.688.688,0,0,0,.641.422A20.094,20.094,0,0,0,13.057,37.1a26.8,26.8,0,0,0,9.437,1.7c12.424,0,22.493-8.18,22.493-18.276S34.917,2.25,22.493,2.25Z" transform="translate(1.528 -0.75)" fill="none" stroke="#000" stroke-width="3"/>
</svg>
