<svg xmlns="http://www.w3.org/2000/svg" width="52.153" height="57.615" viewBox="0 0 52.153 57.615">
  <g id="Icon_feather-share-2" data-name="Icon feather-share-2" transform="translate(-3 -1.5)">
    <path id="Path_571" data-name="Path 571" d="M38.884,11.192A8.192,8.192,0,1,1,30.692,3,8.192,8.192,0,0,1,38.884,11.192Z" transform="translate(14.769 0)" fill="none" stroke="#3e77ee" stroke-linecap="round" stroke-linejoin="round" stroke-width="3"/>
    <path id="Path_572" data-name="Path 572" d="M20.884,21.692A8.192,8.192,0,1,1,12.692,13.5,8.192,8.192,0,0,1,20.884,21.692Z" transform="translate(0 8.615)" fill="none" stroke="#3e77ee" stroke-linecap="round" stroke-linejoin="round" stroke-width="3"/>
    <path id="Path_573" data-name="Path 573" d="M38.884,32.192A8.192,8.192,0,1,1,30.692,24,8.192,8.192,0,0,1,38.884,32.192Z" transform="translate(14.769 17.23)" fill="none" stroke="#3e77ee" stroke-linecap="round" stroke-linejoin="round" stroke-width="3"/>
    <path id="Path_574" data-name="Path 574" d="M12.885,20.265,31.536,31.133" transform="translate(6.88 14.166)" fill="none" stroke="#3e77ee" stroke-linecap="round" stroke-linejoin="round" stroke-width="3"/>
    <path id="Path_575" data-name="Path 575" d="M31.509,9.765,12.885,20.633" transform="translate(6.88 5.551)" fill="none" stroke="#3e77ee" stroke-linecap="round" stroke-linejoin="round" stroke-width="3"/>
  </g>
</svg>
