<svg xmlns="http://www.w3.org/2000/svg" width="42.022" height="58.836" viewBox="0 0 42.022 58.836">
  <path id="Icon_ionic-ios-tablet-portrait" data-name="Icon ionic-ios-tablet-portrait" d="M47.866,3.17a3.143,3.143,0,0,0-2.22-.92H9.889a3.12,3.12,0,0,0-2.22.92h0a3.143,3.143,0,0,0-.92,2.22V57.946a3.12,3.12,0,0,0,.92,2.22h0a3.143,3.143,0,0,0,2.22.92H45.632a3.12,3.12,0,0,0,2.22-.92h0a3.143,3.143,0,0,0,.92-2.22V5.389a3.076,3.076,0,0,0-.906-2.22ZM27.715,4.444a.92.92,0,1,1-.92.92A.931.931,0,0,1,27.715,4.444Zm.053,55.342a1.846,1.846,0,1,1,1.852-1.852A1.885,1.885,0,0,1,27.768,59.785Zm18.916-4.992H8.852V8.555H46.683Z" transform="translate(-6.75 -2.25)" fill="#0755f6"/>
</svg>
