<svg xmlns="http://www.w3.org/2000/svg" width="61.693" height="61.703" viewBox="0 0 61.693 61.703">
  <g id="cooperation" transform="translate(-0.041)">
    <path id="Path_274" data-name="Path 274" d="M208.169,122.636h6.759a2.717,2.717,0,0,0,2.714-2.714v-1.086a6.057,6.057,0,0,0-6.094-5.853,6.173,6.173,0,0,0-2.831.7.9.9,0,1,0,.833,1.6,4.36,4.36,0,0,1,2-.5,4.28,4.28,0,0,1,4.286,4.046v1.086a.908.908,0,0,1-.907.907h-6.759a.908.908,0,0,1-.907-.907,9.414,9.414,0,0,1,.094-1.908.9.9,0,1,0-1.761-.409,10.077,10.077,0,0,0-.141,2.317A2.717,2.717,0,0,0,208.169,122.636Z" transform="translate(-180.66 -99.368)" fill="#4480ff"/>
    <path id="Path_275" data-name="Path 275" d="M230.115,49.7a3.612,3.612,0,1,0-3.612-3.612A3.616,3.616,0,0,0,230.115,49.7Zm0-5.417a1.8,1.8,0,1,1-1.8,1.8A1.807,1.807,0,0,1,230.115,44.283Z" transform="translate(-199.175 -37.358)" fill="#4480ff"/>
    <path id="Path_276" data-name="Path 276" d="M354.45,393.017a.9.9,0,0,0-.564,1.147,3.654,3.654,0,0,1,.2,1.18v1.086a.908.908,0,0,1-.907.907h-6.759a.908.908,0,0,1-.907-.907v-1.086a4.286,4.286,0,0,1,5.983-3.693.9.9,0,1,0,.712-1.661,6.092,6.092,0,0,0-8.5,5.354v1.086a2.717,2.717,0,0,0,2.714,2.714h6.759a2.717,2.717,0,0,0,2.714-2.714v-1.086a5.457,5.457,0,0,0-.293-1.763A.9.9,0,0,0,354.45,393.017Z" transform="translate(-302.253 -342.56)" fill="#4480ff"/>
    <path id="Path_277" data-name="Path 277" d="M368.345,326.209a3.612,3.612,0,1,0-3.612-3.612A3.616,3.616,0,0,0,368.345,326.209Zm0-5.417a1.8,1.8,0,1,1-1.8,1.805A1.807,1.807,0,0,1,368.345,320.791Z" transform="translate(-320.749 -280.548)" fill="#4480ff"/>
    <path id="Path_278" data-name="Path 278" d="M49.939,33.521A19.736,19.736,0,0,0,43.76,20.162a14.191,14.191,0,1,0-25.729.035,19.736,19.736,0,0,0-6.141,13.315A14.192,14.192,0,1,0,26.262,55.028a22.047,22.047,0,0,0,9.18-.113,14.19,14.19,0,1,0,14.5-21.395ZM30.888,1.807A12.385,12.385,0,1,1,18.5,14.193,12.4,12.4,0,0,1,30.888,1.807ZM14.232,59.9A12.385,12.385,0,1,1,26.615,47.51,12.4,12.4,0,0,1,14.232,59.9Zm15.186-6.29a22.614,22.614,0,0,1-2.258-.245A14.191,14.191,0,0,0,13.716,33.328a17.945,17.945,0,0,1,5.221-11.49,14.18,14.18,0,0,0,23.923-.033A17.944,17.944,0,0,1,48.114,33.33,14.19,14.19,0,0,0,34.57,53.258,18.781,18.781,0,0,1,29.418,53.605ZM47.544,59.9A12.385,12.385,0,1,1,59.927,47.51,12.4,12.4,0,0,1,47.544,59.9Z" fill="#4480ff"/>
    <path id="Path_279" data-name="Path 279" d="M73.334,389.49a6.057,6.057,0,0,0-6.094,5.853v1.087a2.717,2.717,0,0,0,2.714,2.714h1.294a.9.9,0,0,0,0-1.807H69.954a.908.908,0,0,1-.907-.907v-1.087a4.293,4.293,0,0,1,8.572,0v1.087a.908.908,0,0,1-.907.907h-1.24a.9.9,0,0,0,0,1.807h1.24a2.717,2.717,0,0,0,2.714-2.714v-1.087A6.057,6.057,0,0,0,73.334,389.49Z" transform="translate(-59.102 -342.559)" fill="#4480ff"/>
    <path id="Path_280" data-name="Path 280" d="M91.885,326.209a3.612,3.612,0,1,0-3.612-3.612A3.616,3.616,0,0,0,91.885,326.209Zm0-5.417a1.8,1.8,0,1,1-1.8,1.805A1.807,1.807,0,0,1,91.885,320.791Z" transform="translate(-77.601 -280.548)" fill="#4480ff"/>
  </g>
</svg>
