<svg xmlns="http://www.w3.org/2000/svg" width="40.046" height="40.045" viewBox="0 0 40.046 40.045">
  <path id="Icon_awesome-pencil-alt" data-name="Icon awesome-pencil-alt" d="M37.967,10.835l-3.515,3.515a.916.916,0,0,1-1.3,0L24.691,5.886a.916.916,0,0,1,0-1.3l3.515-3.515a3.668,3.668,0,0,1,5.178,0l4.583,4.583A3.654,3.654,0,0,1,37.967,10.835ZM21.671,7.61,1.647,27.634.03,36.9a1.832,1.832,0,0,0,2.12,2.12l9.265-1.624L31.439,17.37a.916.916,0,0,0,0-1.3L22.975,7.61a.925.925,0,0,0-1.3,0ZM9.463,25.918a1.063,1.063,0,0,1,0-1.51L21.206,12.665a1.068,1.068,0,0,1,1.51,1.51L10.973,25.918a1.063,1.063,0,0,1-1.51,0ZM6.71,32.331h3.66V35.1l-4.918.862L3.081,33.59l.862-4.918H6.71Z" transform="translate(0.504 0.495)" fill="none" stroke="#000" stroke-width="1"/>
</svg>
