<svg xmlns="http://www.w3.org/2000/svg" width="24.791" height="18.393" viewBox="0 0 24.791 18.393">
  <g id="responsive" transform="translate(-8 -72)">
    <path id="Path_422" data-name="Path 422" d="M33.6,400H32.4a.4.4,0,1,0,0,.8h1.2a.4.4,0,1,0,0-.8Z" transform="translate(-22.8 -311.606)"/>
    <path id="Path_423" data-name="Path 423" d="M80.8,400h-.4a.4.4,0,1,0,0,.8h.4a.4.4,0,1,0,0-.8Z" transform="translate(-68.401 -311.606)"/>
    <path id="Path_424" data-name="Path 424" d="M31.191,76.8h-.8V73.6a1.6,1.6,0,0,0-1.6-1.6H12a1.6,1.6,0,0,0-1.6,1.6v7.2H9.6A1.6,1.6,0,0,0,8,82.4v6.4a1.6,1.6,0,0,0,1.6,1.6h4a1.6,1.6,0,0,0,1.6-1.6v-1.2h3.486l-.2.8H17.2a.4.4,0,0,0-.4.4v1.2a.4.4,0,0,0,.4.4H31.191a1.6,1.6,0,0,0,1.6-1.6V78.4A1.6,1.6,0,0,0,31.191,76.8Zm-16.794,12a.8.8,0,0,1-.8.8h-4a.8.8,0,0,1-.8-.8V82.4a.8.8,0,0,1,.8-.8h.511l.309.926a.4.4,0,0,0,.379.273h1.6a.4.4,0,0,0,.379-.273l.309-.926H13.6a.8.8,0,0,1,.8.8Zm-3.444-7.2h1.29l-.133.4H11.087Zm4.243,5.2v-1.2h7.2v1.2Zm7.2.8v.8h-.087l-.2-.8Zm-.912.8H19.308l.2-.8h1.774Zm-3.886,1.2v-.4h4.849a1.6,1.6,0,0,0,.165.4Zm4.8-11.2v6.4H15.2V82.4a1.6,1.6,0,0,0-1.6-1.6H11.2V73.6a.8.8,0,0,1,.8-.8H28.792a.8.8,0,0,1,.8.8v3.2h-5.6A1.6,1.6,0,0,0,22.395,78.4Zm9.6,10.4a.8.8,0,0,1-.8.8h-7.2a.8.8,0,0,1-.8-.8V78.4a.8.8,0,0,1,.8-.8h7.2a.8.8,0,0,1,.8.8Z" transform="translate(0 0)"/>
    <path id="Path_425" data-name="Path 425" d="M327.6,192h-7.2a.4.4,0,0,0-.4.4v9.2a.4.4,0,0,0,.4.4h7.2a.4.4,0,0,0,.4-.4v-9.2A.4.4,0,0,0,327.6,192Zm-.4,9.2h-6.4v-8.4h6.4Z" transform="translate(-296.406 -114.002)"/>
    <circle id="Ellipse_51" data-name="Ellipse 51" transform="translate(26 90)"/>
  </g>
</svg>
