<svg xmlns="http://www.w3.org/2000/svg" width="23.742" height="23.742" viewBox="0 0 23.742 23.742">
  <path id="Path_392" data-name="Path 392" d="M14.091,2.066a.4.4,0,0,0-.439,0L3.068,9.123H2V11.5h.791V13.08h.791v8.706H2.791v1.583H2v2.374H25.742V23.368h-.791V21.785H24.16V13.08h.791V11.5h.791V9.123H24.674Zm-.22.8,9.378,6.252H4.493ZM3.583,22.577H24.16v.791H3.583Zm4.748-9.5v8.706H5.957V13.08h.791V11.5H7.54V13.08Zm-2.374-.791H3.583V11.5H5.957Zm-.791.791v8.706H4.374V13.08Zm11.871,0v8.706h-.791V15.454H11.5v6.331h-.791V13.08H11.5V11.5h4.748V13.08Zm-1.583,3.166v5.54H14.267v-5.54Zm-1.979,0v5.54H12.288v-5.54Zm-2.77-3.957H8.331V11.5h2.374Zm-.791.791v8.706H9.123V13.08Zm11.871,0v8.706H19.411V13.08H20.2V11.5h.791V13.08Zm-2.374-.791H17.037V11.5h2.374Zm-.791.791v8.706h-.791V13.08Zm3.957,8.706V13.08h.791v8.706Zm2.374,2.374v.791H2.791V24.16ZM24.16,12.288H21.785V11.5H24.16Zm.791-1.583H2.791V9.914h22.16Z" transform="translate(-2 -2)"/>
</svg>
